<?xml version="1.0" standalone="no"?>
<!DOCTYPE svg PUBLIC "-//W3C//DTD SVG 1.1//EN" "http://www.w3.org/Graphics/SVG/1.1/DTD/svg11.dtd" >
<svg xmlns="http://www.w3.org/2000/svg" xmlns:xlink="http://www.w3.org/1999/xlink" version="1.1">
<metadata>
Created by FontForge 20170812 at Mon Mar  9 13:02:09 2020
 By www-data
Copyright 2013 The Exo 2 Project Authors (https://github.com/NDISCOVER/Exo-2.0)
</metadata>
<defs>
<font id="Exo2-Bold" horiz-adv-x="590" >
  <font-face 
    font-family="Exo 2"
    font-weight="700"
    font-stretch="normal"
    units-per-em="1000"
    panose-1="0 0 0 0 0 0 0 0 0 0"
    ascent="800"
    descent="-200"
    x-height="494"
    cap-height="690"
    bbox="-461 -301.113 1266 1101"
    underline-thickness="50"
    underline-position="-100"
    unicode-range="U+000D-FB02"
  />
<missing-glyph 
d="M121 690v-690h-41v690h41zM510 690v-690h-41v690h41zM80 690h430v-41h-430v41zM80 41h430v-41h-430v41z" />
    <glyph glyph-name="f_f" unicode="ff" horiz-adv-x="757" 
d="M266 709q16 0 42 -1t53.5 -3t46.5 -6l-13 -95h-79q-38 0 -53 -14t-15 -53v-537h-144v556q1 46 17 81t51.5 53.5t93.5 18.5zM620 721q18 0 47 -1t60 -3.5t53 -6.5l-13 -95h-97q-38 0 -52.5 -15t-14.5 -52v-548h-145v567q0 47 16 81t51 53.5t95 19.5zM742 494v-97h-724v92
l89 5h635z" />
    <glyph glyph-name="f_f_i" unicode="ffi" horiz-adv-x="1015" 
d="M262 709q16 0 42 -1t53.5 -3t47.5 -6l-14 -95h-79q-38 0 -52.5 -14t-14.5 -53v-537h-145v556q1 46 17.5 81t52 53.5t92.5 18.5zM808 494v-97h-790v92l89 5h701zM618 721q25 0 63 -2.5t68 -8.5v-95h-79q-41 0 -56 -16t-15 -56v-543h-144v562q0 48 16 84t51.5 55.5
t95.5 19.5zM950 494v-494h-147v494h147zM908 717q44 0 44 -44v-54q0 -45 -44 -45h-63q-44 0 -44 45v54q0 44 44 44h63z" />
    <glyph glyph-name="f_f_l" unicode="ffl" horiz-adv-x="1076" 
d="M266 709q16 0 42 -1t53.5 -3t46.5 -6l-13 -95h-79q-38 0 -53 -14t-15 -53v-537h-144v556q1 46 17 81t51.5 53.5t93.5 18.5zM620 721h44t68.5 -1t80.5 -3t81.5 -5.5t70.5 -9.5v-549q0 -26 13.5 -38.5t39.5 -12.5h37l17 -94q-12 -6 -33.5 -10.5t-44 -7t-38.5 -2.5
q-64 0 -101.5 34t-37.5 94v501h-148q-35 1 -50.5 -15.5t-15.5 -58.5v-543h-145v562q0 48 15.5 84t51 55.5t95.5 19.5zM733 494v-97h-715v92l89 5h626z" />
    <glyph glyph-name="fi" unicode="fi" horiz-adv-x="667" 
d="M266 721q25 0 64 -2.5t69 -8.5v-95h-80q-38 0 -52.5 -16t-14.5 -56v-543h-149v562q0 48 16 84t51.5 55.5t95.5 19.5zM460 494v-97h-442v92l88 5h354zM602 494v-494h-147v494h147zM560 717q44 0 44 -44v-54q0 -45 -44 -45h-63q-44 0 -44 45v54q0 44 44 44h63z" />
    <glyph glyph-name="fl" unicode="fl" horiz-adv-x="721" 
d="M264 721h44.5t68.5 -1t81 -3t81.5 -5.5t69.5 -9.5v-549q0 -26 13.5 -38.5t40.5 -12.5h37l16 -94q-11 -6 -32.5 -10.5t-44.5 -7t-38 -2.5q-65 0 -102 34t-37 94v501h-145q-37 1 -51.5 -15.5t-14.5 -58.5v-543h-149v562q0 48 15.5 84t51 55.5t95.5 19.5zM376 494v-97h-358
v92l87 5h271z" />
    <glyph glyph-name=".notdef" 
d="M121 690v-690h-41v690h41zM510 690v-690h-41v690h41zM80 690h430v-41h-430v41zM80 41h430v-41h-430v41z" />
    <glyph glyph-name="space" unicode=" " horiz-adv-x="216" 
 />
    <glyph glyph-name="zero" unicode="0" horiz-adv-x="631" 
d="M315 704q99 0 157.5 -35t84 -113.5t25.5 -210.5t-25.5 -210.5t-84 -113.5t-157.5 -35t-157.5 35t-83.5 113.5t-25 210.5t25 210.5t83.5 113.5t157.5 35zM314 584q-33 0 -55 -11t-35 -37t-18.5 -72.5t-5.5 -118.5q0 -71 5.5 -118t18.5 -73t35 -37t55 -11q34 0 56.5 11
t36 37t19 73t5.5 118q0 72 -5.5 118.5t-19 72.5t-36 37t-56.5 11z" />
    <glyph glyph-name="one" unicode="1" horiz-adv-x="432" 
d="M340 690v-690h-152v489q0 19 1 37.5t5 37.5l-164 -42l-18 99l176 69h152z" />
    <glyph glyph-name="two" unicode="2" horiz-adv-x="581" 
d="M284 702q72 0 124 -12.5t81 -47.5t29 -101q0 -39 -9.5 -72.5t-34 -69.5t-70.5 -85l-181 -187q25 4 50.5 5.5t51.5 1.5h213v-134h-494v82q0 18 5 33.5t16 28.5l172 184q61 63 93.5 112t31.5 85q-1 22 -11.5 32t-31.5 13t-52 3q-35 0 -65.5 -0.5t-65 -2.5t-80.5 -6l-6 114
q49 11 88.5 16t75 6.5t70.5 1.5z" />
    <glyph glyph-name="three" unicode="3" horiz-adv-x="567" 
d="M272 704q82 0 131.5 -14.5t72 -49.5t22.5 -97q0 -48 -9 -84.5t-32 -59.5t-66 -30v-4q71 -11 98 -54t28 -119q1 -72 -22 -117.5t-75.5 -67t-140.5 -21.5q-60 0 -121 5.5t-118 13.5l6 112q40 -3 71.5 -4.5t60.5 -2.5t59 -1q49 0 77 8.5t40 31t12 63.5q0 32 -8.5 53.5
t-31.5 33t-67 10.5l-131 -1v101h131q33 0 52 7.5t28.5 20t12.5 29.5t3 37q-1 33 -10.5 50t-33 23t-65.5 6q-52 0 -100.5 -1.5t-85.5 -2.5l-7 107q56 10 110.5 14.5t108.5 4.5z" />
    <glyph glyph-name="four" unicode="4" horiz-adv-x="637" 
d="M356 690l-166 -397q-7 -16 0 -24.5t21 -8.5h396v-91l-85 -15h-421q-28 0 -48 15.5t-26.5 40t4.5 49.5l181 431h144zM523 556v-556h-141v446l25 110h116z" />
    <glyph glyph-name="five" unicode="5" horiz-adv-x="552" 
d="M490 690l-5 -115h-287l-8 -130l101 -11q63 -6 105.5 -24t67.5 -47t36 -67t11 -85q0 -45 -11 -85.5t-37.5 -71.5t-73.5 -48.5t-120 -17.5q-48 0 -108.5 5.5t-122.5 15.5l14 117q49 -5 95.5 -8.5t82.5 -3.5q53 0 80 11t37.5 33.5t12.5 56.5q1 33 -7.5 52.5t-28 30.5
t-51 15.5t-77.5 7.5l-86 10q-21 3 -34 17.5t-12 35.5l17 306h409z" />
    <glyph glyph-name="six" unicode="6" 
d="M341 702q25 0 70 -2.5t94 -16.5l-8 -96q-26 1 -48 1.5t-47 0.5h-61q-44 0 -72.5 -9.5t-44 -36.5t-21 -79.5t-5.5 -137.5q0 -69 3 -113t13.5 -68.5t32.5 -34t61 -9.5q45 0 66 14t27 43t6 74q0 44 -8 69t-29.5 35t-60.5 10q-28 0 -51.5 -7t-50 -23.5t-65.5 -46.5l-4 58
q33 50 63 77.5t66 38t86 10.5q77 0 119.5 -22t60 -69.5t17.5 -126.5q0 -61 -9.5 -107.5t-36 -77.5t-74 -46.5t-124.5 -15.5q-75 0 -125 16t-78.5 54.5t-40.5 106t-12 169.5q0 120 18 193t54 111t91 51t128 13z" />
    <glyph glyph-name="seven" unicode="7" horiz-adv-x="528" 
d="M443 690q25 0 41.5 -11t22.5 -29t-2 -41l-211 -609h-150l176 501q6 17 13 33t17 32h-317l-7 124h417z" />
    <glyph glyph-name="eight" unicode="8" horiz-adv-x="623" 
d="M312 702q75 0 122 -11t73.5 -33t36.5 -57t10 -83q0 -40 -10.5 -74.5t-33 -57t-59.5 -26.5v-4q48 -4 74 -29.5t36 -65.5t10 -89q0 -66 -21 -107t-77 -59t-161 -18q-103 0 -159 18t-78 59t-22 107q0 49 10 89t36 65.5t74 29.5v4q-37 4 -60 26.5t-33.5 57t-10.5 74.5
q0 48 10.5 83t37 57t74 33t121.5 11zM314 307q-36 0 -59 -4.5t-36 -16t-18 -32t-5 -53.5q0 -38 9.5 -60t35 -30.5t72.5 -8.5q46 0 70.5 8.5t33.5 30.5t9 60q0 33 -5 53.5t-17 32t-34 16t-56 4.5zM313 596q-43 0 -65.5 -8t-31.5 -29t-9 -60q0 -37 9 -56.5t32.5 -26.5t66.5 -7
t65 7.5t29.5 27t7.5 55.5q0 39 -8 60t-30.5 29t-65.5 8z" />
    <glyph glyph-name="nine" unicode="9" 
d="M286 702q80 0 129.5 -16.5t76 -55.5t36.5 -106.5t10 -171.5q0 -117 -16 -189t-50 -110t-89.5 -51.5t-134.5 -13.5q-27 0 -74.5 2.5t-102.5 16.5l8 97q29 -1 51.5 -1.5t49.5 -0.5h68q45 0 73 11t43.5 39.5t21 79t5.5 128.5q0 70 -2.5 115t-12.5 70t-31.5 34.5t-59.5 9.5
q-44 0 -65.5 -14t-28 -43.5t-6.5 -74.5q0 -40 8 -65.5t29 -37t59 -11.5q28 0 50.5 7.5t49 24.5t65.5 46l4 -58q-33 -50 -63.5 -77.5t-65.5 -38t-85 -10.5q-75 0 -117.5 27.5t-60 76.5t-17.5 113q0 86 21.5 140.5t75 81t148.5 26.5z" />
    <glyph glyph-name="A" unicode="A" horiz-adv-x="653" 
d="M399 690q19 0 33.5 -11t19.5 -29l200 -650h-156l-141 507q-4 17 -8 34.5t-7 33.5h-27q-3 -16 -6.5 -33.5t-8.5 -34.5l-141 -507h-157l201 650q5 18 19.5 29t33.5 11h145zM505 297v-115h-358v115h358z" />
    <glyph glyph-name="B" unicode="B" horiz-adv-x="640" 
d="M331 698q90 0 143.5 -15.5t77.5 -54.5t24 -110q0 -74 -28.5 -112.5t-93.5 -44.5v-6q80 -7 112 -53.5t32 -129.5q0 -71 -24.5 -110t-76 -54.5t-134.5 -15.5q-67 0 -116.5 0.5t-91.5 2.5t-86 5l15 106q24 -1 92.5 -2t159.5 -1q42 0 66 8t33.5 29.5t9.5 61.5q0 43 -10 65.5
t-34.5 31.5t-67.5 10h-250v97h248q37 1 58.5 8t30.5 27t9 56q0 37 -9.5 56.5t-32.5 26.5t-64 7h-99t-77 -0.5t-63 -2.5l-15 106q40 4 77.5 5.5t81.5 2t103 0.5zM219 690v-690h-150v690h150z" />
    <glyph glyph-name="C" unicode="C" horiz-adv-x="588" 
d="M339 702q49 0 83.5 -2.5t63.5 -7.5t60 -14l-12 -112q-33 2 -60.5 3t-59 1.5t-75.5 0.5q-51 0 -79.5 -20t-40.5 -69.5t-12 -136.5t12 -136.5t40.5 -69.5t79.5 -20q69 0 116 2t93 7l13 -112q-48 -15 -98 -21.5t-124 -6.5q-107 0 -171.5 34.5t-93 112.5t-28.5 210t28.5 210
t93 112.5t171.5 34.5z" />
    <glyph glyph-name="D" unicode="D" horiz-adv-x="683" 
d="M340 700q82 0 138.5 -17.5t91 -57.5t50.5 -108.5t16 -171.5t-16 -171.5t-50.5 -108.5t-91 -57.5t-138.5 -17.5q-79 0 -145 3t-126 7l64 113q38 -2 90.5 -3.5t116.5 -1.5q51 0 80.5 20.5t42 72.5t12.5 144t-12.5 144t-42 73t-80.5 21q-61 0 -109 -0.5t-94 -0.5l-68 108
q60 4 125.5 7t145.5 3zM222 690v-690h-153v690h153z" />
    <glyph glyph-name="E" unicode="E" horiz-adv-x="578" 
d="M211 693q56 0 113 -0.5t112 -2.5t103 -7l-7 -111h-265q-25 0 -37.5 -13t-12.5 -38v-352q0 -25 12.5 -38t37.5 -13h265l7 -111q-48 -4 -103 -6.5t-112 -3t-113 -0.5q-66 0 -106.5 38.5t-40.5 100.5v418q0 63 40.5 101t106.5 38zM82 413h413v-108h-413v108z" />
    <glyph glyph-name="F" unicode="F" horiz-adv-x="557" 
d="M216 693q53 0 108.5 -0.5t109 -3t99.5 -7.5l-8 -110h-250q-27 0 -41 -13t-14 -38v-521h-153v552q0 64 41 102.5t108 38.5zM85 401h403v-108h-403v108z" />
    <glyph glyph-name="G" unicode="G" horiz-adv-x="648" 
d="M354 704q45 0 82 -3t70.5 -8t65.5 -15l-12 -111q-35 2 -68 3t-66 1.5t-69 0.5q-43 0 -71.5 -9t-45.5 -33.5t-24.5 -70t-7.5 -116.5q0 -86 11 -135t37 -69.5t70 -20.5q30 0 55 6t46 16.5t39 20.5l16 -72q-15 -21 -44.5 -45t-71.5 -41t-96 -17q-78 0 -127.5 37t-72.5 116.5
t-23 206.5q0 135 29.5 213t97 111.5t180.5 33.5zM596 398v-398h-113l-21 105l-14 28v265h148z" />
    <glyph glyph-name="H" unicode="H" horiz-adv-x="691" 
d="M223 690v-690h-153v690h153zM479 425v-115h-264v115h264zM621 690v-690h-153v690h153z" />
    <glyph glyph-name="I" unicode="I" horiz-adv-x="292" 
d="M222 690v-690h-152v690h152z" />
    <glyph glyph-name="J" unicode="J" horiz-adv-x="372" 
d="M305 690v-554q0 -72 -41.5 -110t-116.5 -38q-18 0 -42.5 2.5t-47.5 7t-37 10.5l16 99h49q68 0 68 56v527h152z" />
    <glyph glyph-name="K" unicode="K" horiz-adv-x="634" 
d="M617 690l-180 -278q-11 -18 -24 -31t-26 -22v-3q14 -8 30 -24t26 -34l186 -298h-171l-213 361l207 329h165zM222 690v-195q0 -34 -5 -67.5t-16 -65.5q8 -31 14.5 -63.5t6.5 -60.5v-238h-152v690h152zM300 412v-106h-124v106h124z" />
    <glyph glyph-name="L" unicode="L" horiz-adv-x="536" 
d="M220 690v-516q0 -25 14 -38t40 -13h241l7 -115q-71 -8 -148.5 -9.5t-154.5 -1.5q-75 0 -113.5 40.5t-38.5 103.5v549h153z" />
    <glyph glyph-name="M" unicode="M" horiz-adv-x="915" 
d="M776 690q54 0 56 -56l26 -634h-141l-23 572h-18l-111 -430q-9 -48 -60 -48h-96q-51 0 -62 48l-111 430h-17l-21 -572h-142l26 634q2 56 57 56h143q49 0 60 -49l89 -347q6 -24 10 -48.5t9 -49.5h13q5 25 9.5 49.5t9.5 49.5l88 346q10 49 60 49h146z" />
    <glyph glyph-name="N" unicode="N" horiz-adv-x="722" 
d="M653 690v-635q0 -55 -55 -55h-84q-25 0 -38 11.5t-24 34.5l-191 362q-12 23 -23.5 51t-19.5 54h-11q3 -27 5 -54.5t2 -54.5v-404h-145v635q0 55 56 55h83q24 0 36.5 -11.5t24.5 -34.5l185 -351q12 -23 25 -51t25 -58h12q-3 30 -4.5 58.5t-1.5 56.5l-1 391h144z" />
    <glyph glyph-name="O" unicode="O" horiz-adv-x="688" 
d="M344 704q82 0 139 -17.5t91.5 -58t50.5 -110t16 -173.5t-16 -173.5t-50.5 -110t-91.5 -58t-139 -17.5t-139 17.5t-92 58t-51 110t-16 173.5t16 173.5t51 110t92 58t139 17.5zM344 583q-53 0 -82.5 -21t-42 -72.5t-12.5 -144.5q0 -92 12.5 -144t42 -73t82.5 -21
q52 0 81.5 21t42 73t12.5 144q0 93 -12.5 144.5t-42 72.5t-81.5 21z" />
    <glyph glyph-name="P" unicode="P" horiz-adv-x="618" 
d="M334 700q97 0 152 -20t78.5 -69t23.5 -137t-22.5 -137t-73.5 -68.5t-138 -19.5q-46 0 -90 4t-82 10t-65 12.5t-37 12.5l3 76h122.5h125.5q40 1 62.5 10t32 33t9.5 67q0 44 -9.5 68t-32 33.5t-62.5 9.5q-92 0 -158 -1t-89 -4l-15 110q42 5 79 7t80.5 2.5t105.5 0.5z
M222 690v-690h-153v690h153z" />
    <glyph glyph-name="Q" unicode="Q" horiz-adv-x="688" 
d="M344 704q82 0 139 -17.5t92 -58t50.5 -110t15.5 -173.5t-15.5 -173.5t-50.5 -110t-92 -58t-139 -17.5t-139 17.5t-92 58t-50.5 110t-15.5 173.5t15.5 173.5t50.5 110t92 58t139 17.5zM294 -34q67 -27 140 -43.5t157 -28.5l-40 -132q-90 22 -163 55t-130 70zM344 583
q-52 0 -82 -21t-42 -72.5t-12 -144.5q0 -92 12 -144t42 -73t82 -21t81.5 21t42 73t12.5 144q0 93 -12.5 144.5t-42 72.5t-81.5 21z" />
    <glyph glyph-name="R" unicode="R" horiz-adv-x="647" 
d="M335 700q91 0 147.5 -18.5t83 -63t26.5 -123.5q0 -48 -12.5 -84.5t-41.5 -58.5t-79 -28v-5q18 -3 37.5 -14t36.5 -32.5t25 -57.5l60 -215h-161l-53 210q-9 34 -26.5 47t-48.5 13q-68 0 -114.5 0.5t-78 1.5t-56.5 2l3 111h249q40 0 63.5 8.5t33 30.5t9.5 61
q0 40 -9.5 61.5t-33 30t-63.5 8.5q-94 0 -159 -1t-89 -3l-15 109q42 5 79 7t81 2.5t106 0.5zM220 690v-690h-151v690h151z" />
    <glyph glyph-name="S" unicode="S" horiz-adv-x="586" 
d="M297 703q51 0 111 -5.5t117 -22.5l-10 -101q-44 1 -103 2t-116 1q-28 0 -47.5 -1.5t-31.5 -8t-17 -19.5t-5 -36q0 -35 16.5 -51t56.5 -29l133 -43q83 -28 115 -76t32 -126q0 -59 -14 -98t-44 -61t-79 -31.5t-120 -9.5q-34 0 -97 4.5t-144 22.5l10 108q59 -1 102.5 -2.5
t74.5 -2t54 -0.5q40 0 62.5 5t31.5 20t9 43q0 24 -6.5 38.5t-21 23t-39.5 15.5l-140 48q-79 29 -112 76t-33 124q0 60 14.5 97.5t45 58.5t79 29t116.5 8z" />
    <glyph glyph-name="T" unicode="T" horiz-adv-x="602" 
d="M377 690v-690h-153v690h153zM585 690v-120h-568v120h568z" />
    <glyph glyph-name="U" unicode="U" horiz-adv-x="686" 
d="M621 690v-415q0 -105 -26 -168.5t-85.5 -92t-158.5 -28.5q-105 0 -168 28.5t-91 92t-28 168.5v415h153v-415q0 -65 11.5 -101.5t39.5 -51.5t75 -15t74.5 15t39 51.5t11.5 101.5v415h153z" />
    <glyph glyph-name="V" unicode="V" horiz-adv-x="640" 
d="M632 690l-188 -648q-5 -18 -19.5 -30t-34.5 -12h-140q-21 0 -35.5 12t-18.5 30l-189 648h158l126 -498q4 -19 8.5 -38.5t7.5 -38.5h26q3 19 7.5 39t9.5 39l125 497h157z" />
    <glyph glyph-name="W" unicode="W" horiz-adv-x="976" 
d="M950 690l-113 -648q-3 -18 -18 -30t-36 -12h-143q-20 0 -35.5 12t-18.5 31l-77 449q-3 23 -6 45.5t-6 44.5h-19q-2 -22 -5 -45t-6 -45l-77 -449q-3 -19 -18.5 -31t-35.5 -12h-144q-20 0 -35.5 12t-18.5 30l-113 648h154l72 -480q3 -22 5 -47t4 -53h19q4 24 8.5 50.5
t7.5 49.5l76 433q3 21 18 34t36 13h126q21 0 35.5 -13t17.5 -34l77 -434q4 -24 8 -49.5t7 -49.5h20q2 24 4.5 50t4.5 48l71 482h154z" />
    <glyph glyph-name="X" unicode="X" horiz-adv-x="644" 
d="M621 690l-170 -336l183 -354h-156l-172 354l160 336h155zM178 690l160 -336l-172 -354h-156l182 354l-169 336h155zM396 403v-94h-157v94h157z" />
    <glyph glyph-name="Y" unicode="Y" horiz-adv-x="612" 
d="M611 690l-233 -471h-144l-234 471h159l116 -254q9 -20 15 -43t11 -44h10q6 21 12 44t14 43l115 254h159zM382 312v-312h-153v312h153z" />
    <glyph glyph-name="Z" unicode="Z" horiz-adv-x="586" 
d="M372 577l168 -1l-333 -463l-169 1zM548 114v-114h-510v114h510zM540 690v-114h-494v114h494z" />
    <glyph glyph-name="a" unicode="a" horiz-adv-x="570" 
d="M321 507q62 0 105 -16.5t65.5 -56t22.5 -108.5v-326h-118l-21 107l-10 15v205q0 35 -16.5 51t-62.5 16q-38 0 -95 -2.5t-117 -6.5l-14 98q36 7 83 12t94 8.5t84 3.5zM453 304l-1 -83l-220 -1q-27 0 -38.5 -13t-11.5 -35v-24q0 -25 14 -38.5t45 -13.5q26 0 56.5 11
t60.5 31t53 47v-64q-9 -15 -26.5 -37.5t-44.5 -44t-63 -36.5t-82 -15q-45 0 -81 16t-57 47t-21 77v51q0 59 40 92t110 33h267z" />
    <glyph glyph-name="b" unicode="b" horiz-adv-x="594" 
d="M371 507q98 0 140.5 -59.5t42.5 -196.5q0 -57 -10.5 -105t-37 -83.5t-73.5 -55t-122 -19.5q-26 0 -60 2.5t-69.5 7t-67.5 12t-55 17.5l118 85q19 -6 42 -10.5t47 -6t42 -0.5q34 1 54.5 14.5t29.5 47t9 93.5q0 55 -7.5 85.5t-27 43t-54.5 12.5q-33 0 -60 -14t-60 -37
l-11 70q26 28 56 50t64 34.5t70 12.5zM207 700l1 -160q0 -34 -3.5 -65.5t-12.5 -61.5l14 -13l1 -380l-148 7v673h148z" />
    <glyph glyph-name="c" unicode="c" horiz-adv-x="509" 
d="M290 507q27 0 59 -2.5t64.5 -9t59.5 -18.5l-16 -93q-40 1 -76.5 2t-65.5 1q-45 0 -71 -12t-37.5 -42.5t-11.5 -84.5q0 -55 11.5 -86t37.5 -43t71 -12q16 0 41 1t54 2.5t57 5.5l14 -94q-40 -18 -91 -26t-101 -8q-92 0 -146.5 25.5t-78.5 82.5t-24 152t24.5 152t79.5 82
t146 25z" />
    <glyph glyph-name="d" unicode="d" horiz-adv-x="597" 
d="M229 507q52 0 100.5 -15t85.5 -49l-10 -68q-34 10 -61 18t-63 8q-31 0 -50 -11t-28 -43t-9 -95q0 -59 8.5 -89.5t27 -42t47.5 -11.5q26 0 45 5.5t38 17t43 28.5l11 -73q-30 -42 -78 -70.5t-118 -28.5q-95 0 -135.5 68t-40.5 195q0 99 20.5 154.5t62.5 78.5t104 23z
M536 700v-700h-117l-15 91l-16 11v324l6 13q-3 31 -4.5 62.5t-1.5 64.5v134h148z" />
    <glyph glyph-name="e" unicode="e" horiz-adv-x="564" 
d="M294 507q125 0 179.5 -42.5t54.5 -126.5q1 -68 -34 -101.5t-121 -33.5h-276v83h235q34 0 43.5 14.5t9.5 40.5q-1 35 -20.5 48.5t-65.5 13.5q-41 0 -64 -11t-32 -42t-9 -90q0 -62 11 -95.5t37.5 -46.5t73.5 -13q34 0 84.5 2.5t101.5 8.5l14 -91q-29 -14 -66 -22t-76 -11.5
t-75 -3.5q-94 0 -151.5 27.5t-83 84.5t-25.5 146q0 97 26 154t82 82t147 25z" />
    <glyph glyph-name="f" unicode="f" horiz-adv-x="404" 
d="M267 721q18 0 47.5 -1t60 -3.5t52.5 -6.5l-13 -95h-94q-38 0 -53 -15t-15 -52v-548h-148v567q0 47 15.5 81t51.5 53.5t96 19.5zM390 494v-97h-372v92l89 5h283z" />
    <glyph glyph-name="g" unicode="g" horiz-adv-x="581" 
d="M280 507q86 0 136.5 -16t73 -50t22.5 -91q0 -55 -22 -89.5t-73.5 -50.5t-137.5 -16t-137.5 16t-74 50t-22.5 90t22.5 90.5t74.5 50.5t138 16zM279 416q-55 0 -76 -14.5t-21 -51.5t21 -52t76 -15t75 15t20 52t-20 51.5t-75 14.5zM569 494l-8 -63l-132 -17l-36 80h176z
M130 224l74 -13q-14 -8 -19.5 -25t2.5 -32t35 -18l182 -21q78 -8 110 -43.5t32 -103.5q0 -64 -26 -98.5t-83 -47.5t-152 -13q-78 0 -128.5 7.5t-80 24.5t-41 44.5t-11.5 68.5q0 31 11 53.5t37.5 40.5t74.5 33l73 26l53 -21l-40 -26q-25 -18 -40.5 -30.5t-22 -24.5t-6.5 -32
q0 -23 10 -35.5t36.5 -17t72.5 -4.5q48 0 75 4.5t37.5 16.5t10.5 34q0 19 -7.5 28t-25 13.5t-48.5 8.5l-155 17q-39 4 -61 21t-30.5 41.5t-4.5 49.5t18.5 45t37.5 29z" />
    <glyph glyph-name="h" unicode="h" horiz-adv-x="601" 
d="M404 507q140 0 140 -137v-370h-149v324q0 33 -11.5 45.5t-40.5 12.5q-32 0 -66 -12t-84 -39l-13 77q55 48 112 73.5t112 25.5zM208 700l1 -171q0 -39 -4.5 -74t-10.5 -59l14 -13v-383h-148v700h148z" />
    <glyph glyph-name="i" unicode="i" horiz-adv-x="276" 
d="M211 494v-494h-147v494h147zM170 712q44 0 44 -45v-53q0 -45 -44 -45h-64q-44 0 -44 45v53q0 45 44 45h64z" />
    <glyph glyph-name="j" unicode="j" horiz-adv-x="277" 
d="M213 494v-471q0 -45 -15.5 -87.5t-44 -76.5t-68.5 -55l-82 64q34 38 48 74t14 81v471h148zM170 717q43 0 43 -44v-54q0 -45 -43 -45h-65q-43 0 -43 45v54q0 44 43 44h65z" />
    <glyph glyph-name="k" unicode="k" horiz-adv-x="559" 
d="M538 494l-129 -172q-9 -14 -23 -27t-23 -19v-4q9 -5 23 -21t23 -32l146 -219h-165l-169 278l152 216h165zM208 700l1 -289q0 -35 -4 -68t-12 -65q7 -31 11 -63.5t4 -60.5v-154h-148v700h148zM277 320v-90h-115v90h115z" />
    <glyph glyph-name="l" unicode="l" horiz-adv-x="328" 
d="M209 700l-1 -542q0 -25 15 -37.5t44 -12.5h40l17 -100q-12 -6 -34 -10.5t-45 -7t-39 -2.5q-67 0 -106 35t-39 98v579h148z" />
    <glyph glyph-name="m" unicode="m" horiz-adv-x="881" 
d="M686 507q67 0 102 -35t35 -102v-370h-147v324q0 31 -12 44.5t-42 13.5q-18 0 -34 -5t-37 -16t-51 -30l-8 82q48 47 94.5 70.5t99.5 23.5zM178 494l15 -98l15 -13v-383h-148v494h118zM378 507q66 0 100.5 -34.5t34.5 -102.5v-370h-142v324q0 32 -13.5 45t-41.5 13
q-17 0 -33.5 -4.5t-38 -15.5t-52.5 -31l-9 82q49 47 95 70.5t100 23.5z" />
    <glyph glyph-name="n" unicode="n" horiz-adv-x="601" 
d="M404 507q140 0 140 -137v-370h-148v324q0 33 -12 45.5t-41 12.5q-32 0 -66 -12.5t-84 -38.5l-7 83q53 45 108.5 69t109.5 24zM179 494l17 -98l12 -13v-383h-148v494h119z" />
    <glyph glyph-name="o" unicode="o" 
d="M295 507q93 0 149 -25.5t80.5 -82.5t24.5 -153q0 -94 -24.5 -151t-80.5 -82t-149 -25q-92 0 -148.5 25t-81.5 82t-25 151q0 96 25 153t81.5 82.5t148.5 25.5zM295 399q-38 0 -60 -13t-31 -46t-9 -94q0 -60 9 -93t31 -45.5t60 -12.5t60 12.5t31 45.5t9 93q0 61 -9 94
t-31 46t-60 13z" />
    <glyph glyph-name="p" unicode="p" horiz-adv-x="600" 
d="M385 506q93 0 133 -68t40 -195q0 -99 -20.5 -155t-62 -78.5t-103.5 -22.5q-53 0 -101 15t-85 50l10 66q33 -10 60.5 -17.5t62.5 -7.5q32 0 51 11t27.5 43.5t8.5 94.5q0 61 -8 93.5t-26 45t-47 12.5q-32 0 -59 -12.5t-61 -35.5l-19 68q20 27 51.5 48t69.5 33t78 12z
M180 494l14 -90l14 -15v-321l-5 -12q3 -30 4.5 -62.5t0.5 -64.5v-119h-148v684h120z" />
    <glyph glyph-name="q" unicode="q" horiz-adv-x="594" 
d="M285 507q25 0 58.5 -2.5t69 -7t67.5 -12t55 -16.5l-119 -87q-17 6 -40.5 10.5t-47 6.5t-41.5 1q-35 -1 -56 -14.5t-29.5 -47.5t-8.5 -96q0 -74 17 -103.5t67 -29.5q36 0 64.5 13t62.5 33l13 -64q-23 -26 -54 -49.5t-67.5 -38.5t-77.5 -15q-94 0 -135.5 64.5t-41.5 191.5
q0 60 10.5 109t37 83t74.5 52.5t122 18.5zM387 475l148 -6v-659h-148v148q-1 34 3 66t12 61l-15 13v377z" />
    <glyph glyph-name="r" unicode="r" horiz-adv-x="427" 
d="M176 494l18 -98l14 -13v-383h-148v494h116zM417 507l-14 -137h-41q-35 0 -73 -10t-96 -30l-10 83q52 46 105 70t103 24h26z" />
    <glyph glyph-name="s" unicode="s" horiz-adv-x="531" 
d="M248 507q36 0 78 -2.5t82 -6.5t71 -10l-10 -92q-48 1 -96.5 1.5t-94.5 0.5q-39 1 -60 -1t-29.5 -9.5t-8.5 -26.5q0 -22 15 -29.5t50 -16.5l129 -31q62 -16 92 -47.5t30 -94.5q0 -62 -23 -95t-73 -45.5t-129 -12.5q-31 0 -92 3t-134 15l10 92q18 -1 46 -1.5t61 -0.5h66
q51 0 78 2.5t37 11.5t10 27q0 22 -17 30t-54 17l-125 31q-47 13 -73 33t-36.5 49t-10.5 69q0 51 20.5 81.5t67 44.5t123.5 14z" />
    <glyph glyph-name="t" unicode="t" horiz-adv-x="410" 
d="M253 631v-473q0 -27 12.5 -38.5t41.5 -11.5h64l16 -100q-18 -6 -44 -10.5t-52 -7t-44 -2.5q-67 0 -104.5 36t-37.5 101l-1 506h149zM391 494v-97h-373v92l96 5h277z" />
    <glyph glyph-name="u" unicode="u" horiz-adv-x="593" 
d="M205 494v-325q0 -31 13.5 -44t43.5 -13q31 0 61.5 11.5t75.5 36.5l12 -81q-54 -47 -106 -70t-107 -23q-141 0 -141 138v370h148zM532 494v-494h-117l-17 97l-14 14v383h148z" />
    <glyph glyph-name="v" unicode="v" horiz-adv-x="566" 
d="M558 494l-163 -459q-6 -16 -18.5 -25.5t-29.5 -9.5h-129q-17 0 -29.5 9.5t-18.5 25.5l-163 459h157l91 -309q6 -22 11 -45t10 -44h13q6 22 11.5 44.5t11.5 44.5l89 309h157z" />
    <glyph glyph-name="w" unicode="w" horiz-adv-x="850" 
d="M834 494l-122 -455q-4 -18 -18 -28.5t-33 -10.5h-112q-20 0 -35 12.5t-18 32.5l-54 278q-3 21 -5 41.5t-6 41.5h-12q-3 -21 -6 -41.5t-6 -41.5l-54 -278q-3 -20 -18 -32.5t-35 -12.5h-111q-19 0 -33 10.5t-18 28.5l-122 455h149l68 -320q4 -20 7 -40.5t5 -40.5h13
q3 20 6.5 40.5t6.5 40.5l54 275q3 20 17 32.5t35 12.5h96q20 0 34.5 -12.5t17.5 -33.5l53 -274q3 -20 7 -40t7 -41h12q4 21 6.5 40.5t6.5 40.5l68 320h149z" />
    <glyph glyph-name="x" unicode="x" horiz-adv-x="567" 
d="M546 494l-143 -241l154 -253h-150l-146 253l135 241h150zM171 494l135 -241l-145 -253h-151l154 253l-143 241h150zM362 301v-92h-156v92h156z" />
    <glyph glyph-name="y" unicode="y" horiz-adv-x="566" 
d="M557 494l-177 -500q-12 -37 -33.5 -74.5t-54 -67.5t-78 -45.5t-107.5 -7.5l-11 84q61 16 95 43t53 71l31 69q9 22 17.5 53.5t14.5 54.5l92 320h158zM165 494l94 -320l8 -38t7 -38h27l-47 -98h-36q-17 0 -30 10t-18 26l-163 458h158z" />
    <glyph glyph-name="z" unicode="z" horiz-adv-x="526" 
d="M312 392l170 -1l-273 -290l-170 1zM487 102v-102h-448v102h448zM482 494v-103h-439v103h439z" />
    <glyph glyph-name="ampersand" unicode="&#x26;" horiz-adv-x="766" 
d="M341 702q32 0 75 -1.5t88 -10.5l-18 -103q-12 1 -29 1.5t-37 1t-41 0.5h-42q-42 0 -66.5 -6.5t-34.5 -26.5t-10 -60q0 -36 8.5 -56t29 -28t56.5 -8h393v-99h-401q-39 0 -61 -9t-30.5 -30t-8.5 -62q0 -38 7.5 -59t27.5 -29.5t56 -8.5q52 1 99 15t80 41l14 -83
q-29 -33 -62 -54t-74.5 -30t-99.5 -9q-74 0 -120.5 18t-67.5 59t-21 111q0 79 30 125.5t106 53.5v6q-63 6 -89 45t-26 114q0 61 15 97.5t47.5 54.5t83.5 24t123 6zM607 513v-356q0 -27 11 -39t37 -12h62l17 -98q-17 -6 -41.5 -10.5t-48 -7t-39.5 -2.5q-66 0 -101.5 34
t-35.5 94v244l14 153h125z" />
    <glyph glyph-name="f_t" horiz-adv-x="763" 
d="M267 721q16 0 42 -1t53.5 -3.5t46.5 -6.5l-14 -95h-75q-38 0 -53 -15t-15 -52v-548h-148v567q0 47 15.5 81t51.5 53.5t96 19.5zM605 631v-473q0 -27 13 -38.5t42 -11.5h63l17 -100q-19 -6 -45 -10.5t-51.5 -7t-43.5 -2.5q-67 0 -104.5 36t-37.5 101l-1 506h148zM743 494
v-97h-725v92l89 5h636z" />
    <glyph glyph-name="period" unicode="." horiz-adv-x="244" 
d="M141 152q29 0 40.5 -11.5t11.5 -40.5v-48q0 -29 -11.5 -40.5t-40.5 -11.5h-38q-29 0 -40.5 11.5t-11.5 40.5v48q0 29 11.5 40.5t40.5 11.5h38z" />
    <glyph glyph-name="comma" unicode="," horiz-adv-x="242" 
d="M137 152q29 0 40 -11.5t12 -40.5v-64q0 -39 -6.5 -71t-17.5 -59t-27 -53l-60 18q8 33 11 63.5t4 65.5q-42 0 -43 46l2 54q1 29 12.5 40.5t39.5 11.5h33z" />
    <glyph glyph-name="colon" unicode=":" horiz-adv-x="257" 
d="M142 451q29 0 40.5 -11.5t11.5 -40.5v-48q0 -29 -11.5 -40.5t-40.5 -11.5h-38q-29 0 -40.5 11.5t-11.5 40.5v48q0 29 11.5 40.5t40.5 11.5h38zM142 153q29 0 40.5 -11.5t11.5 -40.5v-48q0 -29 -11.5 -40.5t-40.5 -11.5h-38q-29 0 -40.5 11.5t-11.5 40.5v48
q0 29 11.5 40.5t40.5 11.5h38z" />
    <glyph glyph-name="semicolon" unicode=";" horiz-adv-x="257" 
d="M149 451q29 0 40.5 -11.5t11.5 -40.5v-48q0 -29 -11.5 -40.5t-40.5 -11.5h-38q-29 0 -40.5 11.5t-11.5 40.5v48q0 29 11.5 40.5t40.5 11.5h38zM145 152q29 0 40 -11.5t12 -40.5v-64q0 -39 -6.5 -71t-17.5 -59t-27 -53l-60 18q8 33 11 63.5t4 65.5q-42 0 -43 46l2 54
q1 29 12.5 40.5t39.5 11.5h33z" />
    <glyph glyph-name="ellipsis" unicode="&#x2026;" horiz-adv-x="885" 
d="M456 152q29 0 40.5 -11.5t11.5 -40.5v-48q0 -29 -11.5 -40.5t-40.5 -11.5h-38q-29 0 -40.5 11.5t-11.5 40.5v48q0 29 11.5 40.5t40.5 11.5h38zM777 152q29 0 40.5 -11.5t11.5 -40.5v-48q0 -29 -11.5 -40.5t-40.5 -11.5h-38q-29 0 -40.5 11.5t-11.5 40.5v48
q0 29 11.5 40.5t40.5 11.5h38zM135 152q29 0 40.5 -11.5t11.5 -40.5v-48q0 -29 -11.5 -40.5t-40.5 -11.5h-38q-29 0 -40.5 11.5t-11.5 40.5v48q0 29 11.5 40.5t40.5 11.5h38z" />
    <glyph glyph-name="exclamdown" unicode="&#xa1;" horiz-adv-x="284" 
d="M200 288l16 -207v-266h-147v266l15 207h116zM160 507q29 0 40.5 -11.5t11.5 -41.5v-47q0 -30 -11.5 -41t-40.5 -11h-34q-30 0 -41.5 11t-11.5 41v47q0 30 11.5 41.5t41.5 11.5h34z" />
    <glyph glyph-name="exclam" unicode="!" horiz-adv-x="301" 
d="M224 695v-270l-15 -206h-117l-15 206v270h147zM168 152q29 0 40.5 -11.5t11.5 -40.5v-48q0 -29 -11.5 -40.5t-40.5 -11.5h-34q-30 0 -41 11.5t-11 40.5v48q0 29 11 40.5t41 11.5h34z" />
    <glyph glyph-name="questiondown" unicode="&#xbf;" horiz-adv-x="516" 
d="M331 290q2 -53 -11.5 -92.5t-34.5 -69.5t-43 -54.5t-37.5 -46.5t-17.5 -46q-3 -34 19 -49.5t74 -15.5q51 0 82.5 0.5t58.5 1.5t61 3l5 -100q-29 -5 -52 -9.5t-48.5 -8t-59 -5t-82.5 -1.5q-108 0 -161.5 38t-53.5 117q0 44 17 76t43 58.5t52.5 54.5t46 63t23.5 86h119z
M289 509q30 0 41 -11.5t11 -40.5v-49q0 -29 -11 -40t-41 -11h-34q-30 0 -41 11t-11 40v49q0 29 11 40.5t41 11.5h34z" />
    <glyph glyph-name="question" unicode="?" horiz-adv-x="521" 
d="M274 712q109 0 162 -37.5t53 -117.5q0 -44 -17.5 -76t-43 -58.5t-52 -54t-46 -63t-23.5 -86.5h-119q-2 53 11 92.5t34.5 69.5t43.5 54.5t37.5 46.5t17.5 45q3 35 -19 50.5t-74 15.5q-50 0 -82.5 -0.5t-59 -2t-60.5 -2.5l-5 99q28 6 51.5 10t49 7.5t59 5.5t82.5 2z
M265 152q29 0 40 -11.5t11 -40.5v-48q0 -29 -11 -40.5t-40 -11.5h-36q-29 0 -40 11.5t-11 40.5v48q0 29 11 40.5t40 11.5h36z" />
    <glyph glyph-name="parenleft" unicode="(" horiz-adv-x="366" 
d="M330 790l17 -65q-89 -40 -126.5 -145.5t-37.5 -266.5q0 -105 16.5 -188t52.5 -139.5t95 -85.5l-17 -65q-151 48 -221 163.5t-70 313.5q0 199 70 315t221 163z" />
    <glyph glyph-name="parenright" unicode=")" horiz-adv-x="366" 
d="M36 790q151 -47 221 -163t70 -315q0 -198 -70 -313.5t-221 -163.5l-17 65q59 29 95 85.5t52.5 139.5t16.5 188q0 161 -37.5 266.5t-126.5 145.5z" />
    <glyph glyph-name="bracketleft" unicode="[" horiz-adv-x="346" 
d="M314 768v-92h-81q-18 0 -18 -19v-711q0 -19 18 -19h81v-92h-160q-35 0 -56.5 17t-21.5 61v777q0 35 21.5 56.5t56.5 21.5h160z" />
    <glyph glyph-name="bracketright" unicode="]" horiz-adv-x="346" 
d="M192 768q34 0 56 -21.5t22 -56.5v-777q0 -35 -22 -56.5t-56 -21.5h-160v92h81q18 0 18 19v711q0 19 -18 19h-81v92h160z" />
    <glyph glyph-name="braceleft" unicode="{" horiz-adv-x="339" 
d="M303 768v-91q-44 0 -60 -12t-16 -50v-151q1 -42 -7.5 -69.5t-31 -43.5t-64.5 -23q42 -12 65 -29.5t32.5 -42.5t9.5 -60v-210q0 -37 16 -48.5t60 -11.5v-91q-77 -10 -125 5.5t-70.5 50.5t-22.5 84v238q0 24 -5.5 35.5t-17.5 17.5t-32 14v96q21 7 32 12t15 17.5t4 41.5v181
q0 50 22.5 84.5t70.5 50t125 5.5z" />
    <glyph glyph-name="braceright" unicode="}" horiz-adv-x="340" 
d="M36 768q78 10 126 -5.5t70 -50t22 -84.5v-181q0 -29 4 -41.5t15.5 -17.5t32.5 -12v-96q-20 -8 -32.5 -14t-18 -17.5t-5.5 -35.5v-238q0 -49 -22 -84t-70 -50.5t-126 -5.5v91q45 0 61 11.5t16 48.5v210q1 35 10 60t32 42.5t64 29.5q-41 7 -63.5 23t-31 43.5t-7.5 69.5v151
q0 38 -16 50t-61 12v91z" />
    <glyph glyph-name="hyphen" unicode="-" horiz-adv-x="414" 
d="M356 302v-94h-298v94h298z" />
    <glyph glyph-name="underscore" unicode="_" horiz-adv-x="445" 
d="M445 0v-94h-445v94h445z" />
    <glyph glyph-name="endash" unicode="&#x2013;" horiz-adv-x="560" 
d="M502 302v-94h-444v94h444z" />
    <glyph glyph-name="emdash" unicode="&#x2014;" horiz-adv-x="857" 
d="M799 302v-94h-741v94h741z" />
    <glyph glyph-name="quoteleft" unicode="&#x2018;" horiz-adv-x="219" 
d="M87.2793 443.094q-28.7295 0 -39.626 10.7363q-10.8975 10.7363 -11.8887 37.8105v59.75q0 36.4102 6.43945 66.2852t17.3369 55.082t26.748 49.4805l59.4395 -16.8047q-7.92578 -30.8086 -10.8975 -59.2832t-3.96289 -61.1504q41.6084 0 42.5986 -42.9453
l-1.98145 -50.4141q-0.990234 -27.0742 -12.3828 -37.8105t-39.1318 -10.7363h-32.6914z" />
    <glyph glyph-name="quoteright" unicode="&#x2019;" horiz-adv-x="216" 
d="M131.721 713.906q28.7295 0 39.626 -10.7363q10.8975 -10.7363 11.8887 -37.8105v-59.75q0 -36.4102 -6.43945 -66.2852t-17.3369 -55.082t-26.748 -49.4805l-59.4395 16.8047q7.92578 30.8086 10.8975 59.2832t3.96289 61.1504q-41.6084 0 -42.5986 42.9453
l1.98145 50.4141q0.990234 27.0742 12.3828 37.8105t39.1318 10.7363h32.6914z" />
    <glyph glyph-name="quotedblleft" unicode="&#x201c;" horiz-adv-x="395" 
d="M87.2793 443.094q-28.7295 0 -39.626 10.7363q-10.8975 10.7363 -11.8887 37.8105v59.75q0 36.4102 6.43945 66.2852t17.3369 55.082t26.748 49.4805l59.4395 -16.8047q-7.92578 -30.8086 -10.8975 -59.2832t-3.96289 -61.1504q41.6084 0 42.5986 -42.9453
l-1.98145 -50.4141q-0.990234 -27.0742 -12.3828 -37.8105t-39.1318 -10.7363h-32.6914zM263.279 443.094q-28.7295 0 -39.626 10.7363q-10.8975 10.7363 -11.8887 37.8105v59.75q0 36.4102 6.43945 66.2852t17.3369 55.082t26.748 49.4805l59.4395 -16.8047
q-7.92578 -30.8086 -10.8975 -59.2832t-3.96289 -61.1504q41.6084 0 42.5986 -42.9453l-1.98145 -50.4141q-0.990234 -27.0742 -12.3828 -37.8105t-39.1318 -10.7363h-32.6914z" />
    <glyph glyph-name="quotedblright" unicode="&#x201d;" horiz-adv-x="392" 
d="M307.721 713.906q28.7295 0 39.626 -10.7363q10.8975 -10.7363 11.8887 -37.8105v-59.75q0 -36.4102 -6.43945 -66.2852t-17.3369 -55.082t-26.748 -49.4805l-59.4395 16.8047q7.92578 30.8086 10.8975 59.2832t3.96289 61.1504q-41.6084 0 -42.5986 42.9453
l1.98145 50.4141q0.990234 27.0742 12.3828 37.8105t39.1318 10.7363h32.6914zM131.721 713.906q28.7295 0 39.626 -10.7363q10.8975 -10.7363 11.8887 -37.8105v-59.75q0 -36.4102 -6.43945 -66.2852t-17.3369 -55.082t-26.748 -49.4805l-59.4395 16.8047
q7.92578 30.8086 10.8975 59.2832t3.96289 61.1504q-41.6084 0 -42.5986 42.9453l1.98145 50.4141q0.990234 27.0742 12.3828 37.8105t39.1318 10.7363h32.6914z" />
    <glyph glyph-name="quotesinglbase" unicode="&#x201a;" horiz-adv-x="230" 
d="M140.502 141.906q29.1055 0 40.1465 -10.7363q11.04 -10.7363 12.0439 -37.8105v-59.75q0 -36.4102 -6.52441 -66.2852q-6.52344 -29.875 -17.5635 -55.082t-27.0986 -49.4805l-60.2207 16.8047q8.0293 30.8086 11.041 59.2832q3.01074 28.4746 4.01465 61.1504
q-42.1543 0 -43.1572 42.9453l2.00684 50.4141q1.00391 27.0742 12.5459 37.8105t39.6445 10.7363h33.1211z" />
    <glyph glyph-name="quotedblbase" unicode="&#x201e;" horiz-adv-x="405" 
d="M314.721 134.906q28.7295 0 39.626 -10.7363q10.8975 -10.7363 11.8887 -37.8105v-59.75q0 -36.4102 -6.43945 -66.2852t-17.3369 -55.082t-26.748 -49.4805l-59.4395 16.8047q7.92578 30.8086 10.8975 59.2832t3.96289 61.1504q-41.6084 0 -42.5986 42.9453
l1.98145 50.4141q0.990234 27.0742 12.3828 37.8105t39.1318 10.7363h32.6914zM138.721 134.906q28.7295 0 39.626 -10.7363q10.8975 -10.7363 11.8887 -37.8105v-59.75q0 -36.4102 -6.43945 -66.2852t-17.3369 -55.082t-26.748 -49.4805l-59.4395 16.8047
q7.92578 30.8086 10.8975 59.2832t3.96289 61.1504q-41.6084 0 -42.5986 42.9453l1.98145 50.4141q0.990234 27.0742 12.3828 37.8105t39.1318 10.7363h32.6914z" />
    <glyph glyph-name="guilsinglleft" unicode="&#x2039;" horiz-adv-x="301" 
d="M187 465l78 -50l-106 -164l107 -169l-78 -50l-160 203v32z" />
    <glyph glyph-name="guilsinglright" unicode="&#x203a;" horiz-adv-x="302" 
d="M113 465l160 -198v-32l-160 -203l-78 50l107 169l-106 164z" />
    <glyph glyph-name="brokenbar" unicode="&#xa6;" horiz-adv-x="263" 
d="M184 781v-400h-105v400h105zM184 231v-400h-105v400h105z" />
    <glyph glyph-name="slash" unicode="/" horiz-adv-x="553" 
d="M532 690l-393 -763h-118l393 763h118z" />
    <glyph glyph-name="backslash" unicode="\" horiz-adv-x="553" 
d="M139 690l393 -763h-118l-393 763h118z" />
    <glyph glyph-name="bar" unicode="|" horiz-adv-x="261" 
d="M183 781v-950h-105v950h105z" />
    <glyph glyph-name="asterisk" unicode="*" horiz-adv-x="453" 
d="M268 692l-12 -169l106 -129l-65 -48l-70 121l-70 -120l-67 48l108 128l-13 169h83zM64 612l116 -49l-1 -36l-18 -22l-123 29zM390 612l25 -79l-122 -28l-19 22l-1 36z" />
    <glyph glyph-name="dagger" unicode="&#x2020;" horiz-adv-x="524" 
d="M306 690q10 0 10 -10v-63q0 -32 -3 -58.5t-9 -58.5h-84q-6 32 -9.5 58.5t-3.5 58.5v63q0 10 10 10h89zM38 482q0 10 10 10h44q26 0 50.5 -2.5t52.5 -9.5v-84q-28 -7 -52.5 -9.5t-50.5 -2.5h-44q-10 0 -10 10v88zM329 480q28 7 52.5 9.5t49.5 2.5h45q10 0 10 -10v-88
q0 -10 -10 -10h-45q-25 0 -49.5 2.5t-52.5 9.5v84zM208 252q0 35 3.5 65t8.5 60h83q7 -30 9.5 -60t2.5 -65v-186l-11 -194h-85l-11 194v186z" />
    <glyph glyph-name="daggerdbl" unicode="&#x2021;" horiz-adv-x="524" 
d="M306 690q10 0 10 -10v-63q0 -32 -3 -58.5t-9 -58.5h-84q-6 32 -9.5 58.5t-3.5 58.5v63q0 10 10 10h89zM38 482q0 10 10 10h44q26 0 50.5 -2.5t52.5 -9.5v-84q-28 -7 -52.5 -9.5t-50.5 -2.5h-44q-10 0 -10 10v88zM329 480q28 7 52.5 9.5t49.5 2.5h45q10 0 10 -10v-88
q0 -10 -10 -10h-45q-25 0 -49.5 2.5t-52.5 9.5v84zM218 -127q-10 0 -10 10v53q0 32 3.5 58.5t8.5 58.5h85q6 -32 9 -58.5t3 -58.5v-53q0 -11 -10 -11zM486 71q0 -10 -10 -10h-44q-26 0 -50 3t-53 9v84q29 7 53 9.5t50 2.5h44q10 0 10 -10v-88zM49 169h44q26 0 50 -2.5
t53 -9.5l-1 -84q-28 -6 -52.5 -9t-50.5 -3h-44q-9 0 -9 10v88q0 10 10 10zM221 381h83q6 -21 8.5 -40t3.5 -41v-44q-1 -22 -3.5 -41.5t-8.5 -39.5h-83q-5 20 -8 40t-4 41v44q1 23 4 41.5t8 39.5z" />
    <glyph glyph-name="periodcentered" unicode="&#xb7;" horiz-adv-x="251" 
d="M144 334q29 0 40.5 -11.5t11.5 -40.5v-48q0 -29 -11.5 -40.5t-40.5 -11.5h-38q-29 0 -40.5 11.5t-11.5 40.5v48q0 29 11.5 40.5t40.5 11.5h38z" />
    <glyph glyph-name="bullet" unicode="&#x2022;" horiz-adv-x="372" 
d="M196 380q58 0 80.5 -22.5t22.5 -79.5v-15q0 -62 -22.5 -85t-80.5 -23h-14q-62 0 -85.5 23t-23.5 85v15q0 57 23.5 79.5t85.5 22.5h14z" />
    <glyph glyph-name="quotesingle" unicode="'" horiz-adv-x="212" 
d="M160 690l-9 -222h-90l-9 222h108z" />
    <glyph glyph-name="quotedbl" unicode="&#x22;" horiz-adv-x="373" 
d="M321 690l-9 -222h-89l-9 222h107zM160 690l-9 -222h-90l-9 222h108z" />
    <glyph glyph-name="Agrave" unicode="&#xc0;" horiz-adv-x="653" 
d="M399 690q19 0 33.5 -11t19.5 -29l200 -650h-156l-141 507q-4 17 -8 34.5t-7 33.5h-27q-3 -16 -6.5 -33.5t-8.5 -34.5l-141 -507h-157l201 650q5 18 19.5 29t33.5 11h145zM505 297v-115h-358v115h358zM203 941l203 -148l-43 -63l-224 112z" />
    <glyph glyph-name="Aacute" unicode="&#xc1;" horiz-adv-x="653" 
d="M399 690q19 0 33.5 -11t19.5 -29l200 -650h-156l-141 507q-4 17 -8 34.5t-7 33.5h-27q-3 -16 -6.5 -33.5t-8.5 -34.5l-141 -507h-157l201 650q5 18 19.5 29t33.5 11h145zM505 297v-115h-358v115h358zM443 935l64 -100l-223 -111l-44 63z" />
    <glyph glyph-name="Acircumflex" unicode="&#xc2;" horiz-adv-x="653" 
d="M399 690q19 0 33.5 -11t19.5 -29l200 -650h-156l-141 507q-4 17 -8 34.5t-7 33.5h-27q-3 -16 -6.5 -33.5t-8.5 -34.5l-141 -507h-157l201 650q5 18 19.5 29t33.5 11h145zM505 297v-115h-358v115h358zM382 910l134 -134l-39 -53l-144 95h-8l-147 -95l-39 57l136 130h107z
" />
    <glyph glyph-name="Atilde" unicode="&#xc3;" horiz-adv-x="653" 
d="M399 690q19 0 33.5 -11t19.5 -29l200 -650h-156l-141 507q-4 17 -8 34.5t-7 33.5h-27q-3 -16 -6.5 -33.5t-8.5 -34.5l-141 -507h-157l201 650q5 18 19.5 29t33.5 11h145zM505 297v-115h-358v115h358zM234 897q25 -2 45 -8.5t38.5 -14.5t37 -15.5t38.5 -10.5q26 -4 32.5 7
t6.5 37h64q11 -71 -14 -107.5t-68 -33.5q-34 3 -61.5 13.5t-51 22t-47.5 14.5q-25 3 -31.5 -8t-6.5 -38h-64q-7 50 3 82t32 47t47 13z" />
    <glyph glyph-name="Adieresis" unicode="&#xc4;" horiz-adv-x="653" 
d="M399 690q19 0 33.5 -11t19.5 -29l200 -650h-156l-141 507q-4 17 -8 34.5t-7 33.5h-27q-3 -16 -6.5 -33.5t-8.5 -34.5l-141 -507h-157l201 650q5 18 19.5 29t33.5 11h145zM505 297v-115h-358v115h358zM442 884q32 0 32 -32v-59q0 -32 -32 -32h-49q-31 0 -31 32v59
q0 32 31 32h49zM259 884q31 0 31 -32v-59q0 -32 -31 -32h-49q-31 0 -31 32v59q0 32 31 32h49z" />
    <glyph glyph-name="Aring" unicode="&#xc5;" horiz-adv-x="653" 
d="M399 690q19 0 33.5 -11t19.5 -29l200 -650h-156l-141 507q-4 17 -8 34.5t-7 33.5h-27q-3 -16 -6.5 -33.5t-8.5 -34.5l-141 -507h-157l201 650q5 18 19.5 29t33.5 11h145zM505 297v-115h-358v115h358zM328 944q32 0 59 -15.5t43 -41.5t16 -58t-16 -58.5t-43 -42t-59 -15.5
t-59.5 15.5t-43.5 41.5t-16 59q0 32 16 58t43.5 41.5t59.5 15.5zM327 881q-21 0 -36 -14.5t-15 -38.5q0 -23 15 -37.5t36 -14.5q23 0 37.5 14.5t14.5 37.5q0 24 -14.5 38.5t-37.5 14.5z" />
    <glyph glyph-name="Amacron" unicode="&#x100;" horiz-adv-x="653" 
d="M399 690q19 0 33.5 -11t19.5 -29l200 -650h-156l-141 507q-4 17 -8 34.5t-7 33.5h-27q-3 -16 -6.5 -33.5t-8.5 -34.5l-141 -507h-157l201 650q5 18 19.5 29t33.5 11h145zM505 297v-115h-358v115h358zM478 869v-94h-300v94h300z" />
    <glyph glyph-name="Abreve" unicode="&#x102;" horiz-adv-x="653" 
d="M399 690q19 0 33.5 -11t19.5 -29l200 -650h-156l-141 507q-4 17 -8 34.5t-7 33.5h-27q-3 -16 -6.5 -33.5t-8.5 -34.5l-141 -507h-157l201 650q5 18 19.5 29t33.5 11h145zM505 297v-115h-358v115h358zM420 900l71 -10q6 -41 -13 -76t-57 -55.5t-94 -20.5q-54 0 -93 20.5
t-58 55.5t-14 76l71 10q0 -33 23 -50t72 -17q47 0 69.5 17t22.5 50z" />
    <glyph glyph-name="Aogonek" unicode="&#x104;" horiz-adv-x="653" 
d="M399 690q19 0 33.5 -11t19.5 -29l200 -650h-156l-141 507q-4 17 -8 34.5t-7 33.5h-27q-3 -16 -6.5 -33.5t-8.5 -34.5l-141 -507h-157l201 650q5 18 19.5 29t33.5 11h145zM505 297v-115h-358v115h358zM592 2l60 -2q-17 -23 -32.5 -47t-28.5 -53q-14 -32 6 -40t57 1l11 -53
q-54 -22 -91 -22.5t-58.5 14.5t-27 39t3.5 50q8 25 32 54t68 59z" />
    <glyph glyph-name="AE" unicode="&#xc6;" horiz-adv-x="934" 
d="M572 692q94 0 169 -1.5t153 -7.5l-6 -110h-246q-24 0 -38.5 -14.5t-14.5 -38.5v-352q0 -25 13.5 -38t39.5 -13h246l6 -110q-74 -7 -155.5 -8.5t-161.5 -1.5q-60 0 -95.5 39t-35.5 100v392q0 18 6.5 37t16.5 30h-11q-10 -9 -20.5 -23.5t-19.5 -30.5l-271 -541h-157
l292 558q18 37 40.5 62.5t55 41t79.5 23t115 7.5zM483 304v-111h-330l5 111h325zM457 411l394 -1v-103h-394v104z" />
    <glyph glyph-name="Ccedilla" unicode="&#xc7;" horiz-adv-x="588" 
d="M339 702q49 0 83.5 -2.5t63.5 -7.5t60 -14l-12 -112q-33 2 -60.5 3t-59 1.5t-75.5 0.5q-51 0 -79.5 -20t-40.5 -69.5t-12 -136.5t12 -136.5t40.5 -69.5t79.5 -20q69 0 116 2t93 7l13 -112q-48 -15 -98 -21.5t-124 -6.5q-107 0 -171.5 34.5t-93 112.5t-28.5 210t28.5 210
t93 112.5t171.5 34.5zM268 -60q51 6 83 3.5t47 -18t14 -50.5q-2 -50 -29 -82.5t-72 -45.5t-100 -6l17 62q37 -1 62.5 12.5t27.5 46.5q2 15 -10.5 18t-53.5 4z" />
    <glyph glyph-name="Cacute" unicode="&#x106;" horiz-adv-x="588" 
d="M339 702q49 0 83.5 -2.5t63.5 -7.5t60 -14l-12 -112q-33 2 -60.5 3t-59 1.5t-75.5 0.5q-51 0 -79.5 -20t-40.5 -69.5t-12 -136.5t12 -136.5t40.5 -69.5t79.5 -20q69 0 116 2t93 7l13 -112q-48 -15 -98 -21.5t-124 -6.5q-107 0 -171.5 34.5t-93 112.5t-28.5 210t28.5 210
t93 112.5t171.5 34.5zM448 939l64 -100l-223 -111l-44 63z" />
    <glyph glyph-name="Ccircumflex" unicode="&#x108;" horiz-adv-x="588" 
d="M339 702q49 0 83.5 -2.5t63.5 -7.5t60 -14l-12 -112q-33 2 -60.5 3t-59 1.5t-75.5 0.5q-51 0 -79.5 -20t-40.5 -69.5t-12 -136.5t12 -136.5t40.5 -69.5t79.5 -20q69 0 116 2t93 7l13 -112q-48 -15 -98 -21.5t-124 -6.5q-107 0 -171.5 34.5t-93 112.5t-28.5 210t28.5 210
t93 112.5t171.5 34.5zM386 913l134 -134l-39 -53l-144 95h-8l-147 -95l-39 57l136 130h107z" />
    <glyph glyph-name="Cdotaccent" unicode="&#x10a;" horiz-adv-x="588" 
d="M339 702q49 0 83.5 -2.5t63.5 -7.5t60 -14l-12 -112q-33 2 -60.5 3t-59 1.5t-75.5 0.5q-51 0 -79.5 -20t-40.5 -69.5t-12 -136.5t12 -136.5t40.5 -69.5t79.5 -20q69 0 116 2t93 7l13 -112q-48 -15 -98 -21.5t-124 -6.5q-107 0 -171.5 34.5t-93 112.5t-28.5 210t28.5 210
t93 112.5t171.5 34.5zM356 891q42 0 42 -41v-52q0 -42 -42 -42h-46q-42 0 -42 42v52q0 41 42 41h46z" />
    <glyph glyph-name="Ccaron" unicode="&#x10c;" horiz-adv-x="588" 
d="M339 702q49 0 83.5 -2.5t63.5 -7.5t60 -14l-12 -112q-33 2 -60.5 3t-59 1.5t-75.5 0.5q-51 0 -79.5 -20t-40.5 -69.5t-12 -136.5t12 -136.5t40.5 -69.5t79.5 -20q69 0 116 2t93 7l13 -112q-48 -15 -98 -21.5t-124 -6.5q-107 0 -171.5 34.5t-93 112.5t-28.5 210t28.5 210
t93 112.5t171.5 34.5zM477 928l39 -57l-153 -129h-61l-154 129l40 57l141 -81h8z" />
    <glyph glyph-name="Eth" unicode="&#xd0;" horiz-adv-x="685" 
d="M350 400v-77h-336v77h336zM342 700q82 0 138.5 -17.5t91 -57.5t50.5 -108.5t16 -171.5t-16 -171.5t-50.5 -108.5t-91 -57.5t-138.5 -17.5q-79 0 -145 3t-126 7l64 113q38 -2 90.5 -3.5t116.5 -1.5q51 0 80.5 20.5t42 72.5t12.5 144t-12.5 144t-42 73t-80.5 21
q-61 0 -109 -0.5t-94 -0.5l-68 108q60 4 125.5 7t145.5 3zM224 690v-690h-153v690h153z" />
    <glyph glyph-name="Dcaron" unicode="&#x10e;" horiz-adv-x="683" 
d="M340 700q82 0 138.5 -17.5t91 -57.5t50.5 -108.5t16 -171.5t-16 -171.5t-50.5 -108.5t-91 -57.5t-138.5 -17.5q-79 0 -145 3t-126 7l64 113q38 -2 90.5 -3.5t116.5 -1.5q51 0 80.5 20.5t42 72.5t12.5 144t-12.5 144t-42 73t-80.5 21q-61 0 -109 -0.5t-94 -0.5l-68 108
q60 4 125.5 7t145.5 3zM222 690v-690h-153v690h153zM478 928l39 -57l-153 -129h-61l-154 129l40 57l141 -81h8z" />
    <glyph glyph-name="Dcroat" unicode="&#x110;" horiz-adv-x="685" 
d="M350 400v-77h-336v77h336zM342 700q82 0 138.5 -17.5t91 -57.5t50.5 -108.5t16 -171.5t-16 -171.5t-50.5 -108.5t-91 -57.5t-138.5 -17.5q-79 0 -145 3t-126 7l64 113q38 -2 90.5 -3.5t116.5 -1.5q51 0 80.5 20.5t42 72.5t12.5 144t-12.5 144t-42 73t-80.5 21
q-61 0 -109 -0.5t-94 -0.5l-68 108q60 4 125.5 7t145.5 3zM224 690v-690h-153v690h153z" />
    <glyph glyph-name="Egrave" unicode="&#xc8;" horiz-adv-x="578" 
d="M211 693q56 0 113 -0.5t112 -2.5t103 -7l-7 -111h-265q-25 0 -37.5 -13t-12.5 -38v-352q0 -25 12.5 -38t37.5 -13h265l7 -111q-48 -4 -103 -6.5t-112 -3t-113 -0.5q-66 0 -106.5 38.5t-40.5 100.5v418q0 63 40.5 101t106.5 38zM82 413h413v-108h-413v108zM192 952
l203 -148l-43 -63l-224 112z" />
    <glyph glyph-name="Eacute" unicode="&#xc9;" horiz-adv-x="578" 
d="M211 693q56 0 113 -0.5t112 -2.5t103 -7l-7 -111h-265q-25 0 -37.5 -13t-12.5 -38v-352q0 -25 12.5 -38t37.5 -13h265l7 -111q-48 -4 -103 -6.5t-112 -3t-113 -0.5q-66 0 -106.5 38.5t-40.5 100.5v418q0 63 40.5 101t106.5 38zM82 413h413v-108h-413v108zM432 946
l64 -100l-223 -111l-44 63z" />
    <glyph glyph-name="Ecircumflex" unicode="&#xca;" horiz-adv-x="578" 
d="M211 693q56 0 113 -0.5t112 -2.5t103 -7l-7 -111h-265q-25 0 -37.5 -13t-12.5 -38v-352q0 -25 12.5 -38t37.5 -13h265l7 -111q-48 -4 -103 -6.5t-112 -3t-113 -0.5q-66 0 -106.5 38.5t-40.5 100.5v418q0 63 40.5 101t106.5 38zM82 413h413v-108h-413v108zM370 920
l134 -134l-39 -53l-144 95h-8l-147 -95l-39 57l136 130h107z" />
    <glyph glyph-name="Edieresis" unicode="&#xcb;" horiz-adv-x="578" 
d="M211 693q56 0 113 -0.5t112 -2.5t103 -7l-7 -111h-265q-25 0 -37.5 -13t-12.5 -38v-352q0 -25 12.5 -38t37.5 -13h265l7 -111q-48 -4 -103 -6.5t-112 -3t-113 -0.5q-66 0 -106.5 38.5t-40.5 100.5v418q0 63 40.5 101t106.5 38zM82 413h413v-108h-413v108zM431 894
q32 0 32 -32v-59q0 -32 -32 -32h-49q-31 0 -31 32v59q0 32 31 32h49zM248 894q31 0 31 -32v-59q0 -32 -31 -32h-49q-31 0 -31 32v59q0 32 31 32h49z" />
    <glyph glyph-name="Emacron" unicode="&#x112;" horiz-adv-x="578" 
d="M211 693q56 0 113 -0.5t112 -2.5t103 -7l-7 -111h-265q-25 0 -37.5 -13t-12.5 -38v-352q0 -25 12.5 -38t37.5 -13h265l7 -111q-48 -4 -103 -6.5t-112 -3t-113 -0.5q-66 0 -106.5 38.5t-40.5 100.5v418q0 63 40.5 101t106.5 38zM82 413h413v-108h-413v108zM467 879v-94
h-300v94h300z" />
    <glyph glyph-name="Ebreve" unicode="&#x114;" horiz-adv-x="578" 
d="M211 693q56 0 113 -0.5t112 -2.5t103 -7l-7 -111h-265q-25 0 -37.5 -13t-12.5 -38v-352q0 -25 12.5 -38t37.5 -13h265l7 -111q-48 -4 -103 -6.5t-112 -3t-113 -0.5q-66 0 -106.5 38.5t-40.5 100.5v418q0 63 40.5 101t106.5 38zM82 413h413v-108h-413v108zM409 910l71 -10
q6 -41 -13 -76t-57 -55.5t-94 -20.5q-54 0 -93 20.5t-58 55.5t-14 76l71 10q0 -33 23 -50t72 -17q47 0 69.5 17t22.5 50z" />
    <glyph glyph-name="Edotaccent" unicode="&#x116;" horiz-adv-x="578" 
d="M211 693q56 0 113 -0.5t112 -2.5t103 -7l-7 -111h-265q-25 0 -37.5 -13t-12.5 -38v-352q0 -25 12.5 -38t37.5 -13h265l7 -111q-48 -4 -103 -6.5t-112 -3t-113 -0.5q-66 0 -106.5 38.5t-40.5 100.5v418q0 63 40.5 101t106.5 38zM82 413h413v-108h-413v108zM340 897
q42 0 42 -41v-52q0 -42 -42 -42h-46q-42 0 -42 42v52q0 41 42 41h46z" />
    <glyph glyph-name="Eogonek" unicode="&#x118;" horiz-adv-x="578" 
d="M211 693q56 0 113 -0.5t112 -2.5t103 -7l-7 -111h-265q-25 0 -37.5 -13t-12.5 -38v-352q0 -25 12.5 -38t37.5 -13h265l7 -111q-48 -4 -103 -6.5t-112 -3t-113 -0.5q-66 0 -106.5 38.5t-40.5 100.5v418q0 63 40.5 101t106.5 38zM82 413h413v-108h-413v108zM480 9l60 -2
q-17 -23 -32.5 -47t-28.5 -53q-14 -32 6 -40t57 1l11 -53q-54 -22 -91 -22.5t-58.5 14.5t-27 39t3.5 50q8 25 32 54t68 59z" />
    <glyph glyph-name="Ecaron" unicode="&#x11a;" horiz-adv-x="578" 
d="M211 693q56 0 113 -0.5t112 -2.5t103 -7l-7 -111h-265q-25 0 -37.5 -13t-12.5 -38v-352q0 -25 12.5 -38t37.5 -13h265l7 -111q-48 -4 -103 -6.5t-112 -3t-113 -0.5q-66 0 -106.5 38.5t-40.5 100.5v418q0 63 40.5 101t106.5 38zM82 413h413v-108h-413v108zM461 934l39 -57
l-153 -129h-61l-154 129l40 57l141 -81h8z" />
    <glyph glyph-name="Gcircumflex" unicode="&#x11c;" horiz-adv-x="648" 
d="M354 704q45 0 82 -3t70.5 -8t65.5 -15l-12 -111q-35 2 -68 3t-66 1.5t-69 0.5q-43 0 -71.5 -9t-45.5 -33.5t-24.5 -70t-7.5 -116.5q0 -86 11 -135t37 -69.5t70 -20.5q30 0 55 6t46 16.5t39 20.5l16 -72q-15 -21 -44.5 -45t-71.5 -41t-96 -17q-78 0 -127.5 37t-72.5 116.5
t-23 206.5q0 135 29.5 213t97 111.5t180.5 33.5zM596 398v-398h-113l-21 105l-14 28v265h148zM394 917l134 -134l-39 -53l-144 95h-8l-147 -95l-39 57l136 130h107z" />
    <glyph glyph-name="Gbreve" unicode="&#x11e;" horiz-adv-x="648" 
d="M354 704q45 0 82 -3t70.5 -8t65.5 -15l-12 -111q-35 2 -68 3t-66 1.5t-69 0.5q-43 0 -71.5 -9t-45.5 -33.5t-24.5 -70t-7.5 -116.5q0 -86 11 -135t37 -69.5t70 -20.5q30 0 55 6t46 16.5t39 20.5l16 -72q-15 -21 -44.5 -45t-71.5 -41t-96 -17q-78 0 -127.5 37t-72.5 116.5
t-23 206.5q0 135 29.5 213t97 111.5t180.5 33.5zM596 398v-398h-113l-21 105l-14 28v265h148zM433 907l71 -10q6 -41 -13 -76t-57 -55.5t-94 -20.5q-54 0 -93 20.5t-58 55.5t-14 76l71 10q0 -33 23 -50t72 -17q47 0 69.5 17t22.5 50z" />
    <glyph glyph-name="Gdotaccent" unicode="&#x120;" horiz-adv-x="648" 
d="M354 704q45 0 82 -3t70.5 -8t65.5 -15l-12 -111q-35 2 -68 3t-66 1.5t-69 0.5q-43 0 -71.5 -9t-45.5 -33.5t-24.5 -70t-7.5 -116.5q0 -86 11 -135t37 -69.5t70 -20.5q30 0 55 6t46 16.5t39 20.5l16 -72q-15 -21 -44.5 -45t-71.5 -41t-96 -17q-78 0 -127.5 37t-72.5 116.5
t-23 206.5q0 135 29.5 213t97 111.5t180.5 33.5zM596 398v-398h-113l-21 105l-14 28v265h148zM363 894q42 0 42 -41v-52q0 -42 -42 -42h-46q-42 0 -42 42v52q0 41 42 41h46z" />
    <glyph glyph-name="uni0122" unicode="&#x122;" horiz-adv-x="648" 
d="M354 704q45 0 82 -3t70.5 -8t65.5 -15l-12 -111q-35 2 -68 3t-66 1.5t-69 0.5q-43 0 -71.5 -9t-45.5 -33.5t-24.5 -70t-7.5 -116.5q0 -86 11 -135t37 -69.5t70 -20.5q30 0 55 6t46 16.5t39 20.5l16 -72q-15 -21 -44.5 -45t-71.5 -41t-96 -17q-78 0 -127.5 37t-72.5 116.5
t-23 206.5q0 135 29.5 213t97 111.5t180.5 33.5zM596 398v-398h-113l-21 105l-14 28v265h148zM352.532 -43.5977q26.3613 0 36.3604 -9.86621t10.9082 -34.7451v-54.9062q0 -33.459 -5.90918 -60.9121q-5.9082 -27.4531 -15.9072 -50.6162t-24.543 -45.4697l-54.54 15.4434
q7.27246 28.3105 9.99902 54.4766q2.72754 26.166 3.63672 56.1934q-38.1787 0 -39.0869 39.4639l1.81738 46.3271q0.90918 24.8789 11.3623 34.7451q10.4541 9.86621 35.9053 9.86621h29.9971z" />
    <glyph glyph-name="Hcircumflex" unicode="&#x124;" horiz-adv-x="691" 
d="M223 690v-690h-153v690h153zM479 425v-115h-264v115h264zM621 690v-690h-153v690h153zM399 917l134 -134l-39 -53l-144 95h-8l-147 -95l-39 57l136 130h107z" />
    <glyph glyph-name="Hbar" unicode="&#x126;" horiz-adv-x="695" 
d="M684 584v-71h-672v71h672zM225 690v-690h-153v690h153zM481 425v-115h-264v115h264zM623 690v-690h-153v690h153z" />
    <glyph glyph-name="Igrave" unicode="&#xcc;" horiz-adv-x="292" 
d="M222 690v-690h-152v690h152zM22 945l203 -148l-43 -63l-224 112z" />
    <glyph glyph-name="Iacute" unicode="&#xcd;" horiz-adv-x="292" 
d="M222 690v-690h-152v690h152zM262 939l64 -100l-223 -111l-44 63z" />
    <glyph glyph-name="Icircumflex" unicode="&#xce;" horiz-adv-x="292" 
d="M222 690v-690h-152v690h152zM200 913l134 -134l-39 -53l-144 95h-8l-147 -95l-39 57l136 130h107z" />
    <glyph glyph-name="Itilde" unicode="&#x128;" horiz-adv-x="292" 
d="M222 690v-690h-152v690h152zM53 900q25 -2 45 -8.5t38.5 -14.5t37 -15.5t38.5 -10.5q26 -4 32.5 7t6.5 37h64q11 -71 -14 -107.5t-68 -33.5q-34 3 -61.5 13.5t-51 22t-47.5 14.5q-25 3 -31.5 -8t-6.5 -38h-64q-7 50 3 82t32 47t47 13z" />
    <glyph glyph-name="Idieresis" unicode="&#xcf;" horiz-adv-x="292" 
d="M222 690v-690h-152v690h152zM261 888q32 0 32 -32v-59q0 -32 -32 -32h-49q-31 0 -31 32v59q0 32 31 32h49zM78 888q31 0 31 -32v-59q0 -32 -31 -32h-49q-31 0 -31 32v59q0 32 31 32h49z" />
    <glyph glyph-name="Imacron" unicode="&#x12a;" horiz-adv-x="292" 
d="M222 690v-690h-152v690h152zM297 873v-94h-300v94h300z" />
    <glyph glyph-name="Ibreve" unicode="&#x12c;" horiz-adv-x="292" 
d="M222 690v-690h-152v690h152zM239 903l71 -10q6 -41 -13 -76t-57 -55.5t-94 -20.5q-54 0 -93 20.5t-58 55.5t-14 76l71 10q0 -33 23 -50t72 -17q47 0 69.5 17t22.5 50z" />
    <glyph glyph-name="Iogonek" unicode="&#x12e;" horiz-adv-x="292" 
d="M222 690v-690h-152v690h152zM143 2l60 -2q-17 -23 -32.5 -47t-28.5 -53q-14 -32 6 -40t57 1l11 -53q-54 -22 -91 -22.5t-58.5 14.5t-27 39t3.5 50q8 25 32 54t68 59z" />
    <glyph glyph-name="Idotaccent" unicode="&#x130;" horiz-adv-x="292" 
d="M222 690v-690h-152v690h152zM170 891q42 0 42 -41v-52q0 -42 -42 -42h-46q-42 0 -42 42v52q0 41 42 41h46z" />
    <glyph glyph-name="IJ" unicode="&#x132;" horiz-adv-x="664" 
d="M222 690v-690h-152v690h152zM597 690v-554q0 -72 -41.5 -110t-116.5 -38q-18 0 -42.5 2.5t-47.5 7t-37 10.5l16 99h49q68 0 68 56v527h152z" />
    <glyph glyph-name="Jcircumflex" unicode="&#x134;" horiz-adv-x="372" 
d="M305 690v-554q0 -72 -41.5 -110t-116.5 -38q-18 0 -42.5 2.5t-47.5 7t-37 10.5l16 99h49q68 0 68 56v527h152zM285 914l134 -134l-39 -53l-144 95h-8l-147 -95l-39 57l136 130h107z" />
    <glyph glyph-name="uni0136" unicode="&#x136;" horiz-adv-x="634" 
d="M617 690l-180 -278q-11 -18 -24 -31t-26 -22v-3q14 -8 30 -24t26 -34l186 -298h-171l-213 361l207 329h165zM222 690v-195q0 -34 -5 -67.5t-16 -65.5q8 -31 14.5 -63.5t6.5 -60.5v-238h-152v690h152zM300 412v-106h-124v106h124zM346.532 -43.5977
q26.3613 0 36.3604 -9.86621t10.9082 -34.7451v-54.9062q0 -33.459 -5.90918 -60.9121q-5.9082 -27.4531 -15.9072 -50.6162t-24.543 -45.4697l-54.54 15.4434q7.27246 28.3105 9.99902 54.4766q2.72754 26.166 3.63672 56.1934q-38.1787 0 -39.0869 39.4639
l1.81738 46.3271q0.90918 24.8789 11.3623 34.7451q10.4541 9.86621 35.9053 9.86621h29.9971z" />
    <glyph glyph-name="Lacute" unicode="&#x139;" horiz-adv-x="536" 
d="M220 690v-516q0 -25 14 -38t40 -13h241l7 -115q-71 -8 -148.5 -9.5t-154.5 -1.5q-75 0 -113.5 40.5t-38.5 103.5v549h153zM256 940l64 -100l-223 -111l-44 63z" />
    <glyph glyph-name="uni013B" unicode="&#x13b;" horiz-adv-x="536" 
d="M220 690v-516q0 -25 14 -38t40 -13h241l7 -115q-71 -8 -148.5 -9.5t-154.5 -1.5q-75 0 -113.5 40.5t-38.5 103.5v549h153zM309.532 -44.5977q26.3613 0 36.3604 -9.86621t10.9082 -34.7451v-54.9062q0 -33.459 -5.90918 -60.9121q-5.9082 -27.4531 -15.9072 -50.6162
t-24.543 -45.4697l-54.54 15.4434q7.27246 28.3105 9.99902 54.4766q2.72754 26.166 3.63672 56.1934q-38.1787 0 -39.0869 39.4639l1.81738 46.3271q0.90918 24.8789 11.3623 34.7451q10.4541 9.86621 35.9053 9.86621h29.9971z" />
    <glyph glyph-name="Lcaron" unicode="&#x13d;" horiz-adv-x="536" 
d="M220 690v-516q0 -25 14 -38t40 -13h241l7 -115q-71 -8 -148.5 -9.5t-154.5 -1.5q-75 0 -113.5 40.5t-38.5 103.5v549h153zM402 689q24 0 33 -9.5t9 -33.5v-54q1 -48 -10.5 -83t-30.5 -68l-50 15q7 27 9 52.5t3 54.5q-36 0 -35 38l1 45q1 24 10.5 33.5t32.5 9.5h28z" />
    <glyph glyph-name="Ldot" unicode="&#x13f;" horiz-adv-x="536" 
d="M220 690v-516q0 -25 14 -38t40 -13h241l7 -115q-71 -8 -148.5 -9.5t-154.5 -1.5q-75 0 -113.5 40.5t-38.5 103.5v549h153zM362 341q-42 0 -42 41v52q0 42 42 42h46q42 0 42 -42v-52q0 -41 -42 -41h-46z" />
    <glyph glyph-name="Lslash" unicode="&#x141;" horiz-adv-x="539" 
d="M333 494v-80l-320 -127v80zM223 690v-516q0 -25 14 -38t40 -13h241l7 -115q-71 -8 -148.5 -9.5t-154.5 -1.5q-75 0 -113.5 40.5t-38.5 103.5v549h153z" />
    <glyph glyph-name="Ntilde" unicode="&#xd1;" horiz-adv-x="722" 
d="M653 690v-635q0 -55 -55 -55h-84q-25 0 -38 11.5t-24 34.5l-191 362q-12 23 -23.5 51t-19.5 54h-11q3 -27 5 -54.5t2 -54.5v-404h-145v635q0 55 56 55h83q24 0 36.5 -11.5t24.5 -34.5l185 -351q12 -23 25 -51t25 -58h12q-3 30 -4.5 58.5t-1.5 56.5l-1 391h144zM279 900
q25 -2 45 -8.5t38.5 -14.5t37 -15.5t38.5 -10.5q26 -4 32.5 7t6.5 37h64q11 -71 -14 -107.5t-68 -33.5q-34 3 -61.5 13.5t-51 22t-47.5 14.5q-25 3 -31.5 -8t-6.5 -38h-64q-7 50 3 82t32 47t47 13z" />
    <glyph glyph-name="Nacute" unicode="&#x143;" horiz-adv-x="722" 
d="M653 690v-635q0 -55 -55 -55h-84q-25 0 -38 11.5t-24 34.5l-191 362q-12 23 -23.5 51t-19.5 54h-11q3 -27 5 -54.5t2 -54.5v-404h-145v635q0 55 56 55h83q24 0 36.5 -11.5t24.5 -34.5l185 -351q12 -23 25 -51t25 -58h12q-3 30 -4.5 58.5t-1.5 56.5l-1 391h144zM488 939
l64 -100l-223 -111l-44 63z" />
    <glyph glyph-name="uni0145" unicode="&#x145;" horiz-adv-x="722" 
d="M653 690v-635q0 -55 -55 -55h-84q-25 0 -38 11.5t-24 34.5l-191 362q-12 23 -23.5 51t-19.5 54h-11q3 -27 5 -54.5t2 -54.5v-404h-145v635q0 55 56 55h83q24 0 36.5 -11.5t24.5 -34.5l185 -351q12 -23 25 -51t25 -58h12q-3 30 -4.5 58.5t-1.5 56.5l-1 391h144z
M374.532 -43.5977q26.3613 0 36.3604 -9.86621t10.9082 -34.7451v-54.9062q0 -33.459 -5.90918 -60.9121q-5.9082 -27.4531 -15.9072 -50.6162t-24.543 -45.4697l-54.54 15.4434q7.27246 28.3105 9.99902 54.4766q2.72754 26.166 3.63672 56.1934
q-38.1787 0 -39.0869 39.4639l1.81738 46.3271q0.90918 24.8789 11.3623 34.7451q10.4541 9.86621 35.9053 9.86621h29.9971z" />
    <glyph glyph-name="Ncaron" unicode="&#x147;" horiz-adv-x="722" 
d="M653 690v-635q0 -55 -55 -55h-84q-25 0 -38 11.5t-24 34.5l-191 362q-12 23 -23.5 51t-19.5 54h-11q3 -27 5 -54.5t2 -54.5v-404h-145v635q0 55 56 55h83q24 0 36.5 -11.5t24.5 -34.5l185 -351q12 -23 25 -51t25 -58h12q-3 30 -4.5 58.5t-1.5 56.5l-1 391h144zM517 928
l39 -57l-153 -129h-61l-154 129l40 57l141 -81h8z" />
    <glyph glyph-name="Eng" unicode="&#x14a;" horiz-adv-x="723" 
d="M653 690v-746q0 -74 -38.5 -114t-101.5 -40q-24 0 -58 5t-58 14l16 96h42q62 0 62 52v48h-20q-8 0 -17.5 12t-17.5 27l-201 357q-13 22 -24 50.5t-20 54.5h-10q3 -26 4.5 -52.5t1.5 -52.5v-401h-144v635q0 55 56 55h74q25 0 38 -11.5t25 -34.5l192 -343q11 -20 24.5 -49
t24.5 -60h12q-2 28 -4.5 56t-2.5 56v386h145z" />
    <glyph glyph-name="Ograve" unicode="&#xd2;" horiz-adv-x="688" 
d="M344 704q82 0 139 -17.5t91.5 -58t50.5 -110t16 -173.5t-16 -173.5t-50.5 -110t-91.5 -58t-139 -17.5t-139 17.5t-92 58t-51 110t-16 173.5t16 173.5t51 110t92 58t139 17.5zM344 583q-53 0 -82.5 -21t-42 -72.5t-12.5 -144.5q0 -92 12.5 -144t42 -73t82.5 -21
q52 0 81.5 21t42 73t12.5 144q0 93 -12.5 144.5t-42 72.5t-81.5 21zM220 945l203 -148l-43 -63l-224 112z" />
    <glyph glyph-name="Oacute" unicode="&#xd3;" horiz-adv-x="688" 
d="M344 704q82 0 139 -17.5t91.5 -58t50.5 -110t16 -173.5t-16 -173.5t-50.5 -110t-91.5 -58t-139 -17.5t-139 17.5t-92 58t-51 110t-16 173.5t16 173.5t51 110t92 58t139 17.5zM344 583q-53 0 -82.5 -21t-42 -72.5t-12.5 -144.5q0 -92 12.5 -144t42 -73t82.5 -21
q52 0 81.5 21t42 73t12.5 144q0 93 -12.5 144.5t-42 72.5t-81.5 21zM459 949l64 -100l-223 -111l-44 63z" />
    <glyph glyph-name="Ocircumflex" unicode="&#xd4;" horiz-adv-x="688" 
d="M344 704q82 0 139 -17.5t91.5 -58t50.5 -110t16 -173.5t-16 -173.5t-50.5 -110t-91.5 -58t-139 -17.5t-139 17.5t-92 58t-51 110t-16 173.5t16 173.5t51 110t92 58t139 17.5zM344 583q-53 0 -82.5 -21t-42 -72.5t-12.5 -144.5q0 -92 12.5 -144t42 -73t82.5 -21
q52 0 81.5 21t42 73t12.5 144q0 93 -12.5 144.5t-42 72.5t-81.5 21zM398 913l134 -134l-39 -53l-144 95h-8l-147 -95l-39 57l136 130h107z" />
    <glyph glyph-name="Otilde" unicode="&#xd5;" horiz-adv-x="688" 
d="M344 704q82 0 139 -17.5t91.5 -58t50.5 -110t16 -173.5t-16 -173.5t-50.5 -110t-91.5 -58t-139 -17.5t-139 17.5t-92 58t-51 110t-16 173.5t16 173.5t51 110t92 58t139 17.5zM344 583q-53 0 -82.5 -21t-42 -72.5t-12.5 -144.5q0 -92 12.5 -144t42 -73t82.5 -21
q52 0 81.5 21t42 73t12.5 144q0 93 -12.5 144.5t-42 72.5t-81.5 21zM250 900q25 -2 45 -8.5t38.5 -14.5t37 -15.5t38.5 -10.5q26 -4 32.5 7t6.5 37h64q11 -71 -14 -107.5t-68 -33.5q-34 3 -61.5 13.5t-51 22t-47.5 14.5q-25 3 -31.5 -8t-6.5 -38h-64q-7 50 3 82t32 47t47 13
z" />
    <glyph glyph-name="Odieresis" unicode="&#xd6;" horiz-adv-x="688" 
d="M344 704q82 0 139 -17.5t91.5 -58t50.5 -110t16 -173.5t-16 -173.5t-50.5 -110t-91.5 -58t-139 -17.5t-139 17.5t-92 58t-51 110t-16 173.5t16 173.5t51 110t92 58t139 17.5zM344 583q-53 0 -82.5 -21t-42 -72.5t-12.5 -144.5q0 -92 12.5 -144t42 -73t82.5 -21
q52 0 81.5 21t42 73t12.5 144q0 93 -12.5 144.5t-42 72.5t-81.5 21zM459 888q32 0 32 -32v-59q0 -32 -32 -32h-49q-31 0 -31 32v59q0 32 31 32h49zM276 888q31 0 31 -32v-59q0 -32 -31 -32h-49q-31 0 -31 32v59q0 32 31 32h49z" />
    <glyph glyph-name="Omacron" unicode="&#x14c;" horiz-adv-x="688" 
d="M344 704q82 0 139 -17.5t91.5 -58t50.5 -110t16 -173.5t-16 -173.5t-50.5 -110t-91.5 -58t-139 -17.5t-139 17.5t-92 58t-51 110t-16 173.5t16 173.5t51 110t92 58t139 17.5zM344 583q-53 0 -82.5 -21t-42 -72.5t-12.5 -144.5q0 -92 12.5 -144t42 -73t82.5 -21
q52 0 81.5 21t42 73t12.5 144q0 93 -12.5 144.5t-42 72.5t-81.5 21zM495 873v-94h-300v94h300z" />
    <glyph glyph-name="Obreve" unicode="&#x14e;" horiz-adv-x="688" 
d="M344 704q82 0 139 -17.5t91.5 -58t50.5 -110t16 -173.5t-16 -173.5t-50.5 -110t-91.5 -58t-139 -17.5t-139 17.5t-92 58t-51 110t-16 173.5t16 173.5t51 110t92 58t139 17.5zM344 583q-53 0 -82.5 -21t-42 -72.5t-12.5 -144.5q0 -92 12.5 -144t42 -73t82.5 -21
q52 0 81.5 21t42 73t12.5 144q0 93 -12.5 144.5t-42 72.5t-81.5 21zM436 903l71 -10q6 -41 -13 -76t-57 -55.5t-94 -20.5q-54 0 -93 20.5t-58 55.5t-14 76l71 10q0 -33 23 -50t72 -17q47 0 69.5 17t22.5 50z" />
    <glyph glyph-name="Ohungarumlaut" unicode="&#x150;" horiz-adv-x="688" 
d="M344 704q82 0 139 -17.5t91.5 -58t50.5 -110t16 -173.5t-16 -173.5t-50.5 -110t-91.5 -58t-139 -17.5t-139 17.5t-92 58t-51 110t-16 173.5t16 173.5t51 110t92 58t139 17.5zM344 583q-53 0 -82.5 -21t-42 -72.5t-12.5 -144.5q0 -92 12.5 -144t42 -73t82.5 -21
q52 0 81.5 21t42 73t12.5 144q0 93 -12.5 144.5t-42 72.5t-81.5 21zM289 950l96 -64l-152 -168l-61 48zM479 950l95 -64l-152 -168l-60 47z" />
    <glyph glyph-name="Oslash" unicode="&#xd8;" horiz-adv-x="688" 
d="M500 754l52 -24l-372 -795l-51 24zM344 704q82 0 139 -17.5t91.5 -58t50.5 -110t16 -173.5t-16 -173.5t-50.5 -110t-91.5 -58t-139 -17.5t-139 17.5t-92 58t-51 110t-16 173.5t16 173.5t51 110t92 58t139 17.5zM344 583q-53 0 -82.5 -21t-42 -72.5t-12.5 -144.5
q0 -92 12.5 -144t42 -73t82.5 -21q52 0 81.5 21t42 73t12.5 144q0 93 -12.5 144.5t-42 72.5t-81.5 21z" />
    <glyph glyph-name="OE" unicode="&#x152;" horiz-adv-x="948" 
d="M342 704q38 0 68.5 -3.5t58.5 -11t56 -18.5l-58 -105q-18 6 -35 9.5t-39 5.5t-51 2q-52 0 -81 -20.5t-41 -72.5t-12 -145q0 -92 12 -144t41 -73t81 -21q31 0 53 2t39.5 6.5t35.5 11.5l53 -99q-28 -15 -55.5 -24t-57.5 -13.5t-68 -4.5q-81 0 -138 17.5t-91.5 58t-50 110
t-15.5 173.5t15.5 173.5t50 110t91.5 58t138 17.5zM588 693q54 0 110 -0.5t110 -2.5t100 -7l-6 -111h-249q-26 0 -39.5 -13t-13.5 -38v-352q0 -25 13.5 -38t39.5 -13h249l6 -111q-47 -4 -101.5 -6.5t-111 -3t-111.5 -0.5q-60 0 -99 40t-39 104v408q0 64 40.5 104t101.5 40z
M463 411l402 -1v-103h-402v104z" />
    <glyph glyph-name="Racute" unicode="&#x154;" horiz-adv-x="647" 
d="M335 700q91 0 147.5 -18.5t83 -63t26.5 -123.5q0 -48 -12.5 -84.5t-41.5 -58.5t-79 -28v-5q18 -3 37.5 -14t36.5 -32.5t25 -57.5l60 -215h-161l-53 210q-9 34 -26.5 47t-48.5 13q-68 0 -114.5 0.5t-78 1.5t-56.5 2l3 111h249q40 0 63.5 8.5t33 30.5t9.5 61
q0 40 -9.5 61.5t-33 30t-63.5 8.5q-94 0 -159 -1t-89 -3l-15 109q42 5 79 7t81 2.5t106 0.5zM220 690v-690h-151v690h151zM433 939l64 -100l-223 -111l-44 63z" />
    <glyph glyph-name="uni0156" unicode="&#x156;" horiz-adv-x="647" 
d="M335 700q91 0 147.5 -18.5t83 -63t26.5 -123.5q0 -48 -12.5 -84.5t-41.5 -58.5t-79 -28v-5q18 -3 37.5 -14t36.5 -32.5t25 -57.5l60 -215h-161l-53 210q-9 34 -26.5 47t-48.5 13q-68 0 -114.5 0.5t-78 1.5t-56.5 2l3 111h249q40 0 63.5 8.5t33 30.5t9.5 61
q0 40 -9.5 61.5t-33 30t-63.5 8.5q-94 0 -159 -1t-89 -3l-15 109q42 5 79 7t81 2.5t106 0.5zM220 690v-690h-151v690h151zM352.532 -43.5977q26.3613 0 36.3604 -9.86621t10.9082 -34.7451v-54.9062q0 -33.459 -5.90918 -60.9121q-5.9082 -27.4531 -15.9072 -50.6162
t-24.543 -45.4697l-54.54 15.4434q7.27246 28.3105 9.99902 54.4766q2.72754 26.166 3.63672 56.1934q-38.1787 0 -39.0869 39.4639l1.81738 46.3271q0.90918 24.8789 11.3623 34.7451q10.4541 9.86621 35.9053 9.86621h29.9971z" />
    <glyph glyph-name="Rcaron" unicode="&#x158;" horiz-adv-x="647" 
d="M335 700q91 0 147.5 -18.5t83 -63t26.5 -123.5q0 -48 -12.5 -84.5t-41.5 -58.5t-79 -28v-5q18 -3 37.5 -14t36.5 -32.5t25 -57.5l60 -215h-161l-53 210q-9 34 -26.5 47t-48.5 13q-68 0 -114.5 0.5t-78 1.5t-56.5 2l3 111h249q40 0 63.5 8.5t33 30.5t9.5 61
q0 40 -9.5 61.5t-33 30t-63.5 8.5q-94 0 -159 -1t-89 -3l-15 109q42 5 79 7t81 2.5t106 0.5zM220 690v-690h-151v690h151zM461 928l39 -57l-153 -129h-61l-154 129l40 57l141 -81h8z" />
    <glyph glyph-name="Sacute" unicode="&#x15a;" horiz-adv-x="586" 
d="M297 703q51 0 111 -5.5t117 -22.5l-10 -101q-44 1 -103 2t-116 1q-28 0 -47.5 -1.5t-31.5 -8t-17 -19.5t-5 -36q0 -35 16.5 -51t56.5 -29l133 -43q83 -28 115 -76t32 -126q0 -59 -14 -98t-44 -61t-79 -31.5t-120 -9.5q-34 0 -97 4.5t-144 22.5l10 108q59 -1 102.5 -2.5
t74.5 -2t54 -0.5q40 0 62.5 5t31.5 20t9 43q0 24 -6.5 38.5t-21 23t-39.5 15.5l-140 48q-79 29 -112 76t-33 124q0 60 14.5 97.5t45 58.5t79 29t116.5 8zM413 939l64 -100l-223 -111l-44 63z" />
    <glyph glyph-name="Scircumflex" unicode="&#x15c;" horiz-adv-x="586" 
d="M297 703q51 0 111 -5.5t117 -22.5l-10 -101q-44 1 -103 2t-116 1q-28 0 -47.5 -1.5t-31.5 -8t-17 -19.5t-5 -36q0 -35 16.5 -51t56.5 -29l133 -43q83 -28 115 -76t32 -126q0 -59 -14 -98t-44 -61t-79 -31.5t-120 -9.5q-34 0 -97 4.5t-144 22.5l10 108q59 -1 102.5 -2.5
t74.5 -2t54 -0.5q40 0 62.5 5t31.5 20t9 43q0 24 -6.5 38.5t-21 23t-39.5 15.5l-140 48q-79 29 -112 76t-33 124q0 60 14.5 97.5t45 58.5t79 29t116.5 8zM350 913l134 -134l-39 -53l-144 95h-8l-147 -95l-39 57l136 130h107z" />
    <glyph glyph-name="Scedilla" unicode="&#x15e;" horiz-adv-x="586" 
d="M297 703q51 0 111 -5.5t117 -22.5l-10 -101q-44 1 -103 2t-116 1q-28 0 -47.5 -1.5t-31.5 -8t-17 -19.5t-5 -36q0 -35 16.5 -51t56.5 -29l133 -43q83 -28 115 -76t32 -126q0 -59 -14 -98t-44 -61t-79 -31.5t-120 -9.5q-34 0 -97 4.5t-144 22.5l10 108q59 -1 102.5 -2.5
t74.5 -2t54 -0.5q40 0 62.5 5t31.5 20t9 43q0 24 -6.5 38.5t-21 23t-39.5 15.5l-140 48q-79 29 -112 76t-33 124q0 60 14.5 97.5t45 58.5t79 29t116.5 8zM241 -50q51 6 83 3.5t47 -18t14 -50.5q-2 -50 -29 -82.5t-72 -45.5t-100 -6l17 62q37 -1 62.5 12.5t27.5 46.5
q2 15 -10.5 18t-53.5 4z" />
    <glyph glyph-name="Scaron" unicode="&#x160;" horiz-adv-x="586" 
d="M297 703q51 0 111 -5.5t117 -22.5l-10 -101q-44 1 -103 2t-116 1q-28 0 -47.5 -1.5t-31.5 -8t-17 -19.5t-5 -36q0 -35 16.5 -51t56.5 -29l133 -43q83 -28 115 -76t32 -126q0 -59 -14 -98t-44 -61t-79 -31.5t-120 -9.5q-34 0 -97 4.5t-144 22.5l10 108q59 -1 102.5 -2.5
t74.5 -2t54 -0.5q40 0 62.5 5t31.5 20t9 43q0 24 -6.5 38.5t-21 23t-39.5 15.5l-140 48q-79 29 -112 76t-33 124q0 60 14.5 97.5t45 58.5t79 29t116.5 8zM442 928l39 -57l-153 -129h-61l-154 129l40 57l141 -81h8z" />
    <glyph glyph-name="uni0218" unicode="&#x218;" horiz-adv-x="586" 
d="M297 703q51 0 111 -5.5t117 -22.5l-10 -101q-44 1 -103 2t-116 1q-28 0 -47.5 -1.5t-31.5 -8t-17 -19.5t-5 -36q0 -35 16.5 -51t56.5 -29l133 -43q83 -28 115 -76t32 -126q0 -59 -14 -98t-44 -61t-79 -31.5t-120 -9.5q-34 0 -97 4.5t-144 22.5l10 108q59 -1 102.5 -2.5
t74.5 -2t54 -0.5q40 0 62.5 5t31.5 20t9 43q0 24 -6.5 38.5t-21 23t-39.5 15.5l-140 48q-79 29 -112 76t-33 124q0 60 14.5 97.5t45 58.5t79 29t116.5 8zM294.532 -43.5977q26.3613 0 36.3604 -9.86621t10.9082 -34.7451v-54.9062q0 -33.459 -5.90918 -60.9121
q-5.9082 -27.4531 -15.9072 -50.6162t-24.543 -45.4697l-54.54 15.4434q7.27246 28.3105 9.99902 54.4766q2.72754 26.166 3.63672 56.1934q-38.1787 0 -39.0869 39.4639l1.81738 46.3271q0.90918 24.8789 11.3623 34.7451q10.4541 9.86621 35.9053 9.86621h29.9971z" />
    <glyph glyph-name="uni021A" unicode="&#x21a;" horiz-adv-x="602" 
d="M377 690v-690h-153v690h153zM585 690v-120h-568v120h568zM307.532 -43.5977q26.3613 0 36.3604 -9.86621t10.9082 -34.7451v-54.9062q0 -33.459 -5.90918 -60.9121q-5.9082 -27.4531 -15.9072 -50.6162t-24.543 -45.4697l-54.54 15.4434q7.27246 28.3105 9.99902 54.4766
q2.72754 26.166 3.63672 56.1934q-38.1787 0 -39.0869 39.4639l1.81738 46.3271q0.90918 24.8789 11.3623 34.7451q10.4541 9.86621 35.9053 9.86621h29.9971z" />
    <glyph glyph-name="Tcaron" unicode="&#x164;" horiz-adv-x="602" 
d="M377 690v-690h-153v690h153zM585 690v-120h-568v120h568zM446 928l39 -57l-153 -129h-61l-154 129l40 57l141 -81h8z" />
    <glyph glyph-name="Tbar" unicode="&#x166;" horiz-adv-x="604" 
d="M506 401v-72h-410v72h410zM378 690v-690h-153v690h153zM586 690v-120h-568v120h568z" />
    <glyph glyph-name="uni0162" unicode="&#x162;" horiz-adv-x="602" 
d="M377 690v-690h-153v690h153zM585 690v-120h-568v120h568zM241 -48q51 6 83 3.5t47 -18t14 -50.5q-2 -50 -29 -82.5t-72 -45.5t-100 -6l17 62q37 -1 62.5 12.5t27.5 46.5q2 15 -10.5 18t-53.5 4z" />
    <glyph glyph-name="Thorn" unicode="&#xde;" horiz-adv-x="613" 
d="M331 573q95 0 149.5 -20t77.5 -69t23 -138t-22 -138t-72.5 -68.5t-135.5 -19.5q-46 0 -89.5 4t-81 10t-63.5 13t-37 12l3 76h120.5h124.5q38 1 60 10t31 33t9 68q0 45 -9 69t-31 33.5t-60 9.5q-91 0 -156 -1t-88 -3l-14 110q41 4 77 6t79.5 2.5t104.5 0.5zM223 690v-690
h-153v690h153z" />
    <glyph glyph-name="Ugrave" unicode="&#xd9;" horiz-adv-x="686" 
d="M621 690v-415q0 -105 -26 -168.5t-85.5 -92t-158.5 -28.5q-105 0 -168 28.5t-91 92t-28 168.5v415h153v-415q0 -65 11.5 -101.5t39.5 -51.5t75 -15t74.5 15t39 51.5t11.5 101.5v415h153zM220 945l203 -148l-43 -63l-224 112z" />
    <glyph glyph-name="Uacute" unicode="&#xda;" horiz-adv-x="686" 
d="M621 690v-415q0 -105 -26 -168.5t-85.5 -92t-158.5 -28.5q-105 0 -168 28.5t-91 92t-28 168.5v415h153v-415q0 -65 11.5 -101.5t39.5 -51.5t75 -15t74.5 15t39 51.5t11.5 101.5v415h153zM460 939l64 -100l-223 -111l-44 63z" />
    <glyph glyph-name="Ucircumflex" unicode="&#xdb;" horiz-adv-x="686" 
d="M621 690v-415q0 -105 -26 -168.5t-85.5 -92t-158.5 -28.5q-105 0 -168 28.5t-91 92t-28 168.5v415h153v-415q0 -65 11.5 -101.5t39.5 -51.5t75 -15t74.5 15t39 51.5t11.5 101.5v415h153zM398 913l134 -134l-39 -53l-144 95h-8l-147 -95l-39 57l136 130h107z" />
    <glyph glyph-name="Utilde" unicode="&#x168;" horiz-adv-x="686" 
d="M621 690v-415q0 -105 -26 -168.5t-85.5 -92t-158.5 -28.5q-105 0 -168 28.5t-91 92t-28 168.5v415h153v-415q0 -65 11.5 -101.5t39.5 -51.5t75 -15t74.5 15t39 51.5t11.5 101.5v415h153zM251 900q25 -2 45 -8.5t38.5 -14.5t37 -15.5t38.5 -10.5q26 -4 32.5 7t6.5 37h64
q11 -71 -14 -107.5t-68 -33.5q-34 3 -61.5 13.5t-51 22t-47.5 14.5q-25 3 -31.5 -8t-6.5 -38h-64q-7 50 3 82t32 47t47 13z" />
    <glyph glyph-name="Udieresis" unicode="&#xdc;" horiz-adv-x="686" 
d="M621 690v-415q0 -105 -26 -168.5t-85.5 -92t-158.5 -28.5q-105 0 -168 28.5t-91 92t-28 168.5v415h153v-415q0 -65 11.5 -101.5t39.5 -51.5t75 -15t74.5 15t39 51.5t11.5 101.5v415h153zM459 888q32 0 32 -32v-59q0 -32 -32 -32h-49q-31 0 -31 32v59q0 32 31 32h49z
M276 888q31 0 31 -32v-59q0 -32 -31 -32h-49q-31 0 -31 32v59q0 32 31 32h49z" />
    <glyph glyph-name="Umacron" unicode="&#x16a;" horiz-adv-x="686" 
d="M621 690v-415q0 -105 -26 -168.5t-85.5 -92t-158.5 -28.5q-105 0 -168 28.5t-91 92t-28 168.5v415h153v-415q0 -65 11.5 -101.5t39.5 -51.5t75 -15t74.5 15t39 51.5t11.5 101.5v415h153zM495 873v-94h-300v94h300z" />
    <glyph glyph-name="Ubreve" unicode="&#x16c;" horiz-adv-x="686" 
d="M621 690v-415q0 -105 -26 -168.5t-85.5 -92t-158.5 -28.5q-105 0 -168 28.5t-91 92t-28 168.5v415h153v-415q0 -65 11.5 -101.5t39.5 -51.5t75 -15t74.5 15t39 51.5t11.5 101.5v415h153zM437 903l71 -10q6 -41 -13 -76t-57 -55.5t-94 -20.5q-54 0 -93 20.5t-58 55.5
t-14 76l71 10q0 -33 23 -50t72 -17q47 0 69.5 17t22.5 50z" />
    <glyph glyph-name="Uring" unicode="&#x16e;" horiz-adv-x="686" 
d="M621 690v-415q0 -105 -26 -168.5t-85.5 -92t-158.5 -28.5q-105 0 -168 28.5t-91 92t-28 168.5v415h153v-415q0 -65 11.5 -101.5t39.5 -51.5t75 -15t74.5 15t39 51.5t11.5 101.5v415h153zM345 948q32 0 59 -15.5t43 -41.5t16 -58t-16 -58.5t-43 -42t-59 -15.5t-59.5 15.5
t-43.5 41.5t-16 59q0 32 16 58t43.5 41.5t59.5 15.5zM344 885q-21 0 -36 -14.5t-15 -38.5q0 -23 15 -37.5t36 -14.5q23 0 37.5 14.5t14.5 37.5q0 24 -14.5 38.5t-37.5 14.5z" />
    <glyph glyph-name="Uhungarumlaut" unicode="&#x170;" horiz-adv-x="686" 
d="M621 690v-415q0 -105 -26 -168.5t-85.5 -92t-158.5 -28.5q-105 0 -168 28.5t-91 92t-28 168.5v415h153v-415q0 -65 11.5 -101.5t39.5 -51.5t75 -15t74.5 15t39 51.5t11.5 101.5v415h153zM289 950l96 -64l-152 -168l-61 48zM479 950l95 -64l-152 -168l-60 47z" />
    <glyph glyph-name="Uogonek" unicode="&#x172;" horiz-adv-x="686" 
d="M621 690v-415q0 -105 -26 -168.5t-85.5 -92t-158.5 -28.5q-105 0 -168 28.5t-91 92t-28 168.5v415h153v-415q0 -65 11.5 -101.5t39.5 -51.5t75 -15t74.5 15t39 51.5t11.5 101.5v415h153zM333 -2l60 -2q-17 -23 -32.5 -47t-28.5 -53q-14 -32 6 -40t57 1l11 -53
q-54 -22 -91 -22.5t-58.5 14.5t-27 39t3.5 50q8 25 32 54t68 59z" />
    <glyph glyph-name="Wgrave" unicode="&#x1e80;" horiz-adv-x="976" 
d="M950 690l-113 -648q-3 -18 -18 -30t-36 -12h-143q-20 0 -35.5 12t-18.5 31l-77 449q-3 23 -6 45.5t-6 44.5h-19q-2 -22 -5 -45t-6 -45l-77 -449q-3 -19 -18.5 -31t-35.5 -12h-144q-20 0 -35.5 12t-18.5 30l-113 648h154l72 -480q3 -22 5 -47t4 -53h19q4 24 8.5 50.5
t7.5 49.5l76 433q3 21 18 34t36 13h126q21 0 35.5 -13t17.5 -34l77 -434q4 -24 8 -49.5t7 -49.5h20q2 24 4.5 50t4.5 48l71 482h154zM364 945l203 -148l-43 -63l-224 112z" />
    <glyph glyph-name="Wacute" unicode="&#x1e82;" horiz-adv-x="976" 
d="M950 690l-113 -648q-3 -18 -18 -30t-36 -12h-143q-20 0 -35.5 12t-18.5 31l-77 449q-3 23 -6 45.5t-6 44.5h-19q-2 -22 -5 -45t-6 -45l-77 -449q-3 -19 -18.5 -31t-35.5 -12h-144q-20 0 -35.5 12t-18.5 30l-113 648h154l72 -480q3 -22 5 -47t4 -53h19q4 24 8.5 50.5
t7.5 49.5l76 433q3 21 18 34t36 13h126q21 0 35.5 -13t17.5 -34l77 -434q4 -24 8 -49.5t7 -49.5h20q2 24 4.5 50t4.5 48l71 482h154zM604 939l64 -100l-223 -111l-44 63z" />
    <glyph glyph-name="Wcircumflex" unicode="&#x174;" horiz-adv-x="976" 
d="M950 690l-113 -648q-3 -18 -18 -30t-36 -12h-143q-20 0 -35.5 12t-18.5 31l-77 449q-3 23 -6 45.5t-6 44.5h-19q-2 -22 -5 -45t-6 -45l-77 -449q-3 -19 -18.5 -31t-35.5 -12h-144q-20 0 -35.5 12t-18.5 30l-113 648h154l72 -480q3 -22 5 -47t4 -53h19q4 24 8.5 50.5
t7.5 49.5l76 433q3 21 18 34t36 13h126q21 0 35.5 -13t17.5 -34l77 -434q4 -24 8 -49.5t7 -49.5h20q2 24 4.5 50t4.5 48l71 482h154zM542 913l134 -134l-39 -53l-144 95h-8l-147 -95l-39 57l136 130h107z" />
    <glyph glyph-name="Wdieresis" unicode="&#x1e84;" horiz-adv-x="976" 
d="M950 690l-113 -648q-3 -18 -18 -30t-36 -12h-143q-20 0 -35.5 12t-18.5 31l-77 449q-3 23 -6 45.5t-6 44.5h-19q-2 -22 -5 -45t-6 -45l-77 -449q-3 -19 -18.5 -31t-35.5 -12h-144q-20 0 -35.5 12t-18.5 30l-113 648h154l72 -480q3 -22 5 -47t4 -53h19q4 24 8.5 50.5
t7.5 49.5l76 433q3 21 18 34t36 13h126q21 0 35.5 -13t17.5 -34l77 -434q4 -24 8 -49.5t7 -49.5h20q2 24 4.5 50t4.5 48l71 482h154zM603 887q32 0 32 -32v-59q0 -32 -32 -32h-49q-31 0 -31 32v59q0 32 31 32h49zM420 887q31 0 31 -32v-59q0 -32 -31 -32h-49q-31 0 -31 32
v59q0 32 31 32h49z" />
    <glyph glyph-name="Ygrave" unicode="&#x1ef2;" horiz-adv-x="612" 
d="M611 690l-233 -471h-144l-234 471h159l116 -254q9 -20 15 -43t11 -44h10q6 21 12 44t14 43l115 254h159zM382 312v-312h-153v312h153zM183 940l203 -148l-43 -63l-224 112z" />
    <glyph glyph-name="Yacute" unicode="&#xdd;" horiz-adv-x="612" 
d="M611 690l-233 -471h-144l-234 471h159l116 -254q9 -20 15 -43t11 -44h10q6 21 12 44t14 43l115 254h159zM382 312v-312h-153v312h153zM423 934l64 -100l-223 -111l-44 63z" />
    <glyph glyph-name="Ycircumflex" unicode="&#x176;" horiz-adv-x="612" 
d="M611 690l-233 -471h-144l-234 471h159l116 -254q9 -20 15 -43t11 -44h10q6 21 12 44t14 43l115 254h159zM382 312v-312h-153v312h153zM361 908l134 -134l-39 -53l-144 95h-8l-147 -95l-39 57l136 130h107z" />
    <glyph glyph-name="Ydieresis" unicode="&#x178;" horiz-adv-x="612" 
d="M611 690l-233 -471h-144l-234 471h159l116 -254q9 -20 15 -43t11 -44h10q6 21 12 44t14 43l115 254h159zM382 312v-312h-153v312h153zM422 883q32 0 32 -32v-59q0 -32 -32 -32h-49q-31 0 -31 32v59q0 32 31 32h49zM239 883q31 0 31 -32v-59q0 -32 -31 -32h-49
q-31 0 -31 32v59q0 32 31 32h49z" />
    <glyph glyph-name="Zacute" unicode="&#x179;" horiz-adv-x="586" 
d="M372 577l168 -1l-333 -463l-169 1zM548 114v-114h-510v114h510zM540 690v-114h-494v114h494zM409 939l64 -100l-223 -111l-44 63z" />
    <glyph glyph-name="Zdotaccent" unicode="&#x17b;" horiz-adv-x="586" 
d="M372 577l168 -1l-333 -463l-169 1zM548 114v-114h-510v114h510zM540 690v-114h-494v114h494zM316 891q42 0 42 -41v-52q0 -42 -42 -42h-46q-42 0 -42 42v52q0 41 42 41h46z" />
    <glyph glyph-name="Zcaron" unicode="&#x17d;" horiz-adv-x="586" 
d="M372 577l168 -1l-333 -463l-169 1zM548 114v-114h-510v114h510zM540 690v-114h-494v114h494zM438 928l39 -57l-153 -129h-61l-154 129l40 57l141 -81h8z" />
    <glyph glyph-name="Oslashacute" unicode="&#x1fe;" horiz-adv-x="688" 
d="M500 754l52 -24l-372 -795l-51 24zM344 704q82 0 139 -17.5t91.5 -58t50.5 -110t16 -173.5t-16 -173.5t-50.5 -110t-91.5 -58t-139 -17.5t-139 17.5t-92 58t-51 110t-16 173.5t16 173.5t51 110t92 58t139 17.5zM344 583q-53 0 -82.5 -21t-42 -72.5t-12.5 -144.5
q0 -92 12.5 -144t42 -73t82.5 -21q52 0 81.5 21t42 73t12.5 144q0 93 -12.5 144.5t-42 72.5t-81.5 21zM460 948l64 -99l-224 -112l-43 63z" />
    <glyph glyph-name="Aringacute" unicode="&#x1fa;" horiz-adv-x="653" 
d="M399 630q19 0 33 -11t20 -29l200 -590h-156l-141 447q-5 17 -8.5 34.5t-6.5 33.5h-27q-3 -16 -6.5 -33.5t-8.5 -34.5l-141 -447h-157l201 590q6 18 20 29t33 11h145zM507 276v-114h-361v114h361zM390 1081l62 -98l-209 -97l-42 62zM328 886q32 0 59 -15.5t43 -41.5
t16 -58t-16 -58.5t-43 -41.5t-59 -15t-59 15t-43 41t-16 59q0 32 16 58t43 41.5t59 15.5zM328 824q-22 0 -37 -15t-15 -38q0 -24 15 -38.5t37 -14.5t37 14.5t15 38.5q0 23 -15 38t-37 15z" />
    <glyph glyph-name="AEacute" unicode="&#x1fc;" horiz-adv-x="934" 
d="M572 692q94 0 169 -1.5t153 -7.5l-6 -110h-246q-24 0 -38.5 -14.5t-14.5 -38.5v-352q0 -25 13.5 -38t39.5 -13h246l6 -110q-74 -7 -155.5 -8.5t-161.5 -1.5q-60 0 -95.5 39t-35.5 100v392q0 18 6.5 37t16.5 30h-11q-10 -9 -20.5 -23.5t-19.5 -30.5l-271 -541h-157
l292 558q18 37 40.5 62.5t55 41t79.5 23t115 7.5zM483 304v-111h-330l5 111h325zM457 411l394 -1v-103h-394v104zM684 945l64 -99l-224 -112l-43 63z" />
    <glyph glyph-name="uni018F" unicode="&#x18f;" horiz-adv-x="653" 
d="M326 -12q-100 0 -162.5 27.5t-91.5 78t-29 118.5q-1 91 44 140t130 49h338v-111h-289q-42 0 -58 -24t-15 -56q0 -49 27 -76t98 -27q60 0 89.5 23.5t39.5 74t10 131.5q0 68 -4.5 116t-20 77.5t-47 43t-86.5 13.5q-53 0 -110 -4.5t-112 -12.5l-13 97q34 13 75 21t84 12
t82 4q115 0 180.5 -36.5t93.5 -116t28 -206.5q0 -128 -27 -206.5t-88.5 -114t-165.5 -35.5z" />
    <glyph glyph-name="agrave" unicode="&#xe0;" horiz-adv-x="570" 
d="M321 507q62 0 105 -16.5t65.5 -56t22.5 -108.5v-326h-118l-21 107l-10 15v205q0 35 -16.5 51t-62.5 16q-38 0 -95 -2.5t-117 -6.5l-14 98q36 7 83 12t94 8.5t84 3.5zM453 304l-1 -83l-220 -1q-27 0 -38.5 -13t-11.5 -35v-24q0 -25 14 -38.5t45 -13.5q26 0 56.5 11
t60.5 31t53 47v-64q-9 -15 -26.5 -37.5t-44.5 -44t-63 -36.5t-82 -15q-45 0 -81 16t-57 47t-21 77v51q0 59 40 92t110 33h267zM164 770l203 -148l-43 -63l-224 112z" />
    <glyph glyph-name="aacute" unicode="&#xe1;" horiz-adv-x="570" 
d="M321 507q62 0 105 -16.5t65.5 -56t22.5 -108.5v-326h-118l-21 107l-10 15v205q0 35 -16.5 51t-62.5 16q-38 0 -95 -2.5t-117 -6.5l-14 98q36 7 83 12t94 8.5t84 3.5zM453 304l-1 -83l-220 -1q-27 0 -38.5 -13t-11.5 -35v-24q0 -25 14 -38.5t45 -13.5q26 0 56.5 11
t60.5 31t53 47v-64q-9 -15 -26.5 -37.5t-44.5 -44t-63 -36.5t-82 -15q-45 0 -81 16t-57 47t-21 77v51q0 59 40 92t110 33h267zM404 764l64 -100l-223 -111l-44 63z" />
    <glyph glyph-name="acircumflex" unicode="&#xe2;" horiz-adv-x="570" 
d="M321 507q62 0 105 -16.5t65.5 -56t22.5 -108.5v-326h-118l-21 107l-10 15v205q0 35 -16.5 51t-62.5 16q-38 0 -95 -2.5t-117 -6.5l-14 98q36 7 83 12t94 8.5t84 3.5zM453 304l-1 -83l-220 -1q-27 0 -38.5 -13t-11.5 -35v-24q0 -25 14 -38.5t45 -13.5q26 0 56.5 11
t60.5 31t53 47v-64q-9 -15 -26.5 -37.5t-44.5 -44t-63 -36.5t-82 -15q-45 0 -81 16t-57 47t-21 77v51q0 59 40 92t110 33h267zM343 738l134 -134l-39 -53l-144 95h-8l-147 -95l-39 57l136 130h107z" />
    <glyph glyph-name="atilde" unicode="&#xe3;" horiz-adv-x="570" 
d="M321 507q62 0 105 -16.5t65.5 -56t22.5 -108.5v-326h-118l-21 107l-10 15v205q0 35 -16.5 51t-62.5 16q-38 0 -95 -2.5t-117 -6.5l-14 98q36 7 83 12t94 8.5t84 3.5zM453 304l-1 -83l-220 -1q-27 0 -38.5 -13t-11.5 -35v-24q0 -25 14 -38.5t45 -13.5q26 0 56.5 11
t60.5 31t53 47v-64q-9 -15 -26.5 -37.5t-44.5 -44t-63 -36.5t-82 -15q-45 0 -81 16t-57 47t-21 77v51q0 59 40 92t110 33h267zM195 725q25 -2 45 -8.5t38.5 -14.5t37 -15.5t38.5 -10.5q26 -4 32.5 7t6.5 37h64q11 -71 -14 -107.5t-68 -33.5q-34 3 -61.5 13.5t-51 22
t-47.5 14.5q-25 3 -31.5 -8t-6.5 -38h-64q-7 50 3 82t32 47t47 13z" />
    <glyph glyph-name="adieresis" unicode="&#xe4;" horiz-adv-x="570" 
d="M321 507q62 0 105 -16.5t65.5 -56t22.5 -108.5v-326h-118l-21 107l-10 15v205q0 35 -16.5 51t-62.5 16q-38 0 -95 -2.5t-117 -6.5l-14 98q36 7 83 12t94 8.5t84 3.5zM453 304l-1 -83l-220 -1q-27 0 -38.5 -13t-11.5 -35v-24q0 -25 14 -38.5t45 -13.5q26 0 56.5 11
t60.5 31t53 47v-64q-9 -15 -26.5 -37.5t-44.5 -44t-63 -36.5t-82 -15q-45 0 -81 16t-57 47t-21 77v51q0 59 40 92t110 33h267zM403 713q32 0 32 -32v-59q0 -32 -32 -32h-49q-31 0 -31 32v59q0 32 31 32h49zM220 713q31 0 31 -32v-59q0 -32 -31 -32h-49q-31 0 -31 32v59
q0 32 31 32h49z" />
    <glyph glyph-name="aring" unicode="&#xe5;" horiz-adv-x="570" 
d="M321 507q62 0 105 -16.5t65.5 -56t22.5 -108.5v-326h-118l-21 107l-10 15v205q0 35 -16.5 51t-62.5 16q-38 0 -95 -2.5t-117 -6.5l-14 98q36 7 83 12t94 8.5t84 3.5zM453 304l-1 -83l-220 -1q-27 0 -38.5 -13t-11.5 -35v-24q0 -25 14 -38.5t45 -13.5q26 0 56.5 11
t60.5 31t53 47v-64q-9 -15 -26.5 -37.5t-44.5 -44t-63 -36.5t-82 -15q-45 0 -81 16t-57 47t-21 77v51q0 59 40 92t110 33h267zM289 773q32 0 59 -15.5t43 -41.5t16 -58t-16 -58.5t-43 -42t-59 -15.5t-59.5 15.5t-43.5 41.5t-16 59q0 32 16 58t43.5 41.5t59.5 15.5zM288 710
q-21 0 -36 -14.5t-15 -38.5q0 -23 15 -37.5t36 -14.5q23 0 37.5 14.5t14.5 37.5q0 24 -14.5 38.5t-37.5 14.5z" />
    <glyph glyph-name="amacron" unicode="&#x101;" horiz-adv-x="570" 
d="M321 507q62 0 105 -16.5t65.5 -56t22.5 -108.5v-326h-118l-21 107l-10 15v205q0 35 -16.5 51t-62.5 16q-38 0 -95 -2.5t-117 -6.5l-14 98q36 7 83 12t94 8.5t84 3.5zM453 304l-1 -83l-220 -1q-27 0 -38.5 -13t-11.5 -35v-24q0 -25 14 -38.5t45 -13.5q26 0 56.5 11
t60.5 31t53 47v-64q-9 -15 -26.5 -37.5t-44.5 -44t-63 -36.5t-82 -15q-45 0 -81 16t-57 47t-21 77v51q0 59 40 92t110 33h267zM439 697v-94h-300v94h300z" />
    <glyph glyph-name="abreve" unicode="&#x103;" horiz-adv-x="570" 
d="M321 507q62 0 105 -16.5t65.5 -56t22.5 -108.5v-326h-118l-21 107l-10 15v205q0 35 -16.5 51t-62.5 16q-38 0 -95 -2.5t-117 -6.5l-14 98q36 7 83 12t94 8.5t84 3.5zM453 304l-1 -83l-220 -1q-27 0 -38.5 -13t-11.5 -35v-24q0 -25 14 -38.5t45 -13.5q26 0 56.5 11
t60.5 31t53 47v-64q-9 -15 -26.5 -37.5t-44.5 -44t-63 -36.5t-82 -15q-45 0 -81 16t-57 47t-21 77v51q0 59 40 92t110 33h267zM381 728l71 -10q6 -41 -13 -76t-57 -55.5t-94 -20.5q-54 0 -93 20.5t-58 55.5t-14 76l71 10q0 -33 23 -50t72 -17q47 0 69.5 17t22.5 50z" />
    <glyph glyph-name="aogonek" unicode="&#x105;" horiz-adv-x="570" 
d="M321 507q62 0 105 -16.5t65.5 -56t22.5 -108.5v-326h-118l-21 107l-10 15v205q0 35 -16.5 51t-62.5 16q-38 0 -95 -2.5t-117 -6.5l-14 98q36 7 83 12t94 8.5t84 3.5zM453 304l-1 -83l-220 -1q-27 0 -38.5 -13t-11.5 -35v-24q0 -25 14 -38.5t45 -13.5q26 0 56.5 11
t60.5 31t53 47v-64q-9 -15 -26.5 -37.5t-44.5 -44t-63 -36.5t-82 -15q-45 0 -81 16t-57 47t-21 77v51q0 59 40 92t110 33h267zM453 2l60 -2q-17 -23 -32.5 -47t-28.5 -53q-14 -32 6 -40t57 1l11 -53q-54 -22 -91 -22.5t-58.5 14.5t-27 39t3.5 50q8 25 32 54t68 59z" />
    <glyph glyph-name="ae" unicode="&#xe6;" horiz-adv-x="879" 
d="M611 507q125 0 178.5 -42.5t54.5 -126.5q0 -46 -15.5 -76t-50.5 -44.5t-95 -14.5h-266v83h226q35 0 46 14t11 41q0 34 -19.5 48t-64.5 14q-42 0 -65 -11t-32 -42t-9 -90q0 -62 11 -95.5t37.5 -46.5t74.5 -13q34 0 83.5 2.5t100.5 8.5l14 -91q-29 -14 -65 -22t-74.5 -11.5
t-75.5 -3.5q-93 0 -149.5 27.5t-81.5 84.5t-25 146q0 97 25 154t80.5 82t145.5 25zM449 302l-1 -82h-217q-26 0 -37.5 -13t-11.5 -35v-24q0 -25 14 -38.5t43 -13.5q26 0 56.5 11t60.5 31.5t53 47.5l5 -68q-9 -16 -27 -37.5t-45 -42.5t-64 -35.5t-85 -14.5q-44 0 -80 16
t-56.5 47t-20.5 77v51q0 57 39.5 90t108.5 33h265zM318 507q62 0 104.5 -16.5t64.5 -56t22 -108.5v-94h-149v95q0 35 -16.5 51t-60.5 16q-38 0 -94.5 -2.5t-115.5 -6.5l-13 98q35 7 81 12t93 8.5t84 3.5z" />
    <glyph glyph-name="ccedilla" unicode="&#xe7;" horiz-adv-x="509" 
d="M290 507q27 0 59 -2.5t64.5 -9t59.5 -18.5l-16 -93q-40 1 -76.5 2t-65.5 1q-45 0 -71 -12t-37.5 -42.5t-11.5 -84.5q0 -55 11.5 -86t37.5 -43t71 -12q16 0 41 1t54 2.5t57 5.5l14 -94q-40 -18 -91 -26t-101 -8q-92 0 -146.5 25.5t-78.5 82.5t-24 152t24.5 152t79.5 82
t146 25zM221 -53q51 6 83 3.5t47 -18t14 -50.5q-2 -50 -29 -82.5t-72 -45.5t-100 -6l17 62q37 -1 62.5 12.5t27.5 46.5q2 15 -10.5 18t-53.5 4z" />
    <glyph glyph-name="cacute" unicode="&#x107;" horiz-adv-x="509" 
d="M290 507q27 0 59 -2.5t64.5 -9t59.5 -18.5l-16 -93q-40 1 -76.5 2t-65.5 1q-45 0 -71 -12t-37.5 -42.5t-11.5 -84.5q0 -55 11.5 -86t37.5 -43t71 -12q16 0 41 1t54 2.5t57 5.5l14 -94q-40 -18 -91 -26t-101 -8q-92 0 -146.5 25.5t-78.5 82.5t-24 152t24.5 152t79.5 82
t146 25zM396 760l64 -100l-223 -111l-44 63z" />
    <glyph glyph-name="ccircumflex" unicode="&#x109;" horiz-adv-x="509" 
d="M290 507q27 0 59 -2.5t64.5 -9t59.5 -18.5l-16 -93q-40 1 -76.5 2t-65.5 1q-45 0 -71 -12t-37.5 -42.5t-11.5 -84.5q0 -55 11.5 -86t37.5 -43t71 -12q16 0 41 1t54 2.5t57 5.5l14 -94q-40 -18 -91 -26t-101 -8q-92 0 -146.5 25.5t-78.5 82.5t-24 152t24.5 152t79.5 82
t146 25zM334 734l134 -134l-39 -53l-144 95h-8l-147 -95l-39 57l136 130h107z" />
    <glyph glyph-name="cdotaccent" unicode="&#x10b;" horiz-adv-x="509" 
d="M290 507q27 0 59 -2.5t64.5 -9t59.5 -18.5l-16 -93q-40 1 -76.5 2t-65.5 1q-45 0 -71 -12t-37.5 -42.5t-11.5 -84.5q0 -55 11.5 -86t37.5 -43t71 -12q16 0 41 1t54 2.5t57 5.5l14 -94q-40 -18 -91 -26t-101 -8q-92 0 -146.5 25.5t-78.5 82.5t-24 152t24.5 152t79.5 82
t146 25zM304 712q42 0 42 -41v-52q0 -42 -42 -42h-46q-42 0 -42 42v52q0 41 42 41h46z" />
    <glyph glyph-name="ccaron" unicode="&#x10d;" horiz-adv-x="509" 
d="M290 507q27 0 59 -2.5t64.5 -9t59.5 -18.5l-16 -93q-40 1 -76.5 2t-65.5 1q-45 0 -71 -12t-37.5 -42.5t-11.5 -84.5q0 -55 11.5 -86t37.5 -43t71 -12q16 0 41 1t54 2.5t57 5.5l14 -94q-40 -18 -91 -26t-101 -8q-92 0 -146.5 25.5t-78.5 82.5t-24 152t24.5 152t79.5 82
t146 25zM425 749l39 -57l-153 -129h-61l-154 129l40 57l141 -81h8z" />
    <glyph glyph-name="dcaron" unicode="&#x10f;" horiz-adv-x="597" 
d="M229 507q52 0 100.5 -15t85.5 -49l-10 -68q-34 10 -61 18t-63 8q-31 0 -50 -11t-28 -43t-9 -95q0 -59 8.5 -89.5t27 -42t47.5 -11.5q26 0 45 5.5t38 17t43 28.5l11 -73q-30 -42 -78 -70.5t-118 -28.5q-95 0 -135.5 68t-40.5 195q0 99 20.5 154.5t62.5 78.5t104 23z
M536 700v-700h-117l-15 91l-16 11v324l6 13q-3 31 -4.5 62.5t-1.5 64.5v134h148zM653 705q24 0 33 -9.5t9 -33.5v-54q1 -48 -10.5 -83t-30.5 -68l-50 15q7 27 9 52.5t3 54.5q-36 0 -35 38l1 45q1 24 10.5 33.5t32.5 9.5h28z" />
    <glyph glyph-name="dcroat" unicode="&#x111;" horiz-adv-x="593" 
d="M597 627v-67h-339v67h339zM229 507q52 0 100.5 -15t85.5 -49l-10 -68q-34 10 -61 18t-63 8q-31 0 -50 -11t-28 -43t-9 -95q0 -59 8.5 -89.5t27 -42t47.5 -11.5q26 0 45 5.5t38 17t43 28.5l11 -73q-30 -42 -78 -70.5t-118 -28.5q-95 0 -135.5 68t-40.5 195
q0 99 20.5 154.5t62.5 78.5t104 23zM536 700v-700h-117l-15 91l-16 11v324l6 13q-3 31 -4.5 62.5t-1.5 64.5v134h148z" />
    <glyph glyph-name="eth" unicode="&#xf0;" horiz-adv-x="582" 
d="M138 698q72 5 133.5 -9.5t110.5 -46.5t83 -82.5t52.5 -118.5t18.5 -154q0 -77 -13 -133.5t-42 -93.5t-77 -55.5t-118 -18.5q-126 0 -185.5 55.5t-59.5 174.5q0 78 21 130t68 78.5t126 26.5q26 0 59.5 -5t65.5 -21t55 -49l-8 -60q-29 14 -64 21t-76 7q-34 0 -54 -12
t-29 -39.5t-9 -74.5q0 -70 21 -96.5t71 -26.5q41 0 60.5 19t26 62t6.5 113q0 77 -10.5 132.5t-31 92t-51.5 56.5t-72 27.5t-92 4.5zM423 723l41 -50l-222 -184l-43 50z" />
    <glyph glyph-name="egrave" unicode="&#xe8;" horiz-adv-x="564" 
d="M294 507q125 0 179.5 -42.5t54.5 -126.5q1 -68 -34 -101.5t-121 -33.5h-276v83h235q34 0 43.5 14.5t9.5 40.5q-1 35 -20.5 48.5t-65.5 13.5q-41 0 -64 -11t-32 -42t-9 -90q0 -62 11 -95.5t37.5 -46.5t73.5 -13q34 0 84.5 2.5t101.5 8.5l14 -91q-29 -14 -66 -22t-76 -11.5
t-75 -3.5q-94 0 -151.5 27.5t-83 84.5t-25.5 146q0 97 26 154t82 82t147 25zM172 766l203 -148l-43 -63l-224 112z" />
    <glyph glyph-name="eacute" unicode="&#xe9;" horiz-adv-x="564" 
d="M294 507q125 0 179.5 -42.5t54.5 -126.5q1 -68 -34 -101.5t-121 -33.5h-276v83h235q34 0 43.5 14.5t9.5 40.5q-1 35 -20.5 48.5t-65.5 13.5q-41 0 -64 -11t-32 -42t-9 -90q0 -62 11 -95.5t37.5 -46.5t73.5 -13q34 0 84.5 2.5t101.5 8.5l14 -91q-29 -14 -66 -22t-76 -11.5
t-75 -3.5q-94 0 -151.5 27.5t-83 84.5t-25.5 146q0 97 26 154t82 82t147 25zM413 760l64 -100l-223 -111l-44 63z" />
    <glyph glyph-name="ecircumflex" unicode="&#xea;" horiz-adv-x="564" 
d="M294 507q125 0 179.5 -42.5t54.5 -126.5q1 -68 -34 -101.5t-121 -33.5h-276v83h235q34 0 43.5 14.5t9.5 40.5q-1 35 -20.5 48.5t-65.5 13.5q-41 0 -64 -11t-32 -42t-9 -90q0 -62 11 -95.5t37.5 -46.5t73.5 -13q34 0 84.5 2.5t101.5 8.5l14 -91q-29 -14 -66 -22t-76 -11.5
t-75 -3.5q-94 0 -151.5 27.5t-83 84.5t-25.5 146q0 97 26 154t82 82t147 25zM351 734l134 -134l-39 -53l-144 95h-8l-147 -95l-39 57l136 130h107z" />
    <glyph glyph-name="edieresis" unicode="&#xeb;" horiz-adv-x="564" 
d="M294 507q125 0 179.5 -42.5t54.5 -126.5q1 -68 -34 -101.5t-121 -33.5h-276v83h235q34 0 43.5 14.5t9.5 40.5q-1 35 -20.5 48.5t-65.5 13.5q-41 0 -64 -11t-32 -42t-9 -90q0 -62 11 -95.5t37.5 -46.5t73.5 -13q34 0 84.5 2.5t101.5 8.5l14 -91q-29 -14 -66 -22t-76 -11.5
t-75 -3.5q-94 0 -151.5 27.5t-83 84.5t-25.5 146q0 97 26 154t82 82t147 25zM412 709q32 0 32 -32v-59q0 -32 -32 -32h-49q-31 0 -31 32v59q0 32 31 32h49zM229 709q31 0 31 -32v-59q0 -32 -31 -32h-49q-31 0 -31 32v59q0 32 31 32h49z" />
    <glyph glyph-name="emacron" unicode="&#x113;" horiz-adv-x="564" 
d="M294 507q125 0 179.5 -42.5t54.5 -126.5q1 -68 -34 -101.5t-121 -33.5h-276v83h235q34 0 43.5 14.5t9.5 40.5q-1 35 -20.5 48.5t-65.5 13.5q-41 0 -64 -11t-32 -42t-9 -90q0 -62 11 -95.5t37.5 -46.5t73.5 -13q34 0 84.5 2.5t101.5 8.5l14 -91q-29 -14 -66 -22t-76 -11.5
t-75 -3.5q-94 0 -151.5 27.5t-83 84.5t-25.5 146q0 97 26 154t82 82t147 25zM447 693v-94h-300v94h300z" />
    <glyph glyph-name="ebreve" unicode="&#x115;" horiz-adv-x="564" 
d="M294 507q125 0 179.5 -42.5t54.5 -126.5q1 -68 -34 -101.5t-121 -33.5h-276v83h235q34 0 43.5 14.5t9.5 40.5q-1 35 -20.5 48.5t-65.5 13.5q-41 0 -64 -11t-32 -42t-9 -90q0 -62 11 -95.5t37.5 -46.5t73.5 -13q34 0 84.5 2.5t101.5 8.5l14 -91q-29 -14 -66 -22t-76 -11.5
t-75 -3.5q-94 0 -151.5 27.5t-83 84.5t-25.5 146q0 97 26 154t82 82t147 25zM390 724l71 -10q6 -41 -13 -76t-57 -55.5t-94 -20.5q-54 0 -93 20.5t-58 55.5t-14 76l71 10q0 -33 23 -50t72 -17q47 0 69.5 17t22.5 50z" />
    <glyph glyph-name="edotaccent" unicode="&#x117;" horiz-adv-x="564" 
d="M294 507q125 0 179.5 -42.5t54.5 -126.5q1 -68 -34 -101.5t-121 -33.5h-276v83h235q34 0 43.5 14.5t9.5 40.5q-1 35 -20.5 48.5t-65.5 13.5q-41 0 -64 -11t-32 -42t-9 -90q0 -62 11 -95.5t37.5 -46.5t73.5 -13q34 0 84.5 2.5t101.5 8.5l14 -91q-29 -14 -66 -22t-76 -11.5
t-75 -3.5q-94 0 -151.5 27.5t-83 84.5t-25.5 146q0 97 26 154t82 82t147 25zM320 711q42 0 42 -41v-52q0 -42 -42 -42h-46q-42 0 -42 42v52q0 41 42 41h46z" />
    <glyph glyph-name="eogonek" unicode="&#x119;" horiz-adv-x="564" 
d="M294 507q125 0 179.5 -42.5t54.5 -126.5q1 -68 -34 -101.5t-121 -33.5h-276v83h235q34 0 43.5 14.5t9.5 40.5q-1 35 -20.5 48.5t-65.5 13.5q-41 0 -64 -11t-32 -42t-9 -90q0 -62 11 -95.5t37.5 -46.5t73.5 -13q34 0 84.5 2.5t101.5 8.5l14 -91q-29 -14 -66 -22t-76 -11.5
t-75 -3.5q-94 0 -151.5 27.5t-83 84.5t-25.5 146q0 97 26 154t82 82t147 25zM456 27l60 -2q-17 -23 -32.5 -47t-28.5 -53q-14 -32 6 -40t57 1l11 -53q-54 -22 -91 -22.5t-58.5 14.5t-27 39t3.5 50q8 25 32 54t68 59z" />
    <glyph glyph-name="ecaron" unicode="&#x11b;" horiz-adv-x="564" 
d="M294 507q125 0 179.5 -42.5t54.5 -126.5q1 -68 -34 -101.5t-121 -33.5h-276v83h235q34 0 43.5 14.5t9.5 40.5q-1 35 -20.5 48.5t-65.5 13.5q-41 0 -64 -11t-32 -42t-9 -90q0 -62 11 -95.5t37.5 -46.5t73.5 -13q34 0 84.5 2.5t101.5 8.5l14 -91q-29 -14 -66 -22t-76 -11.5
t-75 -3.5q-94 0 -151.5 27.5t-83 84.5t-25.5 146q0 97 26 154t82 82t147 25zM442 748l39 -57l-153 -129h-61l-154 129l40 57l141 -81h8z" />
    <glyph glyph-name="gcircumflex" unicode="&#x11d;" horiz-adv-x="581" 
d="M280 507q86 0 136.5 -16t73 -50t22.5 -91q0 -55 -22 -89.5t-73.5 -50.5t-137.5 -16t-137.5 16t-74 50t-22.5 90t22.5 90.5t74.5 50.5t138 16zM279 416q-55 0 -76 -14.5t-21 -51.5t21 -52t76 -15t75 15t20 52t-20 51.5t-75 14.5zM569 494l-8 -63l-132 -17l-36 80h176z
M130 224l74 -13q-14 -8 -19.5 -25t2.5 -32t35 -18l182 -21q78 -8 110 -43.5t32 -103.5q0 -64 -26 -98.5t-83 -47.5t-152 -13q-78 0 -128.5 7.5t-80 24.5t-41 44.5t-11.5 68.5q0 31 11 53.5t37.5 40.5t74.5 33l73 26l53 -21l-40 -26q-25 -18 -40.5 -30.5t-22 -24.5t-6.5 -32
q0 -23 10 -35.5t36.5 -17t72.5 -4.5q48 0 75 4.5t37.5 16.5t10.5 34q0 19 -7.5 28t-25 13.5t-48.5 8.5l-155 17q-39 4 -61 21t-30.5 41.5t-4.5 49.5t18.5 45t37.5 29zM336 729l134 -134l-39 -53l-144 95h-8l-147 -95l-39 57l136 130h107z" />
    <glyph glyph-name="gbreve" unicode="&#x11f;" horiz-adv-x="581" 
d="M280 507q86 0 136.5 -16t73 -50t22.5 -91q0 -55 -22 -89.5t-73.5 -50.5t-137.5 -16t-137.5 16t-74 50t-22.5 90t22.5 90.5t74.5 50.5t138 16zM279 416q-55 0 -76 -14.5t-21 -51.5t21 -52t76 -15t75 15t20 52t-20 51.5t-75 14.5zM569 494l-8 -63l-132 -17l-36 80h176z
M130 224l74 -13q-14 -8 -19.5 -25t2.5 -32t35 -18l182 -21q78 -8 110 -43.5t32 -103.5q0 -64 -26 -98.5t-83 -47.5t-152 -13q-78 0 -128.5 7.5t-80 24.5t-41 44.5t-11.5 68.5q0 31 11 53.5t37.5 40.5t74.5 33l73 26l53 -21l-40 -26q-25 -18 -40.5 -30.5t-22 -24.5t-6.5 -32
q0 -23 10 -35.5t36.5 -17t72.5 -4.5q48 0 75 4.5t37.5 16.5t10.5 34q0 19 -7.5 28t-25 13.5t-48.5 8.5l-155 17q-39 4 -61 21t-30.5 41.5t-4.5 49.5t18.5 45t37.5 29zM375 720l71 -10q6 -41 -13 -76t-57 -55.5t-94 -20.5q-54 0 -93 20.5t-58 55.5t-14 76l71 10q0 -33 23 -50
t72 -17q47 0 69.5 17t22.5 50z" />
    <glyph glyph-name="gdotaccent" unicode="&#x121;" horiz-adv-x="581" 
d="M280 507q86 0 136.5 -16t73 -50t22.5 -91q0 -55 -22 -89.5t-73.5 -50.5t-137.5 -16t-137.5 16t-74 50t-22.5 90t22.5 90.5t74.5 50.5t138 16zM279 416q-55 0 -76 -14.5t-21 -51.5t21 -52t76 -15t75 15t20 52t-20 51.5t-75 14.5zM569 494l-8 -63l-132 -17l-36 80h176z
M130 224l74 -13q-14 -8 -19.5 -25t2.5 -32t35 -18l182 -21q78 -8 110 -43.5t32 -103.5q0 -64 -26 -98.5t-83 -47.5t-152 -13q-78 0 -128.5 7.5t-80 24.5t-41 44.5t-11.5 68.5q0 31 11 53.5t37.5 40.5t74.5 33l73 26l53 -21l-40 -26q-25 -18 -40.5 -30.5t-22 -24.5t-6.5 -32
q0 -23 10 -35.5t36.5 -17t72.5 -4.5q48 0 75 4.5t37.5 16.5t10.5 34q0 19 -7.5 28t-25 13.5t-48.5 8.5l-155 17q-39 4 -61 21t-30.5 41.5t-4.5 49.5t18.5 45t37.5 29zM306 706q42 0 42 -41v-52q0 -42 -42 -42h-46q-42 0 -42 42v52q0 41 42 41h46z" />
    <glyph glyph-name="uni0123" unicode="&#x123;" horiz-adv-x="581" 
d="M280 507q86 0 136.5 -16t73 -50t22.5 -91q0 -55 -22 -89.5t-73.5 -50.5t-137.5 -16t-137.5 16t-74 50t-22.5 90t22.5 90.5t74.5 50.5t138 16zM279 416q-55 0 -76 -14.5t-21 -51.5t21 -52t76 -15t75 15t20 52t-20 51.5t-75 14.5zM569 494l-8 -63l-132 -17l-36 80h176z
M130 224l74 -13q-14 -8 -19.5 -25t2.5 -32t35 -18l182 -21q78 -8 110 -43.5t32 -103.5q0 -64 -26 -98.5t-83 -47.5t-152 -13q-78 0 -128.5 7.5t-80 24.5t-41 44.5t-11.5 68.5q0 31 11 53.5t37.5 40.5t74.5 33l73 26l53 -21l-40 -26q-25 -18 -40.5 -30.5t-22 -24.5t-6.5 -32
q0 -23 10 -35.5t36.5 -17t72.5 -4.5q48 0 75 4.5t37.5 16.5t10.5 34q0 19 -7.5 28t-25 13.5t-48.5 8.5l-155 17q-39 4 -61 21t-30.5 41.5t-4.5 49.5t18.5 45t37.5 29zM278.468 542.598q-26.3613 0 -36.3604 9.86621t-10.9082 34.7451v54.9062q0 33.459 5.90918 60.9121
q5.9082 27.4531 15.9072 50.6162t24.543 45.4697l54.54 -15.4434q-7.27246 -28.3105 -9.99902 -54.4766q-2.72754 -26.166 -3.63672 -56.1934q38.1787 0 39.0869 -39.4639l-1.81738 -46.3271q-0.90918 -24.8789 -11.3623 -34.7451q-10.4541 -9.86621 -35.9053 -9.86621
h-29.9971z" />
    <glyph glyph-name="hcircumflex" unicode="&#x125;" horiz-adv-x="601" 
d="M404 507q140 0 140 -137v-370h-149v324q0 33 -11.5 45.5t-40.5 12.5q-32 0 -66 -12t-84 -39l-13 77q55 48 112 73.5t112 25.5zM208 700l1 -171q0 -39 -4.5 -74t-10.5 -59l14 -13v-383h-148v700h148zM188 889l134 -134l-39 -53l-144 95h-8l-147 -95l-39 57l136 130h107z
" />
    <glyph glyph-name="hbar" unicode="&#x127;" horiz-adv-x="605" 
d="M338 627v-67h-340v67h340zM407 507q140 0 140 -137v-370h-148v324q0 33 -12 45.5t-41 12.5q-31 0 -65.5 -12t-84.5 -39l-13 77q55 48 112.5 73.5t111.5 25.5zM212 700l1 -171q0 -39 -4.5 -74t-11.5 -59l15 -13v-383h-148v700h148z" />
    <glyph glyph-name="igrave" unicode="&#xec;" horiz-adv-x="277" 
d="M213 494v-494h-149v494h149zM13 766l203 -148l-43 -63l-224 112z" />
    <glyph glyph-name="iacute" unicode="&#xed;" horiz-adv-x="277" 
d="M213 494v-494h-149v494h149zM254 760l64 -100l-223 -111l-44 63z" />
    <glyph glyph-name="icircumflex" unicode="&#xee;" horiz-adv-x="277" 
d="M213 494v-494h-149v494h149zM191 734l134 -134l-39 -53l-144 95h-8l-147 -95l-39 57l136 130h107z" />
    <glyph glyph-name="itilde" unicode="&#x129;" horiz-adv-x="277" 
d="M213 494v-494h-149v494h149zM44 722q25 -2 45 -8.5t38.5 -14.5t37 -15.5t38.5 -10.5q26 -4 32.5 7t6.5 37h64q11 -71 -14 -107.5t-68 -33.5q-34 3 -61.5 13.5t-51 22t-47.5 14.5q-25 3 -31.5 -8t-6.5 -38h-64q-7 50 3 82t32 47t47 13z" />
    <glyph glyph-name="idieresis" unicode="&#xef;" horiz-adv-x="277" 
d="M213 494v-494h-149v494h149zM252 709q32 0 32 -32v-59q0 -32 -32 -32h-49q-31 0 -31 32v59q0 32 31 32h49zM69 709q31 0 31 -32v-59q0 -32 -31 -32h-49q-31 0 -31 32v59q0 32 31 32h49z" />
    <glyph glyph-name="imacron" unicode="&#x12b;" horiz-adv-x="277" 
d="M213 494v-494h-149v494h149zM288 694v-94h-300v94h300z" />
    <glyph glyph-name="ibreve" unicode="&#x12d;" horiz-adv-x="277" 
d="M213 494v-494h-149v494h149zM230 725l71 -10q6 -41 -13 -76t-57 -55.5t-94 -20.5q-54 0 -93 20.5t-58 55.5t-14 76l71 10q0 -33 23 -50t72 -17q47 0 69.5 17t22.5 50z" />
    <glyph glyph-name="iogonek" unicode="&#x12f;" horiz-adv-x="277" 
d="M213 494v-494h-149v494h149zM161 712q42 0 42 -41v-52q0 -42 -42 -42h-46q-42 0 -42 42v52q0 41 42 41h46zM140 2l60 -2q-17 -23 -32.5 -47t-28.5 -53q-14 -32 6 -40t57 1l11 -53q-54 -22 -91 -22.5t-58.5 14.5t-27 39t3.5 50q8 25 32 54t68 59z" />
    <glyph glyph-name="ij" unicode="&#x133;" horiz-adv-x="553" 
d="M211 494v-494h-147v494h147zM170 712q44 0 44 -45v-53q0 -45 -44 -45h-64q-44 0 -44 45v53q0 45 44 45h64zM489 494v-471q0 -45 -15.5 -87.5t-44 -76.5t-68.5 -55l-82 64q34 38 48 74t14 81v471h148zM446 717q43 0 43 -44v-54q0 -45 -43 -45h-65q-43 0 -43 45v54
q0 44 43 44h65z" />
    <glyph glyph-name="jcircumflex" unicode="&#x135;" horiz-adv-x="277" 
d="M213 494v-471q0 -45 -15.5 -87.5t-44 -76.5t-68.5 -55l-82 64q34 38 48 74t14 81v471h148zM192 734l134 -134l-39 -53l-144 95h-8l-147 -95l-39 57l136 130h107z" />
    <glyph glyph-name="uni0137" unicode="&#x137;" horiz-adv-x="559" 
d="M538 494l-129 -172q-9 -14 -23 -27t-23 -19v-4q9 -5 23 -21t23 -32l146 -219h-165l-169 278l152 216h165zM208 700l1 -289q0 -35 -4 -68t-12 -65q7 -31 11 -63.5t4 -60.5v-154h-148v700h148zM277 320v-90h-115v90h115zM306.532 -38.5977q26.3613 0 36.3604 -9.86621
t10.9082 -34.7451v-54.9062q0 -33.459 -5.90918 -60.9121q-5.9082 -27.4531 -15.9072 -50.6162t-24.543 -45.4697l-54.54 15.4434q7.27246 28.3105 9.99902 54.4766q2.72754 26.166 3.63672 56.1934q-38.1787 0 -39.0869 39.4639l1.81738 46.3271
q0.90918 24.8789 11.3623 34.7451q10.4541 9.86621 35.9053 9.86621h29.9971z" />
    <glyph glyph-name="lacute" unicode="&#x13a;" horiz-adv-x="328" 
d="M209 700l-1 -542q0 -25 15 -37.5t44 -12.5h40l17 -100q-12 -6 -34 -10.5t-45 -7t-39 -2.5q-67 0 -106 35t-39 98v579h148zM251 946l64 -100l-223 -111l-44 63z" />
    <glyph glyph-name="uni013C" unicode="&#x13c;" horiz-adv-x="328" 
d="M209 700l-1 -542q0 -25 15 -37.5t44 -12.5h40l17 -100q-12 -6 -34 -10.5t-45 -7t-39 -2.5q-67 0 -106 35t-39 98v579h148zM197.532 -44.5977q26.3613 0 36.3604 -9.86621t10.9082 -34.7451v-54.9062q0 -33.459 -5.90918 -60.9121q-5.9082 -27.4531 -15.9072 -50.6162
t-24.543 -45.4697l-54.54 15.4434q7.27246 28.3105 9.99902 54.4766q2.72754 26.166 3.63672 56.1934q-38.1787 0 -39.0869 39.4639l1.81738 46.3271q0.90918 24.8789 11.3623 34.7451q10.4541 9.86621 35.9053 9.86621h29.9971z" />
    <glyph glyph-name="lcaron" unicode="&#x13e;" horiz-adv-x="328" 
d="M209 700l-1 -542q0 -25 15 -37.5t44 -12.5h40l17 -100q-12 -6 -34 -10.5t-45 -7t-39 -2.5q-67 0 -106 35t-39 98v579h148zM329 703q24 0 33 -9.5t9 -33.5v-54q1 -48 -10.5 -83t-30.5 -68l-50 15q7 27 9 52.5t3 54.5q-36 0 -35 38l1 45q1 24 10.5 33.5t32.5 9.5h28z" />
    <glyph glyph-name="ldot" unicode="&#x140;" horiz-adv-x="399" 
d="M309 323q-42 0 -42 41v52q0 42 42 42h46q42 0 42 -42v-52q0 -41 -42 -41h-46zM209 700l-1 -542q0 -25 15 -37.5t44 -12.5h40l17 -100q-12 -6 -34 -10.5t-45 -7t-39 -2.5q-67 0 -106 35t-39 98v579h148z" />
    <glyph glyph-name="lslash" unicode="&#x142;" horiz-adv-x="359" 
d="M330 487v-80l-318 -127v80zM234 700v-542q0 -25 15 -37.5t43 -12.5h41l16 -100q-12 -6 -34 -10.5t-45 -7t-39 -2.5q-67 0 -105.5 35t-38.5 98v579h147z" />
    <glyph glyph-name="ntilde" unicode="&#xf1;" horiz-adv-x="601" 
d="M404 507q140 0 140 -137v-370h-148v324q0 33 -12 45.5t-41 12.5q-32 0 -66 -12.5t-84 -38.5l-7 83q53 45 108.5 69t109.5 24zM179 494l17 -98l12 -13v-383h-148v494h119zM214 721q25 -2 45 -8.5t38.5 -14.5t37 -15.5t38.5 -10.5q26 -4 32.5 7t6.5 37h64
q11 -71 -14 -107.5t-68 -33.5q-34 3 -61.5 13.5t-51 22t-47.5 14.5q-25 3 -31.5 -8t-6.5 -38h-64q-7 50 3 82t32 47t47 13z" />
    <glyph glyph-name="nacute" unicode="&#x144;" horiz-adv-x="601" 
d="M404 507q140 0 140 -137v-370h-148v324q0 33 -12 45.5t-41 12.5q-32 0 -66 -12.5t-84 -38.5l-7 83q53 45 108.5 69t109.5 24zM179 494l17 -98l12 -13v-383h-148v494h119zM423 760l64 -100l-223 -111l-44 63z" />
    <glyph glyph-name="uni0146" unicode="&#x146;" horiz-adv-x="601" 
d="M309.532 -38.5977q26.3613 0 36.3604 -9.86621t10.9082 -34.7451v-54.9062q0 -33.459 -5.90918 -60.9121q-5.9082 -27.4531 -15.9072 -50.6162t-24.543 -45.4697l-54.54 15.4434q7.27246 28.3105 9.99902 54.4766q2.72754 26.166 3.63672 56.1934
q-38.1787 0 -39.0869 39.4639l1.81738 46.3271q0.90918 24.8789 11.3623 34.7451q10.4541 9.86621 35.9053 9.86621h29.9971zM404 507q140 0 140 -137v-370h-148v324q0 33 -12 45.5t-41 12.5q-32 0 -66 -12.5t-84 -38.5l-7 83q53 45 108.5 69t109.5 24zM179 494l17 -98
l12 -13v-383h-148v494h119z" />
    <glyph glyph-name="ncaron" unicode="&#x148;" horiz-adv-x="601" 
d="M404 507q140 0 140 -137v-370h-148v324q0 33 -12 45.5t-41 12.5q-32 0 -66 -12.5t-84 -38.5l-7 83q53 45 108.5 69t109.5 24zM179 494l17 -98l12 -13v-383h-148v494h119zM453 748l39 -57l-153 -129h-61l-154 129l40 57l141 -81h8z" />
    <glyph glyph-name="eng" unicode="&#x14b;" horiz-adv-x="601" 
d="M403 507q141 0 141 -137v-416q0 -74 -36.5 -114t-104.5 -40q-16 0 -38.5 2.5t-44 6.5t-37.5 11l17 95h39q57 0 57 52v357q0 30 -12 42.5t-42 12.5q-28 0 -60.5 -10.5t-73.5 -30.5v-338h-148v494h116l13 -77q54 45 108.5 67.5t105.5 22.5z" />
    <glyph glyph-name="ograve" unicode="&#xf2;" 
d="M295 507q93 0 149 -25.5t80.5 -82.5t24.5 -153q0 -94 -24.5 -151t-80.5 -82t-149 -25q-92 0 -148.5 25t-81.5 82t-25 151q0 96 25 153t81.5 82.5t148.5 25.5zM295 399q-38 0 -60 -13t-31 -46t-9 -94q0 -60 9 -93t31 -45.5t60 -12.5t60 12.5t31 45.5t9 93q0 61 -9 94
t-31 46t-60 13zM172 759l203 -148l-43 -63l-224 112z" />
    <glyph glyph-name="oacute" unicode="&#xf3;" 
d="M295 507q93 0 149 -25.5t80.5 -82.5t24.5 -153q0 -94 -24.5 -151t-80.5 -82t-149 -25q-92 0 -148.5 25t-81.5 82t-25 151q0 96 25 153t81.5 82.5t148.5 25.5zM295 399q-38 0 -60 -13t-31 -46t-9 -94q0 -60 9 -93t31 -45.5t60 -12.5t60 12.5t31 45.5t9 93q0 61 -9 94
t-31 46t-60 13zM411 753l64 -100l-223 -111l-44 63z" />
    <glyph glyph-name="ocircumflex" unicode="&#xf4;" 
d="M295 507q93 0 149 -25.5t80.5 -82.5t24.5 -153q0 -94 -24.5 -151t-80.5 -82t-149 -25q-92 0 -148.5 25t-81.5 82t-25 151q0 96 25 153t81.5 82.5t148.5 25.5zM295 399q-38 0 -60 -13t-31 -46t-9 -94q0 -60 9 -93t31 -45.5t60 -12.5t60 12.5t31 45.5t9 93q0 61 -9 94
t-31 46t-60 13zM350 727l134 -134l-39 -53l-144 95h-8l-147 -95l-39 57l136 130h107z" />
    <glyph glyph-name="otilde" unicode="&#xf5;" 
d="M295 507q93 0 149 -25.5t80.5 -82.5t24.5 -153q0 -94 -24.5 -151t-80.5 -82t-149 -25q-92 0 -148.5 25t-81.5 82t-25 151q0 96 25 153t81.5 82.5t148.5 25.5zM295 399q-38 0 -60 -13t-31 -46t-9 -94q0 -60 9 -93t31 -45.5t60 -12.5t60 12.5t31 45.5t9 93q0 61 -9 94
t-31 46t-60 13zM202 714q25 -2 45 -8.5t38.5 -14.5t37 -15.5t38.5 -10.5q26 -4 32.5 7t6.5 37h64q11 -71 -14 -107.5t-68 -33.5q-34 3 -61.5 13.5t-51 22t-47.5 14.5q-25 3 -31.5 -8t-6.5 -38h-64q-7 50 3 82t32 47t47 13z" />
    <glyph glyph-name="odieresis" unicode="&#xf6;" 
d="M295 507q93 0 149 -25.5t80.5 -82.5t24.5 -153q0 -94 -24.5 -151t-80.5 -82t-149 -25q-92 0 -148.5 25t-81.5 82t-25 151q0 96 25 153t81.5 82.5t148.5 25.5zM295 399q-38 0 -60 -13t-31 -46t-9 -94q0 -60 9 -93t31 -45.5t60 -12.5t60 12.5t31 45.5t9 93q0 61 -9 94
t-31 46t-60 13zM411 702q32 0 32 -32v-59q0 -32 -32 -32h-49q-31 0 -31 32v59q0 32 31 32h49zM228 702q31 0 31 -32v-59q0 -32 -31 -32h-49q-31 0 -31 32v59q0 32 31 32h49z" />
    <glyph glyph-name="omacron" unicode="&#x14d;" 
d="M295 507q93 0 149 -25.5t80.5 -82.5t24.5 -153q0 -94 -24.5 -151t-80.5 -82t-149 -25q-92 0 -148.5 25t-81.5 82t-25 151q0 96 25 153t81.5 82.5t148.5 25.5zM295 399q-38 0 -60 -13t-31 -46t-9 -94q0 -60 9 -93t31 -45.5t60 -12.5t60 12.5t31 45.5t9 93q0 61 -9 94
t-31 46t-60 13zM447 687v-94h-300v94h300z" />
    <glyph glyph-name="obreve" unicode="&#x14f;" 
d="M295 507q93 0 149 -25.5t80.5 -82.5t24.5 -153q0 -94 -24.5 -151t-80.5 -82t-149 -25q-92 0 -148.5 25t-81.5 82t-25 151q0 96 25 153t81.5 82.5t148.5 25.5zM295 399q-38 0 -60 -13t-31 -46t-9 -94q0 -60 9 -93t31 -45.5t60 -12.5t60 12.5t31 45.5t9 93q0 61 -9 94
t-31 46t-60 13zM389 717l71 -10q6 -41 -13 -76t-57 -55.5t-94 -20.5q-54 0 -93 20.5t-58 55.5t-14 76l71 10q0 -33 23 -50t72 -17q47 0 69.5 17t22.5 50z" />
    <glyph glyph-name="ohungarumlaut" unicode="&#x151;" 
d="M295 507q93 0 149 -25.5t80.5 -82.5t24.5 -153q0 -94 -24.5 -151t-80.5 -82t-149 -25q-92 0 -148.5 25t-81.5 82t-25 151q0 96 25 153t81.5 82.5t148.5 25.5zM295 399q-38 0 -60 -13t-31 -46t-9 -94q0 -60 9 -93t31 -45.5t60 -12.5t60 12.5t31 45.5t9 93q0 61 -9 94
t-31 46t-60 13zM241 764l96 -64l-152 -168l-61 48zM431 764l95 -64l-152 -168l-60 47z" />
    <glyph glyph-name="oslash" unicode="&#xf8;" 
d="M421 579l43 -21l-299 -642l-42 20zM295 507q93 0 149 -25.5t80.5 -82.5t24.5 -153q0 -94 -24.5 -151t-80.5 -82t-149 -25q-92 0 -148.5 25t-81.5 82t-25 151q0 96 25 153t81.5 82.5t148.5 25.5zM295 399q-38 0 -60 -13t-31 -46t-9 -94q0 -60 9 -93t31 -45.5t60 -12.5
t60 12.5t31 45.5t9 93q0 61 -9 94t-31 46t-60 13z" />
    <glyph glyph-name="oe" unicode="&#x153;" horiz-adv-x="908" 
d="M293 -12q-93 0 -148.5 25t-80 82t-24.5 151q0 96 24.5 153t80 82.5t148.5 25.5q91 0 145.5 -25.5t79 -82.5t24.5 -153q0 -94 -24.5 -151t-79 -82t-145.5 -25zM293 95q38 0 60 12.5t31 45.5t9 93q0 61 -9 94t-30.5 46t-59.5 13t-59.5 -13t-30 -46t-8.5 -94q0 -60 8.5 -93
t29.5 -45.5t59 -12.5zM645 -13q-92 0 -147.5 27.5t-80.5 84.5t-25 146q0 97 24.5 153.5t78.5 82t143 25.5q127 0 180.5 -42.5t54.5 -122.5q1 -50 -16 -80.5t-54.5 -43.5t-103.5 -13h-253v81h222q37 0 49.5 12.5t11.5 46.5q-1 32 -22 45t-67 13q-38 0 -60 -11.5t-30.5 -42.5
t-8.5 -89q0 -62 11 -95.5t37.5 -46.5t73.5 -13q33 0 82.5 2.5t100.5 8.5l14 -91q-29 -14 -65 -22t-74.5 -11.5t-75.5 -3.5z" />
    <glyph glyph-name="racute" unicode="&#x155;" horiz-adv-x="427" 
d="M176 494l18 -98l14 -13v-383h-148v494h116zM417 507l-14 -137h-41q-35 0 -73 -10t-96 -30l-10 83q52 46 105 70t103 24h26zM341 760l64 -100l-223 -111l-44 63z" />
    <glyph glyph-name="uni0157" unicode="&#x157;" horiz-adv-x="427" 
d="M176 494l18 -98l14 -13v-383h-148v494h116zM417 507l-14 -137h-41q-35 0 -73 -10t-96 -30l-10 83q52 46 105 70t103 24h26zM139.532 -38.5977q26.3613 0 36.3604 -9.86621t10.9082 -34.7451v-54.9062q0 -33.459 -5.90918 -60.9121q-5.9082 -27.4531 -15.9072 -50.6162
t-24.543 -45.4697l-54.54 15.4434q7.27246 28.3105 9.99902 54.4766q2.72754 26.166 3.63672 56.1934q-38.1787 0 -39.0869 39.4639l1.81738 46.3271q0.90918 24.8789 11.3623 34.7451q10.4541 9.86621 35.9053 9.86621h29.9971z" />
    <glyph glyph-name="rcaron" unicode="&#x159;" horiz-adv-x="427" 
d="M176 494l18 -98l14 -13v-383h-148v494h116zM417 507l-14 -137h-41q-35 0 -73 -10t-96 -30l-10 83q52 46 105 70t103 24h26zM371 749l39 -57l-153 -129h-61l-154 129l40 57l141 -81h8z" />
    <glyph glyph-name="sacute" unicode="&#x15b;" horiz-adv-x="531" 
d="M248 507q36 0 78 -2.5t82 -6.5t71 -10l-10 -92q-48 1 -96.5 1.5t-94.5 0.5q-39 1 -60 -1t-29.5 -9.5t-8.5 -26.5q0 -22 15 -29.5t50 -16.5l129 -31q62 -16 92 -47.5t30 -94.5q0 -62 -23 -95t-73 -45.5t-129 -12.5q-31 0 -92 3t-134 15l10 92q18 -1 46 -1.5t61 -0.5h66
q51 0 78 2.5t37 11.5t10 27q0 22 -17 30t-54 17l-125 31q-47 13 -73 33t-36.5 49t-10.5 69q0 51 20.5 81.5t67 44.5t123.5 14zM386 755l64 -100l-223 -111l-44 63z" />
    <glyph glyph-name="scircumflex" unicode="&#x15d;" horiz-adv-x="531" 
d="M248 507q36 0 78 -2.5t82 -6.5t71 -10l-10 -92q-48 1 -96.5 1.5t-94.5 0.5q-39 1 -60 -1t-29.5 -9.5t-8.5 -26.5q0 -22 15 -29.5t50 -16.5l129 -31q62 -16 92 -47.5t30 -94.5q0 -62 -23 -95t-73 -45.5t-129 -12.5q-31 0 -92 3t-134 15l10 92q18 -1 46 -1.5t61 -0.5h66
q51 0 78 2.5t37 11.5t10 27q0 22 -17 30t-54 17l-125 31q-47 13 -73 33t-36.5 49t-10.5 69q0 51 20.5 81.5t67 44.5t123.5 14zM323 729l134 -134l-39 -53l-144 95h-8l-147 -95l-39 57l136 130h107z" />
    <glyph glyph-name="scedilla" unicode="&#x15f;" horiz-adv-x="531" 
d="M248 507q36 0 78 -2.5t82 -6.5t71 -10l-10 -92q-48 1 -96.5 1.5t-94.5 0.5q-39 1 -60 -1t-29.5 -9.5t-8.5 -26.5q0 -22 15 -29.5t50 -16.5l129 -31q62 -16 92 -47.5t30 -94.5q0 -62 -23 -95t-73 -45.5t-129 -12.5q-31 0 -92 3t-134 15l10 92q18 -1 46 -1.5t61 -0.5h66
q51 0 78 2.5t37 11.5t10 27q0 22 -17 30t-54 17l-125 31q-47 13 -73 33t-36.5 49t-10.5 69q0 51 20.5 81.5t67 44.5t123.5 14zM201 -52q51 6 83 3.5t47 -18t14 -50.5q-2 -50 -29 -82.5t-72 -45.5t-100 -6l17 62q37 -1 62.5 12.5t27.5 46.5q2 15 -10.5 18t-53.5 4z" />
    <glyph glyph-name="scaron" unicode="&#x161;" horiz-adv-x="531" 
d="M248 507q36 0 78 -2.5t82 -6.5t71 -10l-10 -92q-48 1 -96.5 1.5t-94.5 0.5q-39 1 -60 -1t-29.5 -9.5t-8.5 -26.5q0 -22 15 -29.5t50 -16.5l129 -31q62 -16 92 -47.5t30 -94.5q0 -62 -23 -95t-73 -45.5t-129 -12.5q-31 0 -92 3t-134 15l10 92q18 -1 46 -1.5t61 -0.5h66
q51 0 78 2.5t37 11.5t10 27q0 22 -17 30t-54 17l-125 31q-47 13 -73 33t-36.5 49t-10.5 69q0 51 20.5 81.5t67 44.5t123.5 14zM415 743l39 -57l-153 -129h-61l-154 129l40 57l141 -81h8z" />
    <glyph glyph-name="uni0219" unicode="&#x219;" horiz-adv-x="531" 
d="M248 507q36 0 78 -2.5t82 -6.5t71 -10l-10 -92q-48 1 -96.5 1.5t-94.5 0.5q-39 1 -60 -1t-29.5 -9.5t-8.5 -26.5q0 -22 15 -29.5t50 -16.5l129 -31q62 -16 92 -47.5t30 -94.5q0 -62 -23 -95t-73 -45.5t-129 -12.5q-31 0 -92 3t-134 15l10 92q18 -1 46 -1.5t61 -0.5h66
q51 0 78 2.5t37 11.5t10 27q0 22 -17 30t-54 17l-125 31q-47 13 -73 33t-36.5 49t-10.5 69q0 51 20.5 81.5t67 44.5t123.5 14zM277.532 -38.5977q26.3613 0 36.3604 -9.86621t10.9082 -34.7451v-54.9062q0 -33.459 -5.90918 -60.9121q-5.9082 -27.4531 -15.9072 -50.6162
t-24.543 -45.4697l-54.54 15.4434q7.27246 28.3105 9.99902 54.4766q2.72754 26.166 3.63672 56.1934q-38.1787 0 -39.0869 39.4639l1.81738 46.3271q0.90918 24.8789 11.3623 34.7451q10.4541 9.86621 35.9053 9.86621h29.9971z" />
    <glyph glyph-name="germandbls" unicode="&#xdf;" horiz-adv-x="707" 
d="M355 732q93 0 146 -14.5t74.5 -47.5t21.5 -89q0 -23 -5 -41.5t-19 -37.5t-42 -42q-21 -16 -37 -28.5t-25 -25t-9 -29.5q0 -21 18 -35t44 -31l78 -44q31 -21 49.5 -38t27 -39t8.5 -56q0 -53 -18.5 -84.5t-61 -46t-111.5 -14.5q-37 0 -77.5 2.5t-93.5 8.5l9 96
q32 -1 63.5 -1.5t64.5 -0.5q29 0 45.5 2.5t24 12t7.5 30.5q0 17 -9.5 29.5t-26 24.5t-37.5 26l-68 33q-34 22 -54.5 48.5t-20.5 67.5q0 29 12 48t33 35.5t46 39.5q28 24 38.5 40.5t10.5 41.5q0 19 -8.5 30.5t-30.5 17t-64 5.5t-65.5 -7t-32.5 -26t-9 -55v-538h-148v555
q0 54 15 88.5t46 54t78.5 27t112.5 7.5zM176 494v-98h-158v94l87 4h71z" />
    <glyph glyph-name="uni021B" unicode="&#x21b;" horiz-adv-x="410" 
d="M253 631v-473q0 -27 12.5 -38.5t41.5 -11.5h64l16 -100q-18 -6 -44 -10.5t-52 -7t-44 -2.5q-67 0 -104.5 36t-37.5 101l-1 506h149zM391 494v-97h-373v92l96 5h277zM253.532 -43.5977q26.3613 0 36.3604 -9.86621t10.9082 -34.7451v-54.9062q0 -33.459 -5.90918 -60.9121
q-5.9082 -27.4531 -15.9072 -50.6162t-24.543 -45.4697l-54.54 15.4434q7.27246 28.3105 9.99902 54.4766q2.72754 26.166 3.63672 56.1934q-38.1787 0 -39.0869 39.4639l1.81738 46.3271q0.90918 24.8789 11.3623 34.7451q10.4541 9.86621 35.9053 9.86621h29.9971z" />
    <glyph glyph-name="tcaron" unicode="&#x165;" horiz-adv-x="410" 
d="M253 631v-473q0 -27 12.5 -38.5t41.5 -11.5h64l16 -100q-18 -6 -44 -10.5t-52 -7t-44 -2.5q-67 0 -104.5 36t-37.5 101l-1 506h149zM391 494v-97h-373v92l96 5h277zM369 788q24 0 33 -9.5t9 -33.5v-54q1 -48 -10.5 -83t-30.5 -68l-50 15q7 27 9 52.5t3 54.5q-36 0 -35 38
l1 45q1 24 10.5 33.5t32.5 9.5h28z" />
    <glyph glyph-name="tbar" unicode="&#x167;" horiz-adv-x="410" 
d="M359 310v-71h-315v71h315zM253 631v-473q0 -27 12.5 -38.5t41.5 -11.5h64l16 -100q-18 -6 -44 -10.5t-52 -7t-44 -2.5q-67 0 -104.5 36t-37.5 101l-1 506h149zM391 494v-97h-373v92l96 5h277z" />
    <glyph glyph-name="uni0163" unicode="&#x163;" horiz-adv-x="410" 
d="M253 631v-473q0 -27 12.5 -38.5t41.5 -11.5h64l16 -100q-18 -6 -44 -10.5t-52 -7t-44 -2.5q-67 0 -104.5 36t-37.5 101l-1 506h149zM391 494v-97h-373v92l96 5h277zM201 -49q51 6 83 3.5t47 -18t14 -50.5q-2 -50 -29 -82.5t-72 -45.5t-100 -6l17 62q37 -1 62.5 12.5
t27.5 46.5q2 15 -10.5 18t-53.5 4z" />
    <glyph glyph-name="thorn" unicode="&#xfe;" horiz-adv-x="597" 
d="M376 506q97 0 138 -66t41 -198q0 -99 -20 -154.5t-61 -78.5t-103 -23q-54 0 -105 16t-90 52l16 67q33 -13 61.5 -21.5t61.5 -8.5q32 0 51 12t27.5 44.5t8.5 94.5t-8.5 94.5t-27 44.5t-48.5 12q-31 0 -57.5 -12t-55.5 -32l-25 68q32 38 79 63.5t117 25.5zM208 700v-135
q1 -32 -0.5 -64t-4.5 -62l5 -12v-359l-5 -12q3 -30 4.5 -62.5t0.5 -64.5v-119h-148v890h148z" />
    <glyph glyph-name="ugrave" unicode="&#xf9;" horiz-adv-x="593" 
d="M205 494v-325q0 -31 13.5 -44t43.5 -13q31 0 61.5 11.5t75.5 36.5l12 -81q-54 -47 -106 -70t-107 -23q-141 0 -141 138v370h148zM532 494v-494h-117l-17 97l-14 14v383h148zM171 767l203 -148l-43 -63l-224 112z" />
    <glyph glyph-name="uacute" unicode="&#xfa;" horiz-adv-x="593" 
d="M205 494v-325q0 -31 13.5 -44t43.5 -13q31 0 61.5 11.5t75.5 36.5l12 -81q-54 -47 -106 -70t-107 -23q-141 0 -141 138v370h148zM532 494v-494h-117l-17 97l-14 14v383h148zM411 761l64 -100l-223 -111l-44 63z" />
    <glyph glyph-name="ucircumflex" unicode="&#xfb;" horiz-adv-x="593" 
d="M205 494v-325q0 -31 13.5 -44t43.5 -13q31 0 61.5 11.5t75.5 36.5l12 -81q-54 -47 -106 -70t-107 -23q-141 0 -141 138v370h148zM532 494v-494h-117l-17 97l-14 14v383h148zM349 736l134 -134l-39 -53l-144 95h-8l-147 -95l-39 57l136 130h107z" />
    <glyph glyph-name="utilde" unicode="&#x169;" horiz-adv-x="593" 
d="M205 494v-325q0 -31 13.5 -44t43.5 -13q31 0 61.5 11.5t75.5 36.5l12 -81q-54 -47 -106 -70t-107 -23q-141 0 -141 138v370h148zM532 494v-494h-117l-17 97l-14 14v383h148zM202 723q25 -2 45 -8.5t38.5 -14.5t37 -15.5t38.5 -10.5q26 -4 32.5 7t6.5 37h64
q11 -71 -14 -107.5t-68 -33.5q-34 3 -61.5 13.5t-51 22t-47.5 14.5q-25 3 -31.5 -8t-6.5 -38h-64q-7 50 3 82t32 47t47 13z" />
    <glyph glyph-name="udieresis" unicode="&#xfc;" horiz-adv-x="593" 
d="M205 494v-325q0 -31 13.5 -44t43.5 -13q31 0 61.5 11.5t75.5 36.5l12 -81q-54 -47 -106 -70t-107 -23q-141 0 -141 138v370h148zM532 494v-494h-117l-17 97l-14 14v383h148zM411 710q32 0 32 -32v-59q0 -32 -32 -32h-49q-31 0 -31 32v59q0 32 31 32h49zM228 710
q31 0 31 -32v-59q0 -32 -31 -32h-49q-31 0 -31 32v59q0 32 31 32h49z" />
    <glyph glyph-name="umacron" unicode="&#x16b;" horiz-adv-x="593" 
d="M205 494v-325q0 -31 13.5 -44t43.5 -13q31 0 61.5 11.5t75.5 36.5l12 -81q-54 -47 -106 -70t-107 -23q-141 0 -141 138v370h148zM532 494v-494h-117l-17 97l-14 14v383h148zM446 695v-94h-300v94h300z" />
    <glyph glyph-name="ubreve" unicode="&#x16d;" horiz-adv-x="593" 
d="M205 494v-325q0 -31 13.5 -44t43.5 -13q31 0 61.5 11.5t75.5 36.5l12 -81q-54 -47 -106 -70t-107 -23q-141 0 -141 138v370h148zM532 494v-494h-117l-17 97l-14 14v383h148zM388 726l71 -10q6 -41 -13 -76t-57 -55.5t-94 -20.5q-54 0 -93 20.5t-58 55.5t-14 76l71 10
q0 -33 23 -50t72 -17q47 0 69.5 17t22.5 50z" />
    <glyph glyph-name="uring" unicode="&#x16f;" horiz-adv-x="593" 
d="M205 494v-325q0 -31 13.5 -44t43.5 -13q31 0 61.5 11.5t75.5 36.5l12 -81q-54 -47 -106 -70t-107 -23q-141 0 -141 138v370h148zM532 494v-494h-117l-17 97l-14 14v383h148zM296 770q32 0 59 -15.5t43 -41.5t16 -58t-16 -58.5t-43 -42t-59 -15.5t-59.5 15.5t-43.5 41.5
t-16 59q0 32 16 58t43.5 41.5t59.5 15.5zM295 707q-21 0 -36 -14.5t-15 -38.5q0 -23 15 -37.5t36 -14.5q23 0 37.5 14.5t14.5 37.5q0 24 -14.5 38.5t-37.5 14.5z" />
    <glyph glyph-name="uhungarumlaut" unicode="&#x171;" horiz-adv-x="593" 
d="M205 494v-325q0 -31 13.5 -44t43.5 -13q31 0 61.5 11.5t75.5 36.5l12 -81q-54 -47 -106 -70t-107 -23q-141 0 -141 138v370h148zM532 494v-494h-117l-17 97l-14 14v383h148zM241 773l96 -64l-152 -168l-61 48zM431 773l95 -64l-152 -168l-60 47z" />
    <glyph glyph-name="uogonek" unicode="&#x173;" horiz-adv-x="593" 
d="M205 494v-325q0 -31 13.5 -44t43.5 -13q31 0 61.5 11.5t75.5 36.5l12 -81q-54 -47 -106 -70t-107 -23q-141 0 -141 138v370h148zM532 494v-494h-117l-17 97l-14 14v383h148zM474 2l60 -2q-17 -23 -32.5 -47t-28.5 -53q-14 -32 6 -40t57 1l11 -53q-54 -22 -91 -22.5
t-58.5 14.5t-27 39t3.5 50q8 25 32 54t68 59z" />
    <glyph glyph-name="wgrave" unicode="&#x1e81;" horiz-adv-x="850" 
d="M834 494l-122 -455q-4 -18 -18 -28.5t-33 -10.5h-112q-20 0 -35 12.5t-18 32.5l-54 278q-3 21 -5 41.5t-6 41.5h-12q-3 -21 -6 -41.5t-6 -41.5l-54 -278q-3 -20 -18 -32.5t-35 -12.5h-111q-19 0 -33 10.5t-18 28.5l-122 455h149l68 -320q4 -20 7 -40.5t5 -40.5h13
q3 20 6.5 40.5t6.5 40.5l54 275q3 20 17 32.5t35 12.5h96q20 0 34.5 -12.5t17.5 -33.5l53 -274q3 -20 7 -40t7 -41h12q4 21 6.5 40.5t6.5 40.5l68 320h149zM302 761l203 -148l-43 -63l-224 112z" />
    <glyph glyph-name="wacute" unicode="&#x1e83;" horiz-adv-x="850" 
d="M834 494l-122 -455q-4 -18 -18 -28.5t-33 -10.5h-112q-20 0 -35 12.5t-18 32.5l-54 278q-3 21 -5 41.5t-6 41.5h-12q-3 -21 -6 -41.5t-6 -41.5l-54 -278q-3 -20 -18 -32.5t-35 -12.5h-111q-19 0 -33 10.5t-18 28.5l-122 455h149l68 -320q4 -20 7 -40.5t5 -40.5h13
q3 20 6.5 40.5t6.5 40.5l54 275q3 20 17 32.5t35 12.5h96q20 0 34.5 -12.5t17.5 -33.5l53 -274q3 -20 7 -40t7 -41h12q4 21 6.5 40.5t6.5 40.5l68 320h149zM542 755l64 -100l-223 -111l-44 63z" />
    <glyph glyph-name="wcircumflex" unicode="&#x175;" horiz-adv-x="850" 
d="M834 494l-122 -455q-4 -18 -18 -28.5t-33 -10.5h-112q-20 0 -35 12.5t-18 32.5l-54 278q-3 21 -5 41.5t-6 41.5h-12q-3 -21 -6 -41.5t-6 -41.5l-54 -278q-3 -20 -18 -32.5t-35 -12.5h-111q-19 0 -33 10.5t-18 28.5l-122 455h149l68 -320q4 -20 7 -40.5t5 -40.5h13
q3 20 6.5 40.5t6.5 40.5l54 275q3 20 17 32.5t35 12.5h96q20 0 34.5 -12.5t17.5 -33.5l53 -274q3 -20 7 -40t7 -41h12q4 21 6.5 40.5t6.5 40.5l68 320h149zM480 729l134 -134l-39 -53l-144 95h-8l-147 -95l-39 57l136 130h107z" />
    <glyph glyph-name="wdieresis" unicode="&#x1e85;" horiz-adv-x="850" 
d="M834 494l-122 -455q-4 -18 -18 -28.5t-33 -10.5h-112q-20 0 -35 12.5t-18 32.5l-54 278q-3 21 -5 41.5t-6 41.5h-12q-3 -21 -6 -41.5t-6 -41.5l-54 -278q-3 -20 -18 -32.5t-35 -12.5h-111q-19 0 -33 10.5t-18 28.5l-122 455h149l68 -320q4 -20 7 -40.5t5 -40.5h13
q3 20 6.5 40.5t6.5 40.5l54 275q3 20 17 32.5t35 12.5h96q20 0 34.5 -12.5t17.5 -33.5l53 -274q3 -20 7 -40t7 -41h12q4 21 6.5 40.5t6.5 40.5l68 320h149zM541 703q32 0 32 -32v-59q0 -32 -32 -32h-49q-31 0 -31 32v59q0 32 31 32h49zM358 703q31 0 31 -32v-59
q0 -32 -31 -32h-49q-31 0 -31 32v59q0 32 31 32h49z" />
    <glyph glyph-name="ygrave" unicode="&#x1ef3;" horiz-adv-x="566" 
d="M557 494l-177 -500q-12 -37 -33.5 -74.5t-54 -67.5t-78 -45.5t-107.5 -7.5l-11 84q61 16 95 43t53 71l31 69q9 22 17.5 53.5t14.5 54.5l92 320h158zM165 494l94 -320l8 -38t7 -38h27l-47 -98h-36q-17 0 -30 10t-18 26l-163 458h158zM162 766l203 -148l-43 -63l-224 112z
" />
    <glyph glyph-name="yacute" unicode="&#xfd;" horiz-adv-x="566" 
d="M557 494l-177 -500q-12 -37 -33.5 -74.5t-54 -67.5t-78 -45.5t-107.5 -7.5l-11 84q61 16 95 43t53 71l31 69q9 22 17.5 53.5t14.5 54.5l92 320h158zM165 494l94 -320l8 -38t7 -38h27l-47 -98h-36q-17 0 -30 10t-18 26l-163 458h158zM403 760l64 -100l-223 -111l-44 63z
" />
    <glyph glyph-name="ycircumflex" unicode="&#x177;" horiz-adv-x="566" 
d="M557 494l-177 -500q-12 -37 -33.5 -74.5t-54 -67.5t-78 -45.5t-107.5 -7.5l-11 84q61 16 95 43t53 71l31 69q9 22 17.5 53.5t14.5 54.5l92 320h158zM165 494l94 -320l8 -38t7 -38h27l-47 -98h-36q-17 0 -30 10t-18 26l-163 458h158zM341 734l134 -134l-39 -53l-144 95h-8
l-147 -95l-39 57l136 130h107z" />
    <glyph glyph-name="ydieresis" unicode="&#xff;" horiz-adv-x="566" 
d="M557 494l-177 -500q-12 -37 -33.5 -74.5t-54 -67.5t-78 -45.5t-107.5 -7.5l-11 84q61 16 95 43t53 71l31 69q9 22 17.5 53.5t14.5 54.5l92 320h158zM165 494l94 -320l8 -38t7 -38h27l-47 -98h-36q-17 0 -30 10t-18 26l-163 458h158zM401 709q32 0 32 -32v-59
q0 -32 -32 -32h-49q-31 0 -31 32v59q0 32 31 32h49zM218 709q31 0 31 -32v-59q0 -32 -31 -32h-49q-31 0 -31 32v59q0 32 31 32h49z" />
    <glyph glyph-name="zacute" unicode="&#x17a;" horiz-adv-x="526" 
d="M312 392l170 -1l-273 -290l-170 1zM487 102v-102h-448v102h448zM482 494v-103h-439v103h439zM384 760l64 -100l-223 -111l-44 63z" />
    <glyph glyph-name="zdotaccent" unicode="&#x17c;" horiz-adv-x="526" 
d="M312 392l170 -1l-273 -290l-170 1zM487 102v-102h-448v102h448zM482 494v-103h-439v103h439zM292 712q42 0 42 -41v-52q0 -42 -42 -42h-46q-42 0 -42 42v52q0 41 42 41h46z" />
    <glyph glyph-name="zcaron" unicode="&#x17e;" horiz-adv-x="526" 
d="M312 392l170 -1l-273 -290l-170 1zM487 102v-102h-448v102h448zM482 494v-103h-439v103h439zM413 749l39 -57l-153 -129h-61l-154 129l40 57l141 -81h8z" />
    <glyph glyph-name="aeacute" unicode="&#x1fd;" horiz-adv-x="879" 
d="M611 507q125 0 178.5 -42.5t54.5 -126.5q0 -46 -15.5 -76t-50.5 -44.5t-95 -14.5h-266v83h226q35 0 46 14t11 41q0 34 -19.5 48t-64.5 14q-42 0 -65 -11t-32 -42t-9 -90q0 -62 11 -95.5t37.5 -46.5t74.5 -13q34 0 83.5 2.5t100.5 8.5l14 -91q-29 -14 -65 -22t-74.5 -11.5
t-75.5 -3.5q-93 0 -149.5 27.5t-81.5 84.5t-25 146q0 97 25 154t80.5 82t145.5 25zM449 302l-1 -82h-217q-26 0 -37.5 -13t-11.5 -35v-24q0 -25 14 -38.5t43 -13.5q26 0 56.5 11t60.5 31.5t53 47.5l5 -68q-9 -16 -27 -37.5t-45 -42.5t-64 -35.5t-85 -14.5q-44 0 -80 16
t-56.5 47t-20.5 77v51q0 57 39.5 90t108.5 33h265zM318 507q62 0 104.5 -16.5t64.5 -56t22 -108.5v-94h-149v95q0 35 -16.5 51t-60.5 16q-38 0 -94.5 -2.5t-115.5 -6.5l-13 98q35 7 81 12t93 8.5t84 3.5zM577 770l64 -99l-224 -112l-43 63z" />
    <glyph glyph-name="oslashacute" unicode="&#x1ff;" 
d="M421 579l43 -21l-299 -642l-42 20zM295 507q93 0 149 -25.5t80.5 -82.5t24.5 -153q0 -94 -24.5 -151t-80.5 -82t-149 -25q-92 0 -148.5 25t-81.5 82t-25 151q0 96 25 153t81.5 82.5t148.5 25.5zM295 399q-38 0 -60 -13t-31 -46t-9 -94q0 -60 9 -93t31 -45.5t60 -12.5
t60 12.5t31 45.5t9 93q0 61 -9 94t-31 46t-60 13zM411 767l64 -99l-224 -112l-43 63z" />
    <glyph glyph-name="aringacute" unicode="&#x1fb;" horiz-adv-x="570" 
d="M346 965l62 -98l-211 -97l-41 61zM321 507q62 0 105 -16.5t65.5 -56t22.5 -108.5v-326h-118l-21 107l-10 15v205q0 35 -16.5 51t-62.5 16q-38 0 -95 -2.5t-117 -6.5l-14 98q36 7 83 12t94 8.5t84 3.5zM453 304l-1 -83l-220 -1q-27 0 -38.5 -13t-11.5 -35v-24
q0 -25 14 -38.5t45 -13.5q26 0 56.5 11t60.5 31t53 47v-64q-9 -15 -26.5 -37.5t-44.5 -44t-63 -36.5t-82 -15q-45 0 -81 16t-57 47t-21 77v51q0 59 40 92t110 33h267zM288 766q32 0 59 -15.5t43 -41.5t16 -58t-16 -58.5t-42.5 -41.5t-59.5 -15q-32 0 -59 15t-43 41t-16 59
q0 32 16 58t43 41.5t59 15.5zM288 704q-21 0 -36 -15t-15 -38q0 -24 15 -38.5t36 -14.5q22 0 37 14.5t15 38.5q0 23 -15 38t-37 15z" />
    <glyph glyph-name="uni0259" unicode="&#x259;" horiz-adv-x="564" 
d="M270 -12q-126 0 -180 42.5t-55 126.5q-1 68 34.5 101.5t121.5 33.5h276v-83h-236q-33 0 -42.5 -14t-9.5 -41q0 -35 20 -48.5t66 -13.5q41 0 63.5 11t31.5 42.5t9 89.5q0 62 -11 95.5t-37 46.5t-73 13q-34 0 -84 -3t-102 -9l-14 92q29 14 65.5 22t76 11.5t75.5 3.5
q95 0 152 -27t82 -84t25 -147q0 -96 -25.5 -153.5t-81 -82.5t-147.5 -25z" />
    <glyph glyph-name="kgreenlandic" unicode="&#x138;" horiz-adv-x="559" 
d="M538 494l-130 -188q-9 -14 -23 -27.5t-23 -19.5v-3q9 -5 22.5 -21.5t23.5 -31.5l147 -203h-165l-169 254l152 240h165zM208 494l1 -108q0 -34 -4 -67.5t-12 -65.5q7 -30 11 -63t4 -60v-130h-148v494h148zM277 295v-90h-115v90h115z" />
    <glyph glyph-name="at" unicode="@" horiz-adv-x="760" 
d="M528 601q84 0 129.5 -36.5t45.5 -129.5v-300h-109l-12 69q-16 -19 -42.5 -37.5t-60.5 -30t-74 -11.5t-72.5 14t-51.5 41.5t-19 67.5v48q0 52 34 81.5t97 29.5h174v27q0 32 -14.5 46t-53.5 14h-123q-61 0 -97.5 -5t-55 -25.5t-24.5 -67t-6 -128.5q0 -68 4.5 -111.5
t17 -67.5t37.5 -34.5t65.5 -12.5t100.5 -2h284v-96q-70 -6 -141 -9.5t-142 -3.5q-98 0 -163 7t-105.5 26.5t-60.5 56.5t-26.5 97.5t-6.5 149.5q0 88 5.5 147t23.5 96t53 56.5t93 26.5t144 7h152zM567 337l-124 -5q-25 -1 -37 -11.5t-12 -30.5v-20q0 -24 13.5 -35.5
t38.5 -11.5q19 0 41 5.5t42.5 15t37.5 23.5v70z" />
    <glyph glyph-name="registered" unicode="&#xae;" horiz-adv-x="523" 
d="M262 703q62 0 112 -30t80 -80t30 -112t-30 -112.5t-80 -80.5t-112 -30t-112.5 30t-80.5 80.5t-30 112.5t30 112t80.5 80t112.5 30zM225 600v-233h-63v233h63zM262 660q-49 0 -89.5 -24.5t-65 -65t-24.5 -89.5t24.5 -90t65 -65t89.5 -24t89 24t64 65t24 90t-24 89.5
t-64 65t-89 24.5zM269 603q54 0 78.5 -14.5t24.5 -54.5q0 -22 -12 -37.5t-42 -19.5v-1q11 -1 23 -8.5t17 -27.5l23 -73h-66l-19 70q-5 12 -11.5 15.5t-18.5 3.5h-63t-36 1l1 39h98q25 1 34 7.5t8 23.5q1 19 -8 25t-34 6h-61.5t-35.5 -2l-7 44q26 2 47.5 2.5t59.5 0.5z" />
    <glyph glyph-name="copyright" unicode="&#xa9;" horiz-adv-x="809" 
d="M405 704q75 0 140.5 -26.5t115 -74.5t77.5 -114t28 -144t-28 -144t-77.5 -114t-115 -74.5t-140.5 -26.5q-76 0 -142 26.5t-115 75t-77 114t-28 143.5t28 144t77 114t115 74.5t142 26.5zM409 554q48 0 77 -3.5t60 -11.5l-10 -78q-32 0 -58.5 0.5t-69.5 0.5q-31 0 -49 -10
t-24.5 -35t-6.5 -71q0 -45 6.5 -70t24.5 -35t49 -10q46 0 77 0.5t62 3.5l8 -78q-32 -9 -64.5 -13.5t-81.5 -4.5q-71 0 -114 20t-62 65.5t-19 121.5q0 77 19 122.5t62 65.5t114 20zM404 632q-59 0 -110.5 -21.5t-91 -60t-62 -90.5t-22.5 -115q0 -62 22.5 -114.5t62 -91
t91.5 -60t110 -21.5q60 0 112 21.5t91 60t61.5 91t22.5 114.5t-22.5 114.5t-61.5 91t-91 60t-112 21.5z" />
    <glyph glyph-name="trademark" unicode="&#x2122;" horiz-adv-x="980" 
d="M871 696q34 0 37 -37l13 -343h-94l-14 303h-9l-57 -215q-6 -32 -40 -32h-61q-34 0 -40 32l-57 215h-10l-12 -303h-94l14 343q2 37 36 37h95q16 0 26 -8t13 -24l46 -171q3 -14 5 -28t5 -28h7q4 14 6 28.5t5 27.5l43 171q6 32 39 32h98zM277 696v-380h-103v380h103z
M396 696v-79h-341v79h341z" />
    <glyph glyph-name="plus" unicode="+" horiz-adv-x="537" 
d="M496 356v-110h-455v110h455zM323 523v-444h-109l-1 444h110z" />
    <glyph glyph-name="minus" unicode="&#x2212;" horiz-adv-x="578" 
d="M519 346v-105h-460v105h460z" />
    <glyph glyph-name="multiply" unicode="&#xd7;" horiz-adv-x="495" 
d="M397 496l-365 -326l70 -83l365 325zM102 496l-70 -84l365 -325l70 83z" />
    <glyph glyph-name="divide" unicode="&#xf7;" horiz-adv-x="553" 
d="M506 346v-105h-460v105h460zM293 176q31 0 43 -12t12 -43v-33q0 -30 -12 -42t-43 -12h-36q-31 0 -42.5 12t-11.5 42v33q0 31 11.5 43t42.5 12h36zM293 551q31 0 43 -12t12 -42v-34q0 -30 -12 -42t-43 -12h-36q-31 0 -42.5 12t-11.5 42v34q0 30 11.5 42t42.5 12h36z" />
    <glyph glyph-name="equal" unicode="=" horiz-adv-x="578" 
d="M519 457v-105h-460v105h460zM519 243v-105h-460v105h460z" />
    <glyph glyph-name="less" unicode="&#x3c;" horiz-adv-x="517" 
d="M460 524v-116l-295 -107l295 -106v-116l-421 164v115z" />
    <glyph glyph-name="greater" unicode="&#x3e;" horiz-adv-x="516" 
d="M57 524l419 -166v-115l-419 -164v116l294 106l-294 107v116z" />
    <glyph glyph-name="dollar" unicode="$" horiz-adv-x="580" 
d="M295 703q51 0 110 -5.5t115 -22.5l-10 -101q-43 1 -101.5 2t-114.5 1q-27 0 -46 -1.5t-31 -8t-17 -19.5t-5 -36q0 -35 16.5 -51t57.5 -29l129 -43q81 -28 113 -76t32 -126q0 -59 -13.5 -98t-43.5 -61t-78 -31.5t-118 -9.5q-34 0 -96 4.5t-142 22.5l9 109q58 -1 101 -2.5
t74 -1.5h53q39 0 61.5 5t31.5 19t9 42q0 24 -6.5 38.5t-21 23t-39.5 15.5l-137 48q-78 29 -110.5 76t-32.5 124q0 60 14 97.5t44.5 58.5t78.5 29t114 8zM262 358l49 -1l-42 -475h-49zM369 794l-43 -437l-50 1l43 436h50z" />
    <glyph glyph-name="cent" unicode="&#xa2;" horiz-adv-x="525" 
d="M291 608q26 0 58.5 -3t65.5 -9.5t60 -18.5l-16 -89q-41 3 -77.5 3.5t-65.5 0.5q-50 0 -78.5 -12t-40.5 -43.5t-12 -88.5t12 -88.5t40.5 -44t78.5 -12.5q16 0 41 0.5t54.5 2.5t57.5 6l14 -89q-41 -19 -92 -26.5t-101 -7.5q-92 0 -147 25t-79.5 82t-24.5 152
q0 96 24.5 152.5t80 82t147.5 25.5zM312 154l-17 -154h-50l17 154h50zM351 523l-37 -370h-51l38 370h50zM372 690l-19 -168h-50l18 168h51z" />
    <glyph glyph-name="sterling" unicode="&#xa3;" horiz-adv-x="586" 
d="M318 703q21 0 54 -1t72.5 -3t79.5 -6l-7 -113q-17 0 -30.5 0.5t-31 1t-45.5 0.5h-74q-44 0 -61 -16t-15 -57l19 -225q3 -46 -5.5 -77t-26 -52t-41.5 -40q19 5 38 5.5t38 0.5h265v-121h-497v121q52 26 66.5 68t10.5 95l-16 231q-4 58 8 95t38 57t66.5 28t94.5 8zM460 403
l-3 -79h-410l-2 79h415z" />
    <glyph glyph-name="yen" unicode="&#xa5;" horiz-adv-x="664" 
d="M637 690l-233 -460h-144l-233 460h157l116 -246q10 -20 16 -43t12 -44h10q6 21 12.5 44.5t14.5 42.5l114 246h158zM409 323v-323h-153v323h153zM571 219v-76h-474l-2 76h476zM571 341v-77h-474l-2 77h476z" />
    <glyph glyph-name="florin" unicode="&#x192;" horiz-adv-x="478" 
d="M337 702q15 0 38.5 -1t48.5 -3t41 -6l-21 -95h-66q-34 0 -49 -14t-18 -53l-49 -541q-4 -46 -22.5 -80t-54 -53t-93.5 -19q-15 0 -38.5 1t-48 3.5t-41.5 5.5l21 96h64q33 0 47.5 15t17.5 51l49 540q5 46 24 80.5t56 53.5t94 19zM418 404l-9 -97h-362l7 93l102 4h262z" />
    <glyph glyph-name="colonmonetary" unicode="&#x20a1;" horiz-adv-x="589" 
d="M339 702q49 0 84 -2.5t64.5 -7.5t60.5 -14l-13 -112q-32 2 -60.5 3t-60 1.5t-75.5 0.5q-51 0 -79.5 -20t-40.5 -69.5t-12 -136.5t12 -136.5t40.5 -69.5t79.5 -20q69 0 117 2t93 7l13 -112q-47 -15 -98 -21.5t-125 -6.5q-107 0 -171.5 34.5t-93 112.5t-28.5 210t28.5 210
t93 112.5t171.5 34.5zM213 -135l290 939h50l-290 -939h-50zM113 -135l290 939h50l-290 -939h-50z" />
    <glyph glyph-name="lira" unicode="&#x20a4;" horiz-adv-x="586" 
d="M318 703q21 0 54 -1t72.5 -3t79.5 -6l-7 -113q-17 0 -30.5 0.5t-31 1t-45.5 0.5h-74q-44 0 -61 -16t-15 -57l19 -225q3 -46 -5.5 -77t-26 -52t-41.5 -40q19 5 38 5.5t38 0.5h265v-121h-497v121q52 26 66.5 68t10.5 95l-16 231q-4 58 8 95t38 57t66.5 28t94.5 8zM460 451
l-3 -73h-410l-2 73h415zM460 311l-3 -73h-410l-2 73h415z" />
    <glyph glyph-name="uni20A6" unicode="&#x20a6;" horiz-adv-x="773" 
d="M676 690v-635q0 -55 -54 -55h-85q-24 0 -37 11.5t-25 34.5l-190 362q-12 23 -24 51t-19 54h-12q4 -27 5.5 -54.5t1.5 -54.5v-404h-144v635q0 55 55 55h83q25 0 37.5 -11.5t24.5 -34.5l185 -351q12 -23 25 -51t24 -58h13q-3 30 -5 58.5t-2 56.5v391h143zM753 475l-5 -73
h-726l-2 73h733zM753 304l-5 -72h-726l-2 72h733z" />
    <glyph glyph-name="uni20A9" unicode="&#x20a9;" horiz-adv-x="1031" 
d="M979 690l-113 -648q-3 -18 -18.5 -30t-35.5 -12h-143q-21 0 -36 12t-18 31l-78 449q-3 23 -5.5 45.5t-5.5 44.5h-19q-2 -22 -5 -45t-7 -45l-76 -449q-3 -19 -18.5 -31t-36.5 -12h-143q-20 0 -35.5 12t-18.5 30l-113 648h154l72 -480q3 -22 5 -47t3 -53h20q3 24 7 50.5
t8 49.5l77 433q3 21 17.5 34t36.5 13h125q22 0 36.5 -13t17.5 -34l77 -434q4 -24 7.5 -49.5t7.5 -49.5h20q1 24 3.5 50t5.5 48l71 482h154zM1010 464l-5 -74h-983l-1 74h989zM1010 319l-5 -73h-983l-1 73h989z" />
    <glyph glyph-name="dong" unicode="&#x20ab;" horiz-adv-x="593" 
d="M544 -66v-79h-477v79h477zM597 627v-67h-339v67h339zM229 507q52 0 100.5 -15t85.5 -49l-10 -68q-34 10 -61 18t-63 8q-31 0 -50 -11t-28 -43t-9 -95q0 -59 8.5 -89.5t27 -42t47.5 -11.5q26 0 45 5.5t38 17t43 28.5l11 -73q-30 -42 -78 -70.5t-118 -28.5q-95 0 -135.5 68
t-40.5 195q0 99 20.5 154.5t62.5 78.5t104 23zM536 700v-700h-117l-15 91l-16 11v324l6 13q-3 31 -4.5 62.5t-1.5 64.5v134h148z" />
    <glyph glyph-name="Euro" unicode="&#x20ac;" horiz-adv-x="642" 
d="M413 702q58 0 99.5 -6.5t76.5 -17.5l-14 -108q-11 2 -31.5 4t-45 3.5t-50 1t-46.5 -2.5q-48 -5 -77 -30t-42 -74.5t-13 -129.5q0 -115 29 -169t103 -59q26 -2 59 -1.5t67.5 3.5t62.5 8l13 -108q-36 -12 -82 -20t-109 -8q-113 0 -179.5 39t-95 118.5t-28.5 199.5
q0 121 28.5 200t95 118t179.5 39zM477 323l-9 -80h-428v80h437zM505 455l-8 -79h-457v79h465z" />
    <glyph glyph-name="uni20B1" unicode="&#x20b1;" horiz-adv-x="690" 
d="M350 700q96 0 151.5 -20t79 -69t23.5 -137t-22.5 -137t-74 -68.5t-137.5 -19.5q-46 0 -90.5 4t-82.5 10t-64.5 12.5t-37.5 12.5l3 89h250q39 0 61 8.5t31.5 30t9.5 60.5t-9.5 59.5t-31.5 28.5t-61 8h-249l-14 118q42 5 78.5 7t80.5 2.5t106 0.5zM238 690v-690h-153v690
h153zM676 576l-4 -62h-657l-1 62h662zM676 433l-4 -63h-657l-1 63h662z" />
    <glyph glyph-name="uni20B2" unicode="&#x20b2;" horiz-adv-x="648" 
d="M354 704q45 0 82 -3t70.5 -8t65.5 -15l-12 -111q-35 2 -71.5 3t-73 1.5t-73.5 0.5q-52 0 -81.5 -19t-41 -68.5t-11.5 -141.5q0 -86 11 -135t37 -69.5t70 -20.5q30 0 59 6t54 16.5t42 20.5l16 -72q-14 -21 -47 -45t-78 -41t-99 -17q-79 0 -129 36.5t-73.5 116t-23.5 207.5
q0 135 29.5 213t97 111.5t180.5 33.5zM463 398h133v-398h-97l-22 105l-14 28v265zM367 794h50l-86 -913h-50z" />
    <glyph glyph-name="uni20B5" unicode="&#x20b5;" horiz-adv-x="588" 
d="M339 702q49 0 83.5 -2.5t63.5 -7.5t60 -14l-12 -112q-33 2 -60.5 3t-59 1.5t-75.5 0.5q-51 0 -79.5 -20t-40.5 -69.5t-12 -136.5t12 -136.5t40.5 -69.5t79.5 -20q69 0 116 2t93 7l13 -112q-48 -15 -98 -21.5t-124 -6.5q-107 0 -171.5 34.5t-93 112.5t-28.5 210t28.5 210
t93 112.5t171.5 34.5zM291 -118l85 912h50l-86 -912h-49z" />
    <glyph glyph-name="uni20BC" unicode="&#x20bc;" horiz-adv-x="630" 
d="M53 0v329q0 92 31.5 152.5t90.5 90t140 29.5t139.5 -29.5t90 -90t31.5 -152.5v-329h-145v265q0 63 -7.5 109t-32 70.5t-76.5 24.5t-77 -24.5t-32 -70.5t-7 -109v-265h-146zM349 699v-595h-68v595h68z" />
    <glyph glyph-name="uni20BD" unicode="&#x20bd;" horiz-adv-x="591" 
d="M312 700q95 0 149 -20.5t77 -70t23 -135.5t-22 -135t-72 -69.5t-135 -20.5q-34 0 -66.5 0.5t-64 1.5t-62 2.5t-61.5 4t-63 5.5l2 101h68h79h79h66q38 0 59.5 10t30 34.5t8.5 65.5q0 42 -8.5 66.5t-30 34.5t-59.5 10q-59 0 -98.5 -0.5t-65.5 -1.5t-42 -3l-14 110
q31 3 53.5 5t44.5 3t51.5 1.5t73.5 0.5zM241 690v-690h-152v690h152zM448 171l-5 -71h-427l-1 71h433z" />
    <glyph glyph-name="numbersign" unicode="#" horiz-adv-x="713" 
d="M347 690l-120 -690h-112l120 690h112zM598 690l-120 -690h-112l120 690h112zM680 515l-18 -89h-587l17 89h588zM638 286l-18 -89h-587l17 89h588z" />
    <glyph glyph-name="section" unicode="&#xa7;" horiz-adv-x="555" 
d="M171 359q-2 -40 3.5 -64.5t22.5 -42t50 -35.5l159 -87q25 -14 48 -32t38.5 -48.5t15.5 -80.5q0 -62 -26.5 -94.5t-76.5 -43.5t-121 -11q-26 1 -65.5 2t-82.5 4t-79 6l10 105q29 -1 54 -2t53 -1.5t67 -0.5q35 0 58.5 2.5t36 11t13.5 27.5q3 26 -13.5 41t-39.5 27l-139 72
q-55 28 -80 62.5t-26 79.5t16 103h104zM272 704q26 0 66 -1.5t83 -4t77 -6.5l-10 -105q-26 2 -49.5 2.5t-52 0.5h-71.5q-35 1 -59 -1.5t-36.5 -10.5t-13.5 -27q-3 -26 13.5 -41t40.5 -27l139 -72q56 -28 80.5 -63t25 -79.5t-16.5 -102.5h-104q2 39 -3.5 63.5t-22.5 42.5
t-50 36l-159 88q-24 14 -47.5 32t-39 48t-15.5 80q0 60 25.5 92t76 44t123.5 12z" />
    <glyph glyph-name="currency" unicode="&#xa4;" horiz-adv-x="584" 
d="M291 471q-31 0 -57.5 -16t-42.5 -43t-16 -59q0 -33 16 -60t42.5 -42.5t57.5 -15.5q32 0 58.5 15.5t42.5 42.5t16 60q0 32 -16 59t-42.5 43t-58.5 16zM114 592l85 -86l-61 -61l-86 85zM472 592l62 -62l-83 -83l-62 62zM140 270l66 -67l-92 -92l-66 67zM443 262l91 -90
l-62 -61l-90 89zM291 555q57 0 102.5 -27.5t73 -73.5t27.5 -102t-27.5 -102t-73.5 -73.5t-101 -27.5q-56 0 -102 27.5t-73.5 73.5t-27.5 102t27.5 102t73.5 73.5t101 27.5z" />
    <glyph glyph-name="paragraph" unicode="&#xb6;" horiz-adv-x="607" 
d="M352 702q35 0 83.5 -3.5t87.5 -13.5l-6 -85q-25 5 -57.5 7.5t-64 3.5t-55.5 1l-68 -412q-130 10 -186 68t-56 182q0 93 32 148t103 79.5t187 24.5zM359 685v-895h-97v895h97zM523 685v-685h-96v685h96z" />
    <glyph glyph-name="percent" unicode="%" horiz-adv-x="908" 
d="M205 704q64 0 102 -19.5t54 -64.5t16 -122q0 -76 -16 -121t-54 -65t-102 -20q-63 0 -100.5 20t-54 65t-16.5 121q0 77 16.5 122t54 64.5t100.5 19.5zM205 622q-24 0 -37 -10t-18.5 -36.5t-5.5 -77.5t5.5 -77.5t18.5 -36.5t37 -10q25 0 38 10t18.5 36.5t5.5 77.5
t-5.5 77.5t-18.5 36.5t-38 10zM706 690l-413 -690h-93l413 690h93zM702 399q64 0 101.5 -19.5t53.5 -64t16 -121.5q0 -76 -16 -121.5t-53.5 -65t-101.5 -19.5q-63 0 -100.5 19.5t-54 65t-16.5 121.5q0 77 16.5 121.5t54 64t100.5 19.5zM701 317q-24 0 -37.5 -9.5t-18.5 -36
t-5 -77.5t5 -78t18.5 -36.5t37.5 -9.5q25 0 38 9.5t19 36.5t6 78t-6 77.5t-19 36t-38 9.5z" />
    <glyph glyph-name="perthousand" unicode="&#x2030;" horiz-adv-x="1296" 
d="M205 704q64 0 102 -19.5t54 -64.5t16 -122q0 -76 -16 -121t-54 -65t-102 -20q-63 0 -100.5 20t-54 65t-16.5 121q0 77 16.5 122t54 64.5t100.5 19.5zM205 622q-24 0 -37 -9.5t-18.5 -36.5t-5.5 -78t5.5 -78t18.5 -36.5t37 -9.5q25 0 38 9.5t18.5 36.5t5.5 78t-5.5 78
t-18.5 36.5t-38 9.5zM706 690l-413 -690h-93l413 690h93zM702 399q64 0 101.5 -19.5t53.5 -64t16 -121.5q0 -76 -16 -121.5t-53.5 -65t-101.5 -19.5q-63 0 -100.5 19.5t-54 65t-16.5 121.5q0 77 16.5 121.5t54 64t100.5 19.5zM701 317q-24 0 -37.5 -9.5t-18.5 -36t-5 -77.5
t5 -78t18.5 -36.5t37.5 -9.5q25 0 38 9.5t19 36.5t6 78t-6 77.5t-19 36t-38 9.5zM1088 399q64 0 102 -19.5t54 -64t16 -121.5q0 -76 -16 -121.5t-54 -65t-102 -19.5q-63 0 -100.5 19.5t-53.5 65t-16 121.5q0 77 16 121.5t53.5 64t100.5 19.5zM1088 317q-24 0 -37 -9.5
t-18.5 -36t-5.5 -77.5t5.5 -78t18.5 -36.5t37 -9.5q25 0 38.5 9.5t18.5 36.5t5 78t-5 77.5t-18.5 36t-38.5 9.5z" />
    <glyph glyph-name="degree" unicode="&#xb0;" horiz-adv-x="344" 
d="M172 704q37 0 68 -18t49.5 -48.5t18.5 -66.5q0 -37 -18.5 -68t-49.5 -49t-68 -18t-68 18t-49.5 49t-18.5 68q0 36 18.5 66t49.5 48.5t68 18.5zM173 632q-26 0 -44 -17t-18 -45q0 -17 8.5 -31.5t22.5 -22.5t31 -8q16 0 29.5 8t22 22.5t8.5 31.5q0 28 -17.5 45t-42.5 17z
" />
    <glyph glyph-name="minute" unicode="&#x2032;" horiz-adv-x="212" 
d="M160 690l-9 -222h-90l-9 222h108z" />
    <glyph glyph-name="second" unicode="&#x2033;" horiz-adv-x="373" 
d="M321 690l-9 -222h-89l-9 222h107zM160 690l-9 -222h-90l-9 222h108z" />
    <glyph glyph-name="ordfeminine" unicode="&#xaa;" horiz-adv-x="437" 
d="M248 615q64 0 98.5 -26.5t34.5 -98.5v-215h-87l-15 72l-6 11v133q0 21 -11 31.5t-38 10.5q-30 0 -69.5 -1.5t-80.5 -4.5l-10 73q24 4 56 7.5t66 5.5t62 2zM337 478l-1 -47l-147 -12q-20 -1 -28.5 -8.5t-8.5 -20.5v-13q0 -16 10 -24t30 -8t41 8.5t40.5 22t32.5 27.5v-41
q-6 -11 -18.5 -27t-31 -32t-44.5 -26t-58 -10q-45 0 -76 23t-31 68v36q0 39 27 61.5t75 22.5h188z" />
    <glyph glyph-name="ordmasculine" unicode="&#xba;" horiz-adv-x="439" 
d="M220 615q97 0 137 -39.5t40 -136.5q0 -62 -17.5 -100.5t-56 -55t-103.5 -16.5q-98 0 -137.5 38.5t-39.5 133.5q0 97 39.5 136.5t137.5 39.5zM220 537q-37 0 -50.5 -19t-13.5 -78q0 -58 13.5 -77t50.5 -19t50 19t13 77q0 59 -13 78t-50 19z" />
    <glyph glyph-name="fraction" unicode="&#x2044;" horiz-adv-x="160" 
d="M333 690l-413 -690h-94l413 690h94z" />
    <glyph glyph-name="zero.numr" horiz-adv-x="421" 
d="M211 677q61 0 98 -20t53.5 -67t16.5 -127t-17 -127t-54.5 -67t-97.5 -20q-61 0 -98 20t-54 67t-17 127t17 127t54.5 67t98.5 20zM210 591q-35 0 -46 -27t-11 -101q0 -75 11 -101.5t46 -26.5q24 0 36.5 11t17 39t4.5 78q0 49 -4.5 77t-17 39.5t-36.5 11.5z" />
    <glyph glyph-name="one.numr" horiz-adv-x="308" 
d="M243 670v-411h-114v270q0 12 1 24t3 25l-102 -22l-13 73l111 41h114z" />
    <glyph glyph-name="two.numr" horiz-adv-x="423" 
d="M201 676q55 0 92 -8t55 -31.5t18 -67.5q0 -26 -18 -57t-54 -65l-106 -97q17 4 30.5 5t30.5 0l131 -2l-1 -94h-332v57q0 14 3.5 25.5t12.5 20.5l100 94q24 22 40.5 39.5t26.5 32t12 26.5q3 18 -11.5 23t-40.5 5q-32 0 -61.5 -1t-73.5 -3l-4 85q48 9 87.5 11t62.5 2z" />
    <glyph glyph-name="three.numr" horiz-adv-x="409" 
d="M201 677q85 0 119 -20.5t34 -75.5q0 -45 -15 -71t-60 -33v-2q49 -7 67.5 -31.5t19.5 -71.5q1 -66 -36 -94.5t-126 -28.5q-41 0 -82 3.5t-78 8.5l4 82q28 -2 48 -2.5t38.5 -1t38.5 -0.5q46 0 61 10t15 38q0 14 -4.5 24t-17.5 15.5t-40 5.5l-86 1v72l86 3q26 0 38 6
t15.5 15.5t2.5 21.5q0 22 -12 29t-50 7q-34 0 -67 -0.5t-58 -1.5l-4 79q38 6 75.5 9.5t73.5 3.5z" />
    <glyph glyph-name="four.numr" horiz-adv-x="435" 
d="M144 671h108l-98 -232q-4 -10 -0.5 -15t13.5 -5h230v-74l-42 -9l-282 -1q-25 0 -38 20.5t-3 44.5zM355 586v-327h-103v261l16 66h87z" />
    <glyph glyph-name="five.numr" horiz-adv-x="392" 
d="M325 669l-4 -84h-171l-3 -61l63 -7q51 -4 80.5 -20.5t41.5 -44t12 -65.5q0 -35 -12.5 -66.5t-44.5 -51.5t-91 -20q-20 0 -47 1.5t-55.5 4t-53.5 6.5l9 83q30 -3 64 -5.5t56 -2.5q27 0 40.5 6t18.5 16.5t5 26.5q1 23 -7.5 33t-28.5 14t-55 6l-64 6q-13 2 -20.5 11t-6.5 21
l10 193h264z" />
    <glyph glyph-name="six.numr" horiz-adv-x="422" 
d="M231 677q11 0 30 -0.5t41 -2.5t41 -8l-5 -74q-23 1 -47.5 1.5t-57.5 0.5q-23 0 -37 -4.5t-22 -18.5t-10.5 -43t-2.5 -77q0 -42 2.5 -68.5t14 -38.5t37.5 -12q20 0 30.5 7t14 20.5t3.5 33.5q0 32 -11 43t-37 11q-17 0 -31 -4.5t-30 -14t-40 -27.5l-2 47q30 43 60 59.5
t75 16.5q68 0 96.5 -28.5t28.5 -98.5q0 -50 -14 -83t-49 -49t-97 -16q-61 0 -96.5 17t-50.5 62t-15 128q0 71 12 115t35 67t56.5 31t77.5 8z" />
    <glyph glyph-name="seven.numr" horiz-adv-x="382" 
d="M307 668q22 0 33 -14t4 -35l-126 -360h-111l99 279l8 20t10 19h-187l-5 91h275z" />
    <glyph glyph-name="eight.numr" horiz-adv-x="439" 
d="M220 677q60 0 93.5 -11.5t47.5 -36t14 -62.5q0 -36 -15.5 -63t-48.5 -32v-3q43 -4 58.5 -35.5t15.5 -74.5q0 -40 -15 -64.5t-51 -35t-99 -10.5q-93 0 -129.5 25t-36.5 85q0 43 16 74.5t59 35.5v3q-34 5 -49.5 32t-15.5 63q0 58 33.5 84t122.5 26zM221 431
q-24 0 -36.5 -4.5t-17 -16.5t-4.5 -33q0 -28 11.5 -39.5t46.5 -11.5q33 0 44.5 11.5t11.5 39.5q0 22 -5 33.5t-17 16t-34 4.5zM221 603q-30 0 -41.5 -9.5t-11.5 -35.5q0 -19 4.5 -30t16 -15t32.5 -4t31.5 4.5t15 15t4.5 29.5q0 26 -11 35.5t-40 9.5z" />
    <glyph glyph-name="nine.numr" horiz-adv-x="422" 
d="M195 249q-10 0 -31.5 0.5t-45.5 3t-44 8.5l5 73q24 -1 52.5 -2t61.5 -1q22 0 36 5t21.5 19.5t10.5 43t3 76.5q0 43 -2.5 69t-13.5 37.5t-37 11.5q-30 0 -39 -15t-9 -45q0 -32 10.5 -43t36.5 -11q18 0 32 4t30 14t39 28l2 -47q-29 -43 -59.5 -59.5t-75.5 -16.5
q-65 0 -95 30.5t-30 98.5q0 48 15 80.5t50 49t96 16.5q62 0 97 -16.5t49 -61.5t14 -129q0 -72 -11.5 -116t-34 -67t-56 -30.5t-77.5 -7.5z" />
    <glyph glyph-name="zero.dnom" horiz-adv-x="424" 
d="M211 417q61 0 98 -20t53.5 -67t16.5 -127t-17 -127t-54.5 -67t-97.5 -20q-61 0 -98 20t-54 67t-17 127t17 127t54.5 67t98.5 20zM210 331q-35 0 -46 -27t-11 -101q0 -75 11 -101.5t46 -26.5q24 0 36.5 11t17 39t4.5 78q0 49 -4.5 77t-17 39.5t-36.5 11.5z" />
    <glyph glyph-name="one.dnom" horiz-adv-x="311" 
d="M243 411v-411h-114v270q0 12 1 24t3 25l-102 -22l-13 73l111 41h114z" />
    <glyph glyph-name="two.dnom" horiz-adv-x="426" 
d="M201 417q55 0 92 -8t55 -31.5t18 -67.5q0 -26 -18 -57t-54 -65l-106 -97q17 4 30.5 5t30.5 0l131 -2l-1 -94h-332v57q0 14 3.5 25.5t12.5 20.5l100 94q24 22 40.5 39.5t26.5 32t12 26.5q3 18 -11.5 23t-40.5 5q-32 0 -61.5 -1t-73.5 -3l-4 85q48 9 87.5 11t62.5 2z" />
    <glyph glyph-name="three.dnom" horiz-adv-x="411" 
d="M201 419q85 0 119 -20.5t34 -75.5q0 -45 -15 -71t-60 -33v-2q49 -7 67.5 -31.5t19.5 -71.5q1 -66 -36 -94.5t-126 -28.5q-41 0 -82 3.5t-78 8.5l4 82q28 -2 48 -2.5t38.5 -1t38.5 -0.5q46 0 61 10t15 38q0 14 -4.5 24t-17.5 15.5t-40 5.5l-86 1v72l86 3q26 0 38 6
t15.5 15.5t2.5 21.5q0 22 -12 29t-50 7q-34 0 -67 -0.5t-58 -1.5l-4 79q38 6 75.5 9.5t73.5 3.5z" />
    <glyph glyph-name="four.dnom" horiz-adv-x="438" 
d="M144 412h108l-98 -232q-4 -10 -0.5 -15t13.5 -5h230v-74l-42 -9l-282 -1q-25 0 -38 20.5t-3 44.5zM355 327v-327h-103v261l16 66h87z" />
    <glyph glyph-name="five.dnom" horiz-adv-x="395" 
d="M325 409l-4 -84h-171l-3 -61l63 -7q51 -4 80.5 -20.5t41.5 -44t12 -65.5q0 -35 -12.5 -66.5t-44.5 -51.5t-91 -20q-20 0 -47 1.5t-55.5 4t-53.5 6.5l9 83q30 -3 64 -5.5t56 -2.5q27 0 40.5 6t18.5 16.5t5 26.5q1 23 -7.5 33t-28.5 14t-55 6l-64 6q-13 2 -20.5 11t-6.5 21
l10 193h264z" />
    <glyph glyph-name="six.dnom" horiz-adv-x="425" 
d="M231 417q11 0 30 -0.5t41 -2.5t41 -8l-5 -74q-23 1 -47.5 1.5t-57.5 0.5q-23 0 -37 -4.5t-22 -18.5t-10.5 -43t-2.5 -77q0 -42 2.5 -68.5t14 -38.5t37.5 -12q20 0 30.5 7t14 20.5t3.5 33.5q0 32 -11 43t-37 11q-17 0 -31 -4.5t-30 -14t-40 -27.5l-2 47q30 43 60 59.5
t75 16.5q68 0 96.5 -28.5t28.5 -98.5q0 -50 -14 -83t-49 -49t-97 -16q-61 0 -96.5 17t-50.5 62t-15 128q0 71 12 115t35 67t56.5 31t77.5 8z" />
    <glyph glyph-name="seven.dnom" horiz-adv-x="385" 
d="M307 409q22 0 33 -14t4 -35l-126 -360h-111l99 279l8 20t10 19h-187l-5 91h275z" />
    <glyph glyph-name="eight.dnom" horiz-adv-x="441" 
d="M220 417q60 0 93.5 -11.5t47.5 -36t14 -62.5q0 -36 -15.5 -63t-48.5 -32v-3q43 -4 58.5 -35.5t15.5 -74.5q0 -40 -15 -64.5t-51 -35t-99 -10.5q-93 0 -129.5 25t-36.5 85q0 43 16 74.5t59 35.5v3q-34 5 -49.5 32t-15.5 63q0 58 33.5 84t122.5 26zM221 171
q-24 0 -36.5 -4.5t-17 -16.5t-4.5 -33q0 -28 11.5 -39.5t46.5 -11.5q33 0 44.5 11.5t11.5 39.5q0 22 -5 33.5t-17 16t-34 4.5zM221 343q-30 0 -41.5 -9.5t-11.5 -35.5q0 -19 4.5 -30t16 -15t32.5 -4t31.5 4.5t15 15t4.5 29.5q0 26 -11 35.5t-40 9.5z" />
    <glyph glyph-name="nine.dnom" horiz-adv-x="425" 
d="M195 -11q-10 0 -31.5 0.5t-45.5 3t-44 8.5l5 73q24 -1 52.5 -2t61.5 -1q22 0 36 5t21.5 19.5t10.5 43t3 76.5q0 43 -2.5 69t-13.5 37.5t-37 11.5q-30 0 -39 -15t-9 -45q0 -32 10.5 -43t36.5 -11q18 0 32 4t30 14t39 28l2 -47q-29 -43 -59.5 -59.5t-75.5 -16.5
q-65 0 -95 30.5t-30 98.5q0 48 15 80.5t50 49t96 16.5q62 0 97 -16.5t49 -61.5t14 -129q0 -72 -11.5 -116t-34 -67t-56 -30.5t-77.5 -7.5z" />
    <glyph glyph-name="onehalf" unicode="&#xbd;" horiz-adv-x="915" 
d="M661 690l-417 -690h-94l417 690h94zM251 690v-414h-114v273q0 12 1 24t4 25l-101 -21l-13 72l109 41h114zM696 421q56 0 93 -8t55 -31t18 -68q0 -26 -18 -57t-54 -65l-107 -100q17 4 31 5t31 0l131 -2l-1 -95h-332v59q0 14 3.5 25t12.5 21l100 94q35 33 55.5 58t24.5 43
q2 18 -12 22.5t-42 4.5q-33 0 -61.5 -0.5t-72.5 -2.5l-4 84q49 9 87 11t62 2z" />
    <glyph glyph-name="onequarter" unicode="&#xbc;" horiz-adv-x="904" 
d="M664 690l-417 -690h-93l416 690h94zM251 690v-414h-114v273q0 12 1 24t4 25l-101 -21l-13 72l109 41h114zM709 414l-102 -234q-3 -8 0.5 -12t12.5 -4h251v-68l-51 -10h-284q-27 0 -42 19t-2 46l115 263h102zM824 333v-333h-105v269l19 64h86z" />
    <glyph glyph-name="threequarters" unicode="&#xbe;" horiz-adv-x="986" 
d="M753 690l-417 -690h-94l416 690h95zM200 696q87 0 120.5 -20.5t33.5 -76.5q0 -44 -15 -71t-62 -34v-2q51 -7 69 -31.5t19 -72.5q2 -66 -34.5 -94.5t-127.5 -28.5q-40 0 -81 3.5t-79 7.5l4 82q28 -1 48.5 -1.5t38.5 -1t38 -0.5q46 0 61.5 10t15.5 39q0 16 -4.5 26
t-17.5 15.5t-40 5.5l-86 1v70l86 2q26 0 38 6t15 16t3 23q0 23 -12.5 30t-50.5 7q-35 1 -67 0.5t-57 -1.5l-4 79q38 6 74.5 9t73.5 3zM792 414l-102 -234q-3 -8 1 -12t13 -4h250v-68l-51 -10h-284q-27 0 -42 19t-2 46l114 263h103zM906 333v-333h-105v269l18 64h87z" />
    <glyph glyph-name="lessequal" unicode="&#x2264;" horiz-adv-x="560" 
d="M491 562v-116l-300 -69l300 -66v-116l-427 125v115zM493 162v-111h-440v111h440z" />
    <glyph glyph-name="greaterequal" unicode="&#x2265;" horiz-adv-x="560" 
d="M70 562l426 -127v-115l-426 -125v116l300 66l-300 69v116zM507 162v-111h-440v111h440z" />
    <glyph glyph-name="notequal" unicode="&#x2260;" horiz-adv-x="614" 
d="M439 565l35 -18l-323 -533l-34 18zM540 457v-105h-460v105h460zM540 243v-105h-460v105h460z" />
    <glyph glyph-name="asciicircum" unicode="^" horiz-adv-x="462" 
d="M285 627l147 -225l-58 -32l-138 165h-8l-140 -165l-58 32l148 225h107z" />
    <glyph glyph-name="asciitilde" unicode="~" horiz-adv-x="512" 
d="M142 362q22 0 50.5 -7.5t58 -16.5t55.5 -17t43 -10q25 -3 31 8t6 38h66q12 -73 -13 -109t-68 -35q-24 1 -52.5 8t-58 16t-55 17t-42.5 10q-25 4 -30.5 -7.5t-5.5 -39.5h-66q-8 51 2 83.5t31 47.5t48 14z" />
    <glyph glyph-name="plusminus" unicode="&#xb1;" horiz-adv-x="573" 
d="M514 428v-109h-455v109h455zM514 154v-110h-455v110h455zM341 549v-350h-109v350h109z" />
    <glyph glyph-name="infinity" unicode="&#x221e;" horiz-adv-x="817" 
d="M396 358q35 35 65.5 62.5t67.5 43t88 15.5q85 0 125 -44t40 -124q0 -82 -42 -127.5t-132 -45.5q-64 0 -110.5 20.5t-82 56.5t-65.5 79q-16 23 -32.5 40.5t-37.5 27.5t-51 10q-34 0 -48.5 -17.5t-14.5 -48.5q0 -67 66 -67q18 0 34.5 4t32.5 12.5t32 20.5l69 40l21 -57
q-34 -35 -65 -62.5t-67.5 -43t-88.5 -15.5q-84 0 -124.5 44t-40.5 124q0 82 42 127.5t133 45.5q64 0 110.5 -21t82 -56.5t65.5 -80.5q15 -21 31.5 -38t38 -27.5t51.5 -10.5q33 0 48 17.5t15 48.5q0 67 -66 67q-17 0 -34 -4t-33 -12t-33 -21l-69 -40z" />
    <glyph glyph-name="uni03BC" unicode="&#x3bc;" horiz-adv-x="625" 
d="M208 494v-309q0 -43 15 -57t44 -14q24 0 45.5 12t39 35t28 55.5t11.5 72.5l3 -196q-14 -29 -39.5 -53t-58 -38.5t-69.5 -14.5q-47 0 -84 14t-59 46t-22 84v363h146zM60 494h148v-564l-19 -118h-129v682zM538 494v-359q0 -24 5 -36.5t23 -12.5h41l6 -76q-24 -8 -56 -15
t-63 -7q-43 0 -71.5 21.5t-28.5 69.5v14l-3 16v385h147z" />
    <glyph glyph-name="partialdiff" unicode="&#x2202;" horiz-adv-x="593" 
d="M117 704q117 3 201.5 -11t137 -54t75.5 -113.5t17 -187.5q-4 -94 -22.5 -160.5t-51.5 -108.5t-83 -61.5t-118 -19.5q-72 0 -119 22.5t-72.5 59t-34.5 80t-7 87.5q3 42 16.5 81t39.5 69.5t66 48t96 17.5q42 0 77 -11.5t65.5 -40.5t57.5 -81l-7 -32q-35 23 -62 34.5t-50 16
t-45 4.5q-55 0 -79.5 -31.5t-26.5 -77.5q-3 -39 5.5 -68t29.5 -45.5t56 -16.5t56.5 16t33 45.5t18 71.5t10.5 93q6 79 0 131t-34 83.5t-87 45t-159 13.5v101z" />
    <glyph glyph-name="summation" unicode="&#x2211;" horiz-adv-x="594" 
d="M545 690v-107h-326l142 -249l-156 -363h350v-107h-515v107l156 363l-144 249v107h493z" />
    <glyph glyph-name="product" unicode="&#x220f;" horiz-adv-x="715" 
d="M597 687v-783h-148v783h148zM266 687v-783h-147v783h147zM684 690v-109h-652v109h652z" />
    <glyph glyph-name="pi" unicode="&#x3c0;" horiz-adv-x="649" 
d="M247 494v-494h-148v494h148zM629 494v-103h-609v103h609zM550 494v-494h-148v494h148z" />
    <glyph glyph-name="integral" unicode="&#x222b;" horiz-adv-x="361" 
d="M213 714h52t69 -4l-9 -106h-63q-22 0 -32 -10.5t-9 -41.5l49 -641q5 -68 -23 -100.5t-106 -32.5h-21t-34 0.5t-35 1.5t-23 2l8 106h60q25 0 35 12.5t8 43.5l-47 637q-4 66 29.5 99.5t91.5 33.5z" />
    <glyph glyph-name="uni03A9" unicode="&#x3a9;" horiz-adv-x="720" 
d="M361 704q108 0 174 -35t95.5 -105.5t29.5 -176.5q0 -68 -14.5 -117t-45.5 -87.5t-81 -75.5q20 7 36.5 10t33.5 3h86l1 -120h-279v113q40 32 62 67t32 80t10 107q0 82 -13.5 129.5t-44.5 67.5t-83 20q-54 0 -84.5 -20.5t-43.5 -68t-13 -130.5q0 -68 10.5 -112t33 -75.5
t59.5 -64.5v-113h-278v120h86q18 0 34.5 -2.5t35.5 -10.5q-50 39 -81 78.5t-45 88.5t-14 115q0 105 29.5 175t95.5 105t176 35z" />
    <glyph glyph-name="logicalnot" unicode="&#xac;" horiz-adv-x="580" 
d="M518 356v-105h-461v105h461zM518 346v-211h-111v205z" />
    <glyph glyph-name="radical" unicode="&#x221a;" horiz-adv-x="578" 
d="M568 876l-224 -868q-3 -8 -13 -8h-175q-11 0 -13 8l-125 486h120l99 -399h13l197 781h121z" />
    <glyph glyph-name="approxequal" unicode="&#x2248;" horiz-adv-x="581" 
d="M179 268q20 -1 47.5 -8.5t57.5 -16.5t57.5 -16.5t48.5 -9.5q24 -2 29 9t5 36h92q16 -74 -14 -112t-101 -35q-22 0 -49.5 7.5t-57 16.5t-57 17t-48.5 9q-23 1 -28.5 -9t-5.5 -37h-92q-10 54 2.5 87.5t42.5 49t71 12.5zM179 465q20 -1 47.5 -8.5t57.5 -16.5t57.5 -16
t48.5 -9q24 -2 29 8t5 37h92q16 -74 -14 -112t-101 -36q-22 1 -49.5 8t-57 16.5t-57 17t-48.5 8.5q-23 2 -28.5 -8.5t-5.5 -37.5h-92q-10 54 2.5 88t42.5 49t71 12z" />
    <glyph glyph-name="uni0394" unicode="&#x394;" horiz-adv-x="665" 
d="M408 690l236 -637v-53h-623v53l236 637h151zM333 544q-5 -22 -10 -44.5t-12 -45.5l-119 -342h280l-118 343q-7 22 -11.5 44.5t-9.5 44.5z" />
    <glyph glyph-name="lozenge" unicode="&#x25ca;" horiz-adv-x="573" 
d="M297 690l248 -334q6 -10 0 -20l-248 -336q-10 -12 -19 0l-249 336q-6 10 0 20l249 334q9 12 19 0zM287 546l-142 -200l142 -202l142 202z" />
    <glyph glyph-name="acute" unicode="&#xb4;" horiz-adv-x="353" 
d="M247 739l64 -100l-223 -111l-44 63z" />
    <glyph glyph-name="breve" unicode="&#x2d8;" horiz-adv-x="393" 
d="M290 708l71 -10q6 -41 -13 -76t-57 -55.5t-94 -20.5q-54 0 -93 20.5t-58 55.5t-14 76l71 10q0 -33 23 -50t72 -17q47 0 69.5 17t22.5 50z" />
    <glyph glyph-name="caron" unicode="&#x2c7;" horiz-adv-x="449" 
d="M370 739l39 -57l-153 -129h-61l-154 129l40 57l141 -81h8z" />
    <glyph glyph-name="cedilla" unicode="&#xb8;" horiz-adv-x="249" 
d="M81 -38q51 6 83 3.5t47 -18t14 -50.5q-2 -50 -29 -82.5t-72 -45.5t-100 -6l17 62q37 -1 62.5 12.5t27.5 46.5q2 15 -10.5 18t-53.5 4z" />
    <glyph glyph-name="circumflex" unicode="&#x2c6;" horiz-adv-x="449" 
d="M279 729l134 -134l-39 -53l-144 95h-8l-147 -95l-39 57l136 130h107z" />
    <glyph glyph-name="dieresis" unicode="&#xa8;" horiz-adv-x="424" 
d="M328 707q32 0 32 -32v-59q0 -32 -32 -32h-49q-31 0 -31 32v59q0 32 31 32h49zM145 707q31 0 31 -32v-59q0 -32 -31 -32h-49q-31 0 -31 32v59q0 32 31 32h49z" />
    <glyph glyph-name="dotaccent" unicode="&#x2d9;" horiz-adv-x="236" 
d="M141 705q42 0 42 -41v-52q0 -42 -42 -42h-46q-42 0 -42 42v52q0 41 42 41h46z" />
    <glyph glyph-name="grave" unicode="`" horiz-adv-x="354" 
d="M102 745l203 -148l-43 -63l-224 112z" />
    <glyph glyph-name="hungarumlaut" unicode="&#x2dd;" horiz-adv-x="501" 
d="M161 749l96 -64l-152 -168l-61 48zM351 749l95 -64l-152 -168l-60 47z" />
    <glyph glyph-name="macron" unicode="&#xaf;" horiz-adv-x="400" 
d="M350 693v-94h-300v94h300z" />
    <glyph glyph-name="ogonek" unicode="&#x2db;" horiz-adv-x="251" 
d="M141 2l60 -2q-17 -23 -32.5 -47t-28.5 -53q-14 -32 6 -40t57 1l11 -53q-54 -22 -91 -22.5t-58.5 14.5t-27 39t3.5 50q8 25 32 54t68 59z" />
    <glyph glyph-name="ring" unicode="&#x2da;" horiz-adv-x="309" 
d="M155 765q32 0 59 -15.5t43 -41.5t16 -58t-16 -58.5t-43 -42t-59 -15.5t-59.5 15.5t-43.5 41.5t-16 59q0 32 16 58t43.5 41.5t59.5 15.5zM154 702q-21 0 -36 -14.5t-15 -38.5q0 -23 15 -37.5t36 -14.5q23 0 37.5 14.5t14.5 37.5q0 24 -14.5 38.5t-37.5 14.5z" />
    <glyph glyph-name="tilde" unicode="&#x2dc;" horiz-adv-x="440" 
d="M130 712q25 -2 45 -8.5t38.5 -14.5t37 -15.5t38.5 -10.5q26 -4 32.5 7t6.5 37h64q11 -71 -14 -107.5t-68 -33.5q-34 3 -61.5 13.5t-51 22t-47.5 14.5q-25 3 -31.5 -8t-6.5 -38h-64q-7 50 3 82t32 47t47 13z" />
    <glyph glyph-name="CR" unicode="&#xd;" horiz-adv-x="216" 
 />
    <glyph glyph-name="uni00B9" unicode="&#xb9;" horiz-adv-x="308" 
d="M243 771v-411h-114v270q0 12 1 24t3 25l-102 -22l-13 73l111 41h114z" />
    <glyph glyph-name="uni00B2" unicode="&#xb2;" horiz-adv-x="423" 
d="M201 777q55 0 92 -8t55 -31.5t18 -67.5q0 -26 -18 -57t-54 -65l-106 -97q17 4 30.5 5t30.5 0l131 -2l-1 -94h-332v57q0 14 3.5 25.5t12.5 20.5l100 94q24 22 40.5 39.5t26.5 32t12 26.5q3 18 -11.5 23t-40.5 5q-32 0 -61.5 -1t-73.5 -3l-4 85q48 9 87.5 11t62.5 2z" />
    <glyph glyph-name="uni00B3" unicode="&#xb3;" horiz-adv-x="409" 
d="M201 779q85 0 119 -20.5t34 -75.5q0 -45 -15 -71t-60 -33v-2q49 -7 67.5 -31.5t19.5 -71.5q1 -66 -36 -94.5t-126 -28.5q-41 0 -82 3.5t-78 8.5l4 82q28 -2 48 -2.5t38.5 -1t38.5 -0.5q46 0 61 10t15 38q0 14 -4.5 24t-17.5 15.5t-40 5.5l-86 1v72l86 3q26 0 38 6
t15.5 15.5t2.5 21.5q0 22 -12 29t-50 7q-34 0 -67 -0.5t-58 -1.5l-4 79q38 6 75.5 9.5t73.5 3.5z" />
    <glyph glyph-name="c_t" horiz-adv-x="856" 
d="M837 494v-97h-522q-45 0 -71 -13t-37.5 -45.5t-11.5 -90.5q0 -55 11 -86t37 -43t71 -12q20 0 57.5 1.5t73.5 7.5l13 -94q-35 -18 -80 -26t-90 -8q-91 0 -145.5 25.5t-78.5 82.5t-24 152q0 90 25.5 143.5t80.5 78t144 24.5h547zM698 631v-473q0 -27 13 -38.5t42 -11.5h64
l16 -100q-18 -6 -44 -10.5t-52 -7t-44 -2.5q-68 0 -105 36t-37 101l-1 506h148z" />
    <glyph glyph-name="s_t" horiz-adv-x="892" 
d="M873 494v-97l-595 -1q-39 0 -60 -1.5t-29.5 -8t-8.5 -23.5q0 -23 15 -30.5t50 -16.5l129 -32q60 -16 88.5 -47.5t28.5 -94.5q0 -62 -22.5 -95t-71 -45.5t-126.5 -12.5q-31 0 -92 3t-134 15l10 92q18 -1 47 -1.5t62 -0.5h64q46 0 72.5 2.5t37 11.5t10.5 27q0 23 -17 31.5
t-49 15.5l-125 31q-47 13 -73 33t-36.5 49t-10.5 69q0 45 20.5 73t67 41t123.5 13h625zM735 631v-473q0 -27 12.5 -38.5t42.5 -11.5h63l16 -100q-18 -6 -44 -10.5t-51.5 -7t-43.5 -2.5q-67 0 -105 36t-38 101v506h148z" />
    <glyph glyph-name="uni00A0" unicode="&#xa0;" horiz-adv-x="216" 
 />
    <glyph glyph-name="estimated" unicode="&#x212e;" horiz-adv-x="615" 
d="M426 250v142q0 32 -17 48.5t-43.5 22.5t-55.5 6q-30 0 -58.5 -6t-47.5 -22.5t-19 -48.5v-304q0 -30 20 -47t50.5 -23.5t60.5 -6.5q56 0 98 24.5t84 73.5l14 -11q-44 -60 -96 -85t-106 -25q-67 0 -121.5 28.5t-86.5 85t-32 138.5q0 83 32 139t86.5 84.5t121.5 28.5
q62 0 115.5 -26.5t86.5 -80t33 -135.5h-119zM414 259h131v-23h-387v18q7 1 29.5 1.5t54 1t65 1t62 1t45.5 0.5z" />
    <glyph glyph-name="uni1EAE" unicode="&#x1eae;" horiz-adv-x="653" 
d="M399 690q19 0 33.5 -11t19.5 -29l200 -650h-156l-141 507q-4 17 -8 34.5t-7 33.5h-27q-3 -16 -6.5 -33.5t-8.5 -34.5l-141 -507h-157l201 650q5 18 19.5 29t33.5 11h145zM505 297v-115h-358v115h358zM420 901l71 -10q6 -41 -13 -76t-57 -55.5t-94 -20.5q-54 0 -93 20.5
t-58 55.5t-14 76l71 10q0 -33 23 -50t72 -17q47 0 69.5 17t22.5 50zM417 1073l59 -91l-170 -83l-41 57z" />
    <glyph glyph-name="uni1EB6" unicode="&#x1eb6;" horiz-adv-x="653" 
d="M420 900l71 -10q5 -41 -13 -76t-56.5 -55.5t-94.5 -20.5q-55 0 -93.5 20.5t-57.5 55.5t-14 76l71 10q0 -33 23 -50t71 -17q47 0 70 17t23 50zM399 690q19 0 33.5 -11t19.5 -29l200 -650h-156l-141 507q-4 17 -8 34.5t-7 33.5h-27q-3 -16 -6.5 -33.5t-8.5 -34.5l-141 -507
h-157l201 650q5 18 19.5 29t33.5 11h145zM505 297v-115h-358v115h358zM351 -49q43 0 43 -42v-51q0 -42 -43 -42h-46q-42 0 -42 42v51q0 42 42 42h46z" />
    <glyph glyph-name="uni1EB0" unicode="&#x1eb0;" horiz-adv-x="653" 
d="M399 690q19 0 33.5 -11t19.5 -29l200 -650h-156l-141 507q-4 17 -8 34.5t-7 33.5h-27q-3 -16 -6.5 -33.5t-8.5 -34.5l-141 -507h-157l201 650q5 18 19.5 29t33.5 11h145zM505 297v-115h-358v115h358zM235 901q0 -33 23 -50t70 -17q48 0 71 17t23 50l71 -10q5 -41 -14 -76
t-57.5 -55.5t-93.5 -20.5t-94 20.5t-57 55.5t-13 76zM238 1073l152 -117l-40 -57l-172 83z" />
    <glyph glyph-name="uni1EB2" unicode="&#x1eb2;" horiz-adv-x="653" 
d="M399 690q19 0 33.5 -11t19.5 -29l200 -650h-156l-141 507q-4 17 -8 34.5t-7 33.5h-27q-3 -16 -6.5 -33.5t-8.5 -34.5l-141 -507h-157l201 650q5 18 19.5 29t33.5 11h145zM505 297v-115h-358v115h358zM420 901l71 -10q6 -41 -13 -76t-57 -55.5t-94 -20.5q-54 0 -93 20.5
t-58 55.5t-14 76l71 10q0 -33 23 -50t72 -17q47 0 69.5 17t22.5 50zM299 951q22 7 33 18t11 29q1 19 -17.5 21.5t-43.5 -7.5l-14 62q43 15 77.5 11t54.5 -25.5t20 -60.5q0 -44 -30.5 -70.5t-77.5 -34.5z" />
    <glyph glyph-name="uni1EB4" unicode="&#x1eb4;" horiz-adv-x="653" 
d="M399 690q19 0 33.5 -11t19.5 -29l200 -650h-156l-141 507q-4 17 -8 34.5t-7 33.5h-27q-3 -16 -6.5 -33.5t-8.5 -34.5l-141 -507h-157l201 650q5 18 19.5 29t33.5 11h145zM505 297v-115h-358v115h358zM420 901l71 -10q6 -41 -13 -76t-57 -55.5t-94 -20.5q-54 0 -93 20.5
t-58 55.5t-14 76l71 10q0 -33 23 -50t71 -17q47 0 70 17t23 50zM245 1062q23 -2 41 -8t34.5 -14t32.5 -15t36 -10q23 -3 29.5 7t6.5 35h58q10 -65 -13 -99.5t-63 -30.5q-23 2 -42.5 8.5t-36.5 14.5t-32.5 15t-31.5 9q-24 3 -30 -7.5t-6 -35.5h-59q-7 46 2.5 75.5t29.5 43.5
t44 12z" />
    <glyph glyph-name="uni1EA4" unicode="&#x1ea4;" horiz-adv-x="653" 
d="M399 690q19 0 33.5 -11t19.5 -29l200 -650h-156l-141 507q-4 17 -8 34.5t-7 33.5h-27q-3 -16 -6.5 -33.5t-8.5 -34.5l-141 -507h-157l201 650q5 18 19.5 29t33.5 11h145zM505 297v-115h-358v115h358zM273 901h107l131 -117l-39 -58l-141 85h-8l-139 -85l-39 54zM567 1034
l76 -78l-154 -113l-50 49z" />
    <glyph glyph-name="uni1EAC" unicode="&#x1eac;" horiz-adv-x="653" 
d="M399 690q19 0 33.5 -11t19.5 -29l200 -650h-156l-141 507q-4 17 -8 34.5t-7 33.5h-27q-3 -16 -6.5 -33.5t-8.5 -34.5l-141 -507h-157l201 650q5 18 19.5 29t33.5 11h145zM505 297v-115h-358v115h358zM381 905l134 -134l-39 -53l-145 95h-8l-145 -95l-40 57l136 130h107z
M351 -54q42 0 42 -41v-52q0 -42 -42 -42h-46q-42 0 -42 42v52q0 41 42 41h46z" />
    <glyph glyph-name="uni1EA6" unicode="&#x1ea6;" horiz-adv-x="653" 
d="M399 690q19 0 33.5 -11t19.5 -29l200 -650h-156l-141 507q-4 17 -8 34.5t-7 33.5h-27q-3 -16 -6.5 -33.5t-8.5 -34.5l-141 -507h-157l201 650q5 18 19.5 29t33.5 11h145zM505 297v-115h-358v115h358zM382 901l128 -121l-39 -54l-138 85h-8l-142 -85l-39 58l131 117h107z
M88 1034l128 -142l-50 -49l-154 113z" />
    <glyph glyph-name="uni1EA8" unicode="&#x1ea8;" horiz-adv-x="653" 
d="M399 690q19 0 33.5 -11t19.5 -29l200 -650h-156l-141 507q-4 17 -8 34.5t-7 33.5h-27q-3 -16 -6.5 -33.5t-8.5 -34.5l-141 -507h-157l201 650q5 18 19.5 29t33.5 11h145zM505 297v-115h-358v115h358zM273 901h107l131 -117l-39 -58l-141 85h-8l-139 -85l-39 54zM450 918
q23 7 33.5 18t11.5 29q0 19 -18.5 21.5t-43.5 -8.5l-14 63q43 15 77.5 11t54.5 -26t20 -60q0 -44 -30.5 -70.5t-77.5 -34.5z" />
    <glyph glyph-name="uni1EAA" unicode="&#x1eaa;" horiz-adv-x="653" 
d="M399 690q19 0 33.5 -11t19.5 -29l200 -650h-156l-141 507q-4 17 -8 34.5t-7 33.5h-27q-3 -16 -6.5 -33.5t-8.5 -34.5l-141 -507h-157l201 650q5 18 19.5 29t33.5 11h145zM505 297v-115h-358v115h358zM382 901l128 -121l-38 -54l-139 85h-8l-141 -85l-40 58l131 117h107z
M247 1062q23 -2 41 -8t34.5 -14t32.5 -14.5t35 -9.5q24 -4 30.5 6t6.5 35h58q10 -65 -13 -99t-63 -31q-23 2 -42.5 9t-36.5 14.5t-32.5 14.5t-32.5 9q-23 3 -29 -7.5t-6 -35.5h-58q-8 46 1.5 75.5t30 43.5t43.5 12z" />
    <glyph glyph-name="uni0200" unicode="&#x200;" horiz-adv-x="653" 
d="M399 690q19 0 33.5 -11t19.5 -29l200 -650h-156l-141 507q-4 17 -8 34.5t-7 33.5h-27q-3 -16 -6.5 -33.5t-8.5 -34.5l-141 -507h-157l201 650q5 18 19.5 29t33.5 11h145zM505 297v-115h-358v115h358zM370 957l116 -184l-60 -48l-152 168zM180 957l116 -184l-59 -48
l-153 168z" />
    <glyph glyph-name="uni1EA0" unicode="&#x1ea0;" horiz-adv-x="653" 
d="M399 690q19 0 33.5 -11t19.5 -29l200 -650h-156l-141 507q-4 17 -8 34.5t-7 33.5h-27q-3 -16 -6.5 -33.5t-8.5 -34.5l-141 -507h-157l201 650q5 18 19.5 29t33.5 11h145zM505 297v-115h-358v115h358zM351 -51q43 0 43 -42v-51q0 -42 -43 -42h-46q-42 0 -42 42v51
q0 42 42 42h46z" />
    <glyph glyph-name="uni1EA2" unicode="&#x1ea2;" horiz-adv-x="653" 
d="M399 690q19 0 33.5 -11t19.5 -29l200 -650h-156l-141 507q-4 17 -8 34.5t-7 33.5h-27q-3 -16 -6.5 -33.5t-8.5 -34.5l-141 -507h-157l201 650q5 18 19.5 29t33.5 11h145zM505 297v-115h-358v115h358zM311 797q27 9 39 21.5t12 35.5q0 26 -21 32t-49 -5l-15 72
q49 17 87.5 10t61.5 -34t23 -71q0 -36 -15.5 -62t-43 -42t-63.5 -22z" />
    <glyph glyph-name="uni0202" unicode="&#x202;" horiz-adv-x="653" 
d="M399 690q19 0 33.5 -11t19.5 -29l200 -650h-156l-141 507q-4 17 -8 34.5t-7 33.5h-27q-3 -16 -6.5 -33.5t-8.5 -34.5l-141 -507h-157l201 650q5 18 19.5 29t33.5 11h145zM505 297v-115h-358v115h358zM233 741l-71 10q-5 42 13.5 76.5t57.5 55.5t93 21q56 0 94.5 -21
t57.5 -55.5t13 -76.5l-71 -10q0 34 -22.5 50.5t-71.5 16.5q-47 0 -70 -16.5t-23 -50.5z" />
    <glyph glyph-name="uni1E08" unicode="&#x1e08;" horiz-adv-x="588" 
d="M339 702q49 0 83.5 -2.5t63.5 -7.5t60 -14l-12 -112q-33 2 -60.5 3t-59 1.5t-75.5 0.5q-51 0 -79.5 -20t-40.5 -69.5t-12 -136.5t12 -136.5t40.5 -69.5t79.5 -20q69 0 116 2t93 7l13 -112q-48 -15 -98 -21.5t-124 -6.5q-107 0 -171.5 34.5t-93 112.5t-28.5 210t28.5 210
t93 112.5t171.5 34.5zM452 945l64 -99l-224 -112l-43 63zM269 -60q51 6 83.5 3.5t47.5 -18t13 -50.5q-1 -50 -29 -82.5t-72.5 -45.5t-99.5 -6l18 62q37 -1 62 12.5t27 46.5q2 15 -10.5 18t-53.5 4z" />
    <glyph glyph-name="uni01C4" unicode="&#x1c4;" horiz-adv-x="1262" 
d="M340 700q82 0 138.5 -17.5t91 -57.5t50.5 -108.5t16 -171.5t-16 -171.5t-50.5 -108.5t-91 -57.5t-138.5 -17.5q-79 0 -145 3t-126 7l64 113q38 -2 90.5 -3.5t116.5 -1.5q51 0 80.5 20.5t42 72.5t12.5 144t-12.5 144t-42 73t-80.5 21q-61 0 -109 -0.5t-94 -0.5l-68 108
q60 4 125.5 7t145.5 3zM222 690v-690h-153v690h153zM1049 577l168 -1l-333 -463l-169 1zM1225 114v-114h-510v114h510zM1217 690v-114h-494v114h494zM1115 928l39 -57l-153 -129h-61l-154 129l40 57l141 -81h8z" />
    <glyph glyph-name="uni1E0C" unicode="&#x1e0c;" horiz-adv-x="683" 
d="M340 700q82 0 138.5 -17.5t91 -57.5t50.5 -108.5t16 -171.5t-16 -171.5t-50.5 -108.5t-91 -57.5t-138.5 -17.5q-79 0 -145 3t-126 7l64 113q38 -2 90.5 -3.5t116.5 -1.5q51 0 80.5 20.5t42 72.5t12.5 144t-12.5 144t-42 73t-80.5 21q-61 0 -109 -0.5t-94 -0.5l-68 108
q60 4 125.5 7t145.5 3zM222 690v-690h-153v690h153zM353 -54q42 0 42 -41v-52q0 -42 -42 -42h-46q-42 0 -42 42v52q0 41 42 41h46z" />
    <glyph glyph-name="uni1E0E" unicode="&#x1e0e;" horiz-adv-x="683" 
d="M340 700q82 0 138.5 -17.5t91 -57.5t50.5 -108.5t16 -171.5t-16 -171.5t-50.5 -108.5t-91 -57.5t-138.5 -17.5q-79 0 -145 3t-126 7l64 113q38 -2 90.5 -3.5t116.5 -1.5q51 0 80.5 20.5t42 72.5t12.5 144t-12.5 144t-42 73t-80.5 21q-61 0 -109 -0.5t-94 -0.5l-68 108
q60 4 125.5 7t145.5 3zM222 690v-690h-153v690h153zM478 -75v-94h-299v94h299z" />
    <glyph glyph-name="uni01C5" unicode="&#x1c5;" horiz-adv-x="1208" 
d="M340 700q82 0 138.5 -17.5t91 -57.5t50.5 -108.5t16 -171.5t-16 -171.5t-50.5 -108.5t-91 -57.5t-138.5 -17.5q-79 0 -145 3t-126 7l64 113q38 -2 90.5 -3.5t116.5 -1.5q51 0 80.5 20.5t42 72.5t12.5 144t-12.5 144t-42 73t-80.5 21q-61 0 -109 -0.5t-94 -0.5l-68 108
q60 4 125.5 7t145.5 3zM222 690v-690h-153v690h153zM995 392l170 -1l-273 -290l-170 1zM1170 102v-102h-448v102h448zM1165 494v-103h-439v103h439zM1096 749l39 -57l-153 -129h-61l-154 129l40 57l141 -81h8z" />
    <glyph glyph-name="uni1E1C" unicode="&#x1e1c;" horiz-adv-x="578" 
d="M409 910l71 -10q5 -41 -13 -76t-56.5 -55.5t-94.5 -20.5q-55 0 -93.5 20.5t-57.5 55.5t-14 76l71 10q0 -33 23 -50t71 -17q47 0 70 17t23 50zM211 693q56 0 113 -0.5t112 -2.5t103 -7l-7 -111h-265q-25 0 -37.5 -13t-12.5 -38v-352q0 -25 12.5 -38t37.5 -13h265l7 -111
q-48 -4 -103 -6.5t-112 -3t-113 -0.5q-66 0 -106.5 38.5t-40.5 100.5v418q0 63 40.5 101t106.5 38zM82 413h413v-108h-413v108zM253 -38q51 6 83.5 3.5t47.5 -18t13 -50.5q-1 -50 -29 -82.5t-72.5 -45.5t-99.5 -6l18 62q37 -1 62 12.5t27 46.5q2 15 -10.5 18t-53.5 4z" />
    <glyph glyph-name="uni1EBE" unicode="&#x1ebe;" horiz-adv-x="578" 
d="M211 693q56 0 113 -0.5t112 -2.5t103 -7l-7 -111h-265q-25 0 -37.5 -13t-12.5 -38v-352q0 -25 12.5 -38t37.5 -13h265l7 -111q-48 -4 -103 -6.5t-112 -3t-113 -0.5q-66 0 -106.5 38.5t-40.5 100.5v418q0 63 40.5 101t106.5 38zM82 413h413v-108h-413v108zM262 911h107
l131 -117l-39 -58l-141 85h-8l-139 -85l-39 54zM556 1044l76 -78l-154 -113l-50 49z" />
    <glyph glyph-name="uni1EC6" unicode="&#x1ec6;" horiz-adv-x="578" 
d="M370 915l134 -134l-39 -53l-145 95h-8l-145 -95l-40 57l136 130h107zM211 693q56 0 113 -0.5t112 -2.5t103 -7l-7 -111h-265q-25 0 -37.5 -13t-12.5 -38v-352q0 -25 12.5 -38t37.5 -13h265l7 -111q-48 -4 -103 -6.5t-112 -3t-113 -0.5q-66 0 -106.5 38.5t-40.5 100.5v418
q0 63 40.5 101t106.5 38zM82 413h413v-108h-413v108zM333 -42q42 0 42 -41v-52q0 -42 -42 -42h-46q-42 0 -42 42v52q0 41 42 41h46z" />
    <glyph glyph-name="uni1EC0" unicode="&#x1ec0;" horiz-adv-x="578" 
d="M211 693q56 0 113 -0.5t112 -2.5t103 -7l-7 -111h-265q-25 0 -37.5 -13t-12.5 -38v-352q0 -25 12.5 -38t37.5 -13h265l7 -111q-48 -4 -103 -6.5t-112 -3t-113 -0.5q-66 0 -106.5 38.5t-40.5 100.5v418q0 63 40.5 101t106.5 38zM82 413h413v-108h-413v108zM370 911
l128 -121l-39 -54l-138 85h-8l-142 -85l-39 58l131 117h107zM76 1044l128 -142l-50 -49l-154 113z" />
    <glyph glyph-name="uni1EC2" unicode="&#x1ec2;" horiz-adv-x="578" 
d="M211 693q56 0 113 -0.5t112 -2.5t103 -7l-7 -111h-265q-25 0 -37.5 -13t-12.5 -38v-352q0 -25 12.5 -38t37.5 -13h265l7 -111q-48 -4 -103 -6.5t-112 -3t-113 -0.5q-66 0 -106.5 38.5t-40.5 100.5v418q0 63 40.5 101t106.5 38zM82 413h413v-108h-413v108zM262 911h107
l131 -117l-39 -58l-141 85h-8l-139 -85l-39 54zM439 928q23 7 33.5 18t11.5 29q0 19 -18.5 21.5t-43.5 -8.5l-14 63q43 15 77.5 11t54.5 -26t20 -60q0 -44 -30.5 -70.5t-77.5 -34.5z" />
    <glyph glyph-name="uni1EC4" unicode="&#x1ec4;" horiz-adv-x="578" 
d="M211 693q56 0 113 -0.5t112 -2.5t103 -7l-7 -111h-265q-25 0 -37.5 -13t-12.5 -38v-352q0 -25 12.5 -38t37.5 -13h265l7 -111q-48 -4 -103 -6.5t-112 -3t-113 -0.5q-66 0 -106.5 38.5t-40.5 100.5v418q0 63 40.5 101t106.5 38zM82 413h413v-108h-413v108zM370 911
l128 -121l-38 -54l-139 85h-8l-141 -85l-40 58l131 117h107zM235 1072q23 -2 41 -8t34.5 -14t32.5 -14.5t35 -9.5q24 -4 30.5 6t6.5 35h58q10 -65 -13 -99t-63 -31q-23 2 -42.5 9t-36.5 14.5t-32.5 14.5t-32.5 9q-23 3 -29 -7.5t-6 -35.5h-58q-8 46 1.5 75.5t30 43.5
t43.5 12z" />
    <glyph glyph-name="uni0204" unicode="&#x204;" horiz-adv-x="578" 
d="M211 693q56 0 113 -0.5t112 -2.5t103 -7l-7 -111h-265q-25 0 -37.5 -13t-12.5 -38v-352q0 -25 12.5 -38t37.5 -13h265l7 -111q-48 -4 -103 -6.5t-112 -3t-113 -0.5q-66 0 -106.5 38.5t-40.5 100.5v418q0 63 40.5 101t106.5 38zM82 413h413v-108h-413v108zM359 967
l116 -184l-60 -48l-152 168zM169 967l116 -184l-59 -48l-153 168z" />
    <glyph glyph-name="uni1EB8" unicode="&#x1eb8;" horiz-adv-x="578" 
d="M211 693q56 0 113 -0.5t112 -2.5t103 -7l-7 -111h-265q-25 0 -37.5 -13t-12.5 -38v-352q0 -25 12.5 -38t37.5 -13h265l7 -111q-48 -4 -103 -6.5t-112 -3t-113 -0.5q-66 0 -106.5 38.5t-40.5 100.5v418q0 63 40.5 101t106.5 38zM82 413h413v-108h-413v108zM333 -39
q43 0 43 -42v-51q0 -42 -43 -42h-46q-42 0 -42 42v51q0 42 42 42h46z" />
    <glyph glyph-name="uni1EBA" unicode="&#x1eba;" horiz-adv-x="578" 
d="M211 693q56 0 113 -0.5t112 -2.5t103 -7l-7 -111h-265q-25 0 -37.5 -13t-12.5 -38v-352q0 -25 12.5 -38t37.5 -13h265l7 -111q-48 -4 -103 -6.5t-112 -3t-113 -0.5q-66 0 -106.5 38.5t-40.5 100.5v418q0 63 40.5 101t106.5 38zM82 413h413v-108h-413v108zM288 806
q27 9 39.5 22t12.5 35q0 26 -21.5 32t-48.5 -4l-16 71q49 17 88 10t61.5 -34t22.5 -71q0 -36 -16 -62t-43.5 -42t-62.5 -22z" />
    <glyph glyph-name="uni0206" unicode="&#x206;" horiz-adv-x="578" 
d="M211 693q56 0 113 -0.5t112 -2.5t103 -7l-7 -111h-265q-25 0 -37.5 -13t-12.5 -38v-352q0 -25 12.5 -38t37.5 -13h265l7 -111q-48 -4 -103 -6.5t-112 -3t-113 -0.5q-66 0 -106.5 38.5t-40.5 100.5v418q0 63 40.5 101t106.5 38zM82 413h413v-108h-413v108zM222 751l-71 10
q-5 42 13.5 76.5t57.5 55.5t93 21q56 0 94.5 -21t57.5 -55.5t13 -76.5l-71 -10q0 34 -22.5 50.5t-71.5 16.5q-47 0 -70 -16.5t-23 -50.5z" />
    <glyph glyph-name="uni1E16" unicode="&#x1e16;" horiz-adv-x="578" 
d="M211 693q56 0 113 -0.5t112 -2.5t103 -7l-7 -111h-265q-25 0 -37.5 -13t-12.5 -38v-352q0 -25 12.5 -38t37.5 -13h265l7 -111q-48 -4 -103 -6.5t-112 -3t-113 -0.5q-66 0 -106.5 38.5t-40.5 100.5v418q0 63 40.5 101t106.5 38zM82 413h413v-108h-413v108zM467 856v-93
h-300v93h300zM373 1069l67 -86l-164 -95l-45 53z" />
    <glyph glyph-name="uni1E14" unicode="&#x1e14;" horiz-adv-x="578" 
d="M211 693q56 0 113 -0.5t112 -2.5t103 -7l-7 -111h-265q-25 0 -37.5 -13t-12.5 -38v-352q0 -25 12.5 -38t37.5 -13h265l7 -111q-48 -4 -103 -6.5t-112 -3t-113 -0.5q-66 0 -106.5 38.5t-40.5 100.5v418q0 63 40.5 101t106.5 38zM82 413h413v-108h-413v108zM166 856h300
v-93h-300v93zM260 1069l142 -128l-45 -53l-164 95z" />
    <glyph glyph-name="uni1EBC" unicode="&#x1ebc;" horiz-adv-x="578" 
d="M211 693q56 0 113 -0.5t112 -2.5t103 -7l-7 -111h-265q-25 0 -37.5 -13t-12.5 -38v-352q0 -25 12.5 -38t37.5 -13h265l7 -111q-48 -4 -103 -6.5t-112 -3t-113 -0.5q-66 0 -106.5 38.5t-40.5 100.5v418q0 63 40.5 101t106.5 38zM82 413h413v-108h-413v108zM223 907
q25 -2 45 -8.5t38.5 -14.5t37 -15.5t38.5 -10.5q26 -4 32.5 7t6.5 37h64q11 -71 -14 -107.5t-68 -33.5q-34 3 -61.5 13.5t-51 22t-47.5 14.5q-25 3 -31.5 -8t-6.5 -38h-64q-7 50 3 82t32 47t47 13z" />
    <glyph glyph-name="Gcaron" unicode="&#x1e6;" horiz-adv-x="648" 
d="M354 704q45 0 82 -3t70.5 -8t65.5 -15l-12 -111q-35 2 -68 3t-66 1.5t-69 0.5q-43 0 -71.5 -9t-45.5 -33.5t-24.5 -70t-7.5 -116.5q0 -86 11 -135t37 -69.5t70 -20.5q30 0 55 6t46 16.5t39 20.5l16 -72q-15 -21 -44.5 -45t-71.5 -41t-96 -17q-78 0 -127.5 37t-72.5 116.5
t-23 206.5q0 135 29.5 213t97 111.5t180.5 33.5zM596 398v-398h-113l-21 105l-14 28v265h148zM485 931l39 -57l-153 -129h-61l-154 129l40 57l141 -81h8z" />
    <glyph glyph-name="uni1E20" unicode="&#x1e20;" horiz-adv-x="648" 
d="M354 704q45 0 82 -3t70.5 -8t65.5 -15l-12 -111q-35 2 -68 3t-66 1.5t-69 0.5q-43 0 -71.5 -9t-45.5 -33.5t-24.5 -70t-7.5 -116.5q0 -86 11 -135t37 -69.5t70 -20.5q30 0 55 6t46 16.5t39 20.5l16 -72q-15 -21 -44.5 -45t-71.5 -41t-96 -17q-78 0 -127.5 37t-72.5 116.5
t-23 206.5q0 135 29.5 213t97 111.5t180.5 33.5zM596 398v-398h-113l-21 105l-14 28v265h148zM490 876v-94h-300v94h300z" />
    <glyph glyph-name="uni1E2A" unicode="&#x1e2a;" horiz-adv-x="691" 
d="M223 690v-690h-153v690h153zM479 425v-115h-264v115h264zM621 690v-690h-153v690h153zM440 -40l70 -11q6 -41 -12.5 -75.5t-57 -55.5t-94.5 -21q-54 0 -93 21t-58 55.5t-14 75.5l71 11q0 -34 23 -50.5t71 -16.5q47 0 70.5 16.5t23.5 50.5z" />
    <glyph glyph-name="uni1E24" unicode="&#x1e24;" horiz-adv-x="691" 
d="M223 690v-690h-153v690h153zM479 425v-115h-264v115h264zM621 690v-690h-153v690h153zM371 -42q42 0 42 -41v-52q0 -42 -42 -42h-46q-42 0 -42 42v52q0 41 42 41h46z" />
    <glyph glyph-name="uni0208" unicode="&#x208;" horiz-adv-x="292" 
d="M222 690v-690h-152v690h152zM189 960l116 -184l-60 -48l-152 168zM-1 960l116 -184l-59 -48l-153 168z" />
    <glyph glyph-name="uni1E2E" unicode="&#x1e2e;" horiz-adv-x="292" 
d="M222 690v-690h-152v690h152zM251 870q29 0 29 -29v-53q0 -29 -29 -29h-44q-29 0 -29 29v53q0 29 29 29h44zM217 1093l65 -88l-179 -100l-43 55zM85 870q28 0 28 -29v-53q0 -29 -28 -29h-44q-30 0 -30 29v53q0 29 30 29h44z" />
    <glyph glyph-name="uni1ECA" unicode="&#x1eca;" horiz-adv-x="292" 
d="M222 690v-690h-152v690h152zM168 -39q43 0 43 -42v-51q0 -42 -43 -42h-46q-42 0 -42 42v51q0 42 42 42h46z" />
    <glyph glyph-name="uni1EC8" unicode="&#x1ec8;" horiz-adv-x="292" 
d="M222 690v-690h-152v690h152zM117 799q27 9 39.5 22t12.5 35q0 26 -21.5 32t-48.5 -4l-16 71q49 17 88 10t61.5 -34t22.5 -71q0 -36 -16 -62t-43.5 -42t-62.5 -22z" />
    <glyph glyph-name="uni020A" unicode="&#x20a;" horiz-adv-x="292" 
d="M222 690v-690h-152v690h152zM52 744l-71 10q-5 42 13.5 76.5t57.5 55.5t93 21q56 0 94.5 -21t57.5 -55.5t13 -76.5l-71 -10q0 34 -22.5 50.5t-71.5 16.5q-47 0 -70 -16.5t-23 -50.5z" />
    <glyph glyph-name="uni01C7" unicode="&#x1c7;" horiz-adv-x="908" 
d="M220 690v-516q0 -25 14 -38t40 -13h241l7 -115q-71 -8 -148.5 -9.5t-154.5 -1.5q-75 0 -113.5 40.5t-38.5 103.5v549h153zM841 690v-554q0 -72 -41.5 -110t-116.5 -38q-18 0 -42.5 2.5t-47.5 7t-37 10.5l16 99h49q68 0 68 56v527h152z" />
    <glyph glyph-name="uni1E36" unicode="&#x1e36;" horiz-adv-x="536" 
d="M220 690v-516q0 -25 14 -38t40 -13h241l7 -115q-71 -8 -148.5 -9.5t-154.5 -1.5q-75 0 -113.5 40.5t-38.5 103.5v549h153zM331 -42q42 0 42 -41v-52q0 -42 -42 -42h-46q-42 0 -42 42v52q0 41 42 41h46z" />
    <glyph glyph-name="uni01C8" unicode="&#x1c8;" horiz-adv-x="812" 
d="M220 690v-516q0 -25 14 -38t40 -13h241l7 -115q-71 -8 -148.5 -9.5t-154.5 -1.5q-75 0 -113.5 40.5t-38.5 103.5v549h153zM749 494v-471q0 -45 -15.5 -87.5t-44 -76.5t-68.5 -55l-82 64q34 38 48 74t14 81v471h148zM706 717q43 0 43 -44v-54q0 -45 -43 -45h-65
q-43 0 -43 45v54q0 44 43 44h65z" />
    <glyph glyph-name="uni1E3A" unicode="&#x1e3a;" horiz-adv-x="536" 
d="M220 690v-516q0 -25 14 -38t40 -13h241l7 -115q-71 -8 -148.5 -9.5t-154.5 -1.5q-75 0 -113.5 40.5t-38.5 103.5v549h153zM456 -63v-94h-299v94h299z" />
    <glyph glyph-name="uni1E42" unicode="&#x1e42;" horiz-adv-x="915" 
d="M776 690q54 0 56 -56l26 -634h-141l-23 572h-18l-111 -430q-9 -48 -60 -48h-96q-51 0 -62 48l-111 430h-17l-21 -572h-142l26 634q2 56 57 56h143q49 0 60 -49l89 -347q6 -24 10 -48.5t9 -49.5h13q5 25 9.5 49.5t9.5 49.5l88 346q10 49 60 49h146zM479 -42q42 0 42 -41
v-52q0 -42 -42 -42h-46q-42 0 -42 42v52q0 41 42 41h46z" />
    <glyph glyph-name="uni01CA" unicode="&#x1ca;" horiz-adv-x="1094" 
d="M653 690v-635q0 -55 -55 -55h-84q-25 0 -38 11.5t-24 34.5l-191 362q-12 23 -23.5 51t-19.5 54h-11q3 -27 5 -54.5t2 -54.5v-404h-145v635q0 55 56 55h83q24 0 36.5 -11.5t24.5 -34.5l185 -351q12 -23 25 -51t25 -58h12q-3 30 -4.5 58.5t-1.5 56.5l-1 391h144zM1027 690
v-554q0 -72 -41.5 -110t-116.5 -38q-18 0 -42.5 2.5t-47.5 7t-37 10.5l16 99h49q68 0 68 56v527h152z" />
    <glyph glyph-name="uni1E44" unicode="&#x1e44;" horiz-adv-x="722" 
d="M653 690v-635q0 -55 -55 -55h-84q-25 0 -38 11.5t-24 34.5l-191 362q-12 23 -23.5 51t-19.5 54h-11q3 -27 5 -54.5t2 -54.5v-404h-145v635q0 55 56 55h83q24 0 36.5 -11.5t24.5 -34.5l185 -351q12 -23 25 -51t25 -58h12q-3 30 -4.5 58.5t-1.5 56.5l-1 391h144zM395 891
q42 0 42 -41v-52q0 -42 -42 -42h-46q-42 0 -42 42v52q0 41 42 41h46z" />
    <glyph glyph-name="uni1E46" unicode="&#x1e46;" horiz-adv-x="722" 
d="M653 690v-635q0 -55 -55 -55h-84q-25 0 -38 11.5t-24 34.5l-191 362q-12 23 -23.5 51t-19.5 54h-11q3 -27 5 -54.5t2 -54.5v-404h-145v635q0 55 56 55h83q24 0 36.5 -11.5t24.5 -34.5l185 -351q12 -23 25 -51t25 -58h12q-3 30 -4.5 58.5t-1.5 56.5l-1 391h144zM394 -42
q42 0 42 -41v-52q0 -42 -42 -42h-46q-42 0 -42 42v52q0 41 42 41h46z" />
    <glyph glyph-name="uni01CB" unicode="&#x1cb;" horiz-adv-x="999" 
d="M653 690v-635q0 -55 -55 -55h-84q-25 0 -38 11.5t-24 34.5l-191 362q-12 23 -23.5 51t-19.5 54h-11q3 -27 5 -54.5t2 -54.5v-404h-145v635q0 55 56 55h83q24 0 36.5 -11.5t24.5 -34.5l185 -351q12 -23 25 -51t25 -58h12q-3 30 -4.5 58.5t-1.5 56.5l-1 391h144zM935 494
v-471q0 -45 -15.5 -87.5t-44 -76.5t-68.5 -55l-82 64q34 38 48 74t14 81v471h148zM892 717q43 0 43 -44v-54q0 -45 -43 -45h-65q-43 0 -43 45v54q0 44 43 44h65z" />
    <glyph glyph-name="uni1E48" unicode="&#x1e48;" horiz-adv-x="722" 
d="M653 690v-635q0 -55 -55 -55h-84q-25 0 -38 11.5t-24 34.5l-191 362q-12 23 -23.5 51t-19.5 54h-11q3 -27 5 -54.5t2 -54.5v-404h-145v635q0 55 56 55h83q24 0 36.5 -11.5t24.5 -34.5l185 -351q12 -23 25 -51t25 -58h12q-3 30 -4.5 58.5t-1.5 56.5l-1 391h144zM518 -63
v-94h-299v94h299z" />
    <glyph glyph-name="uni1ED0" unicode="&#x1ed0;" horiz-adv-x="688" 
d="M344 704q82 0 139 -17.5t91.5 -58t50.5 -110t16 -173.5t-16 -173.5t-50.5 -110t-91.5 -58t-139 -17.5t-139 17.5t-92 58t-51 110t-16 173.5t16 173.5t51 110t92 58t139 17.5zM344 583q-53 0 -82.5 -21t-42 -72.5t-12.5 -144.5q0 -92 12.5 -144t42 -73t82.5 -21
q52 0 81.5 21t42 73t12.5 144q0 93 -12.5 144.5t-42 72.5t-81.5 21zM289 904h107l131 -117l-39 -58l-141 85h-8l-139 -85l-39 54zM583 1037l76 -78l-154 -113l-50 49z" />
    <glyph glyph-name="uni1ED8" unicode="&#x1ed8;" horiz-adv-x="688" 
d="M398 908l134 -134l-39 -53l-145 95h-8l-145 -95l-40 57l136 130h107zM344 704q82 0 139 -17.5t91.5 -58t50.5 -110t16 -173.5t-16 -173.5t-50.5 -110t-91.5 -58t-139 -17.5t-139 17.5t-92 58t-51 110t-16 173.5t16 173.5t51 110t92 58t139 17.5zM344 583q-53 0 -82.5 -21
t-42 -72.5t-12.5 -144.5q0 -92 12.5 -144t42 -73t82.5 -21q52 0 81.5 21t42 73t12.5 144q0 93 -12.5 144.5t-42 72.5t-81.5 21zM367 -48q42 0 42 -41v-52q0 -42 -42 -42h-46q-42 0 -42 42v52q0 41 42 41h46z" />
    <glyph glyph-name="uni1ED2" unicode="&#x1ed2;" horiz-adv-x="688" 
d="M344 704q82 0 139 -17.5t91.5 -58t50.5 -110t16 -173.5t-16 -173.5t-50.5 -110t-91.5 -58t-139 -17.5t-139 17.5t-92 58t-51 110t-16 173.5t16 173.5t51 110t92 58t139 17.5zM344 583q-53 0 -82.5 -21t-42 -72.5t-12.5 -144.5q0 -92 12.5 -144t42 -73t82.5 -21
q52 0 81.5 21t42 73t12.5 144q0 93 -12.5 144.5t-42 72.5t-81.5 21zM398 904l128 -121l-39 -54l-138 85h-8l-142 -85l-39 58l131 117h107zM104 1037l128 -142l-50 -49l-154 113z" />
    <glyph glyph-name="uni1ED4" unicode="&#x1ed4;" horiz-adv-x="688" 
d="M344 704q82 0 139 -17.5t91.5 -58t50.5 -110t16 -173.5t-16 -173.5t-50.5 -110t-91.5 -58t-139 -17.5t-139 17.5t-92 58t-51 110t-16 173.5t16 173.5t51 110t92 58t139 17.5zM344 583q-53 0 -82.5 -21t-42 -72.5t-12.5 -144.5q0 -92 12.5 -144t42 -73t82.5 -21
q52 0 81.5 21t42 73t12.5 144q0 93 -12.5 144.5t-42 72.5t-81.5 21zM289 904h107l131 -117l-39 -58l-141 85h-8l-139 -85l-39 54zM466 921q23 7 33.5 18t11.5 29q0 19 -18.5 21.5t-43.5 -8.5l-14 63q43 15 77.5 11t54.5 -26t20 -60q0 -44 -30.5 -70.5t-77.5 -34.5z" />
    <glyph glyph-name="uni1ED6" unicode="&#x1ed6;" horiz-adv-x="688" 
d="M344 704q82 0 139 -17.5t91.5 -58t50.5 -110t16 -173.5t-16 -173.5t-50.5 -110t-91.5 -58t-139 -17.5t-139 17.5t-92 58t-51 110t-16 173.5t16 173.5t51 110t92 58t139 17.5zM344 583q-53 0 -82.5 -21t-42 -72.5t-12.5 -144.5q0 -92 12.5 -144t42 -73t82.5 -21
q52 0 81.5 21t42 73t12.5 144q0 93 -12.5 144.5t-42 72.5t-81.5 21zM398 904l128 -121l-38 -54l-139 85h-8l-141 -85l-40 58l131 117h107zM263 1065q23 -2 41 -8t34.5 -14t32.5 -14.5t35 -9.5q24 -4 30.5 6t6.5 35h58q10 -65 -13 -99t-63 -31q-23 2 -42.5 9t-36.5 14.5
t-32.5 14.5t-32.5 9q-23 3 -29 -7.5t-6 -35.5h-58q-8 46 1.5 75.5t30 43.5t43.5 12z" />
    <glyph glyph-name="uni020C" unicode="&#x20c;" horiz-adv-x="688" 
d="M344 704q82 0 139 -17.5t91.5 -58t50.5 -110t16 -173.5t-16 -173.5t-50.5 -110t-91.5 -58t-139 -17.5t-139 17.5t-92 58t-51 110t-16 173.5t16 173.5t51 110t92 58t139 17.5zM344 583q-53 0 -82.5 -21t-42 -72.5t-12.5 -144.5q0 -92 12.5 -144t42 -73t82.5 -21
q52 0 81.5 21t42 73t12.5 144q0 93 -12.5 144.5t-42 72.5t-81.5 21zM386 960l116 -184l-60 -48l-152 168zM196 960l116 -184l-59 -48l-153 168z" />
    <glyph glyph-name="uni022A" unicode="&#x22a;" horiz-adv-x="688" 
d="M344 704q82 0 139 -17.5t91.5 -58t50.5 -110t16 -173.5t-16 -173.5t-50.5 -110t-91.5 -58t-139 -17.5t-139 17.5t-92 58t-51 110t-16 173.5t16 173.5t51 110t92 58t139 17.5zM344 583q-53 0 -82.5 -21t-42 -72.5t-12.5 -144.5q0 -92 12.5 -144t42 -73t82.5 -21
q52 0 81.5 21t42 73t12.5 144q0 93 -12.5 144.5t-42 72.5t-81.5 21zM449 861q29 0 29 -29v-54q0 -28 -29 -28h-44q-29 0 -29 28v54q0 29 29 29h44zM283 861q28 0 28 -29v-54q0 -28 -28 -28h-45q-29 0 -29 28v54q0 29 29 29h45zM199 992h289v-84h-289v84z" />
    <glyph glyph-name="uni0230" unicode="&#x230;" horiz-adv-x="688" 
d="M344 704q82 0 139 -17.5t91.5 -58t50.5 -110t16 -173.5t-16 -173.5t-50.5 -110t-91.5 -58t-139 -17.5t-139 17.5t-92 58t-51 110t-16 173.5t16 173.5t51 110t92 58t139 17.5zM344 583q-53 0 -82.5 -21t-42 -72.5t-12.5 -144.5q0 -92 12.5 -144t42 -73t82.5 -21
q52 0 81.5 21t42 73t12.5 144q0 93 -12.5 144.5t-42 72.5t-81.5 21zM207 992h273v-84h-273v84zM363 867q40 0 40 -38v-47q0 -18 -9.5 -28t-29.5 -10h-42q-39 0 -39 38v47q0 38 40 38h40z" />
    <glyph glyph-name="uni1ECC" unicode="&#x1ecc;" horiz-adv-x="688" 
d="M344 704q82 0 139 -17.5t91.5 -58t50.5 -110t16 -173.5t-16 -173.5t-50.5 -110t-91.5 -58t-139 -17.5t-139 17.5t-92 58t-51 110t-16 173.5t16 173.5t51 110t92 58t139 17.5zM344 583q-53 0 -82.5 -21t-42 -72.5t-12.5 -144.5q0 -92 12.5 -144t42 -73t82.5 -21
q52 0 81.5 21t42 73t12.5 144q0 93 -12.5 144.5t-42 72.5t-81.5 21zM366 -45q43 0 43 -42v-51q0 -42 -43 -42h-46q-42 0 -42 42v51q0 42 42 42h46z" />
    <glyph glyph-name="uni1ECE" unicode="&#x1ece;" horiz-adv-x="688" 
d="M344 704q82 0 139 -17.5t91.5 -58t50.5 -110t16 -173.5t-16 -173.5t-50.5 -110t-91.5 -58t-139 -17.5t-139 17.5t-92 58t-51 110t-16 173.5t16 173.5t51 110t92 58t139 17.5zM344 583q-53 0 -82.5 -21t-42 -72.5t-12.5 -144.5q0 -92 12.5 -144t42 -73t82.5 -21
q52 0 81.5 21t42 73t12.5 144q0 93 -12.5 144.5t-42 72.5t-81.5 21zM315 799q27 9 39.5 22t12.5 35q0 26 -21.5 32t-48.5 -4l-16 71q49 17 88 10t61.5 -34t22.5 -71q0 -36 -16 -62t-43.5 -42t-62.5 -22z" />
    <glyph glyph-name="Ohorn" unicode="&#x1a0;" horiz-adv-x="702" 
d="M344 704q82 0 139 -17.5t91.5 -58t50.5 -110t16 -173.5t-16 -173.5t-50.5 -110t-91.5 -58t-139 -17.5t-139 17.5t-92 58t-51 110t-16 173.5t16 173t51 110t92 58.5t139 17.5zM344 583q-53 0 -82.5 -21t-42 -72.5t-12.5 -144.5q0 -92 12.5 -144t42 -73t82.5 -21
q52 0 81.5 21t42 73t12.5 144q0 93 -12.5 144.5t-42 72.5t-81.5 21zM554 574l-4 63q36 5 56 29t23 61l92 -5q-1 -48 -23.5 -82t-60 -51t-83.5 -15z" />
    <glyph glyph-name="uni1EDA" unicode="&#x1eda;" horiz-adv-x="702" 
d="M344 704q82 0 139 -17.5t91.5 -58t50.5 -110t16 -173.5t-16 -173.5t-50.5 -110t-91.5 -58t-139 -17.5t-139 17.5t-92 58t-51 110t-16 173.5t16 173t51 110t92 58.5t139 17.5zM344 583q-53 0 -82.5 -21t-42 -72.5t-12.5 -144.5q0 -92 12.5 -144t42 -73t82.5 -21
q52 0 81.5 21t42 73t12.5 144q0 93 -12.5 144.5t-42 72.5t-81.5 21zM554 574l-4 63q36 5 56 29t23 61l92 -5q-1 -48 -23.5 -82t-60 -51t-83.5 -15zM460 937l64 -100l-223 -111l-44 63z" />
    <glyph glyph-name="uni1EE2" unicode="&#x1ee2;" horiz-adv-x="702" 
d="M344 704q82 0 139 -17.5t91.5 -58t50.5 -110t16 -173.5t-16 -173.5t-50.5 -110t-91.5 -58t-139 -17.5t-139 17.5t-92 58t-51 110t-16 173.5t16 173t51 110t92 58.5t139 17.5zM344 583q-53 0 -82.5 -21t-42 -72.5t-12.5 -144.5q0 -92 12.5 -144t42 -73t82.5 -21
q52 0 81.5 21t42 73t12.5 144q0 93 -12.5 144.5t-42 72.5t-81.5 21zM554 574l-4 63q36 5 56 29t23 61l92 -5q-1 -48 -23.5 -82t-60 -51t-83.5 -15zM366 -42q42 0 42 -41v-52q0 -42 -42 -42h-46q-42 0 -42 42v52q0 41 42 41h46z" />
    <glyph glyph-name="uni1EDC" unicode="&#x1edc;" horiz-adv-x="702" 
d="M344 704q82 0 139 -17.5t91.5 -58t50.5 -110t16 -173.5t-16 -173.5t-50.5 -110t-91.5 -58t-139 -17.5t-139 17.5t-92 58t-51 110t-16 173.5t16 173t51 110t92 58.5t139 17.5zM344 583q-53 0 -82.5 -21t-42 -72.5t-12.5 -144.5q0 -92 12.5 -144t42 -73t82.5 -21
q52 0 81.5 21t42 73t12.5 144q0 93 -12.5 144.5t-42 72.5t-81.5 21zM554 574l-4 63q36 5 56 29t23 61l92 -5q-1 -48 -23.5 -82t-60 -51t-83.5 -15zM221 943l203 -148l-43 -63l-224 112z" />
    <glyph glyph-name="uni1EDE" unicode="&#x1ede;" horiz-adv-x="702" 
d="M344 704q82 0 139 -17.5t91.5 -58t50.5 -110t16 -173.5t-16 -173.5t-50.5 -110t-91.5 -58t-139 -17.5t-139 17.5t-92 58t-51 110t-16 173.5t16 173t51 110t92 58.5t139 17.5zM344 583q-53 0 -82.5 -21t-42 -72.5t-12.5 -144.5q0 -92 12.5 -144t42 -73t82.5 -21
q52 0 81.5 21t42 73t12.5 144q0 93 -12.5 144.5t-42 72.5t-81.5 21zM554 574l-4 63q36 5 56 29t23 61l92 -5q-1 -48 -23.5 -82t-60 -51t-83.5 -15zM316 797q27 9 39.5 22t12.5 35q0 26 -21.5 32t-48.5 -4l-16 71q49 17 88 10t61.5 -34t22.5 -71q0 -36 -16 -62t-43.5 -42
t-62.5 -22z" />
    <glyph glyph-name="uni1EE0" unicode="&#x1ee0;" horiz-adv-x="702" 
d="M344 704q82 0 139 -17.5t91.5 -58t50.5 -110t16 -173.5t-16 -173.5t-50.5 -110t-91.5 -58t-139 -17.5t-139 17.5t-92 58t-51 110t-16 173.5t16 173t51 110t92 58.5t139 17.5zM344 583q-53 0 -82.5 -21t-42 -72.5t-12.5 -144.5q0 -92 12.5 -144t42 -73t82.5 -21
q52 0 81.5 21t42 73t12.5 144q0 93 -12.5 144.5t-42 72.5t-81.5 21zM554 574l-4 63q36 5 56 29t23 61l92 -5q-1 -48 -23.5 -82t-60 -51t-83.5 -15zM252 899q25 -2 45 -8.5t38.5 -14.5t37 -15.5t38.5 -10.5q26 -4 32.5 7t6.5 37h64q11 -71 -13.5 -107.5t-67.5 -33.5
q-34 3 -62 13.5t-51.5 22t-47.5 14.5q-25 3 -31 -8t-6 -38h-64q-8 50 2.5 82t32 47t46.5 13z" />
    <glyph glyph-name="uni020E" unicode="&#x20e;" horiz-adv-x="688" 
d="M344 704q82 0 139 -17.5t91.5 -58t50.5 -110t16 -173.5t-16 -173.5t-50.5 -110t-91.5 -58t-139 -17.5t-139 17.5t-92 58t-51 110t-16 173.5t16 173.5t51 110t92 58t139 17.5zM344 583q-53 0 -82.5 -21t-42 -72.5t-12.5 -144.5q0 -92 12.5 -144t42 -73t82.5 -21
q52 0 81.5 21t42 73t12.5 144q0 93 -12.5 144.5t-42 72.5t-81.5 21zM250 744l-71 10q-5 42 13.5 76.5t57.5 55.5t93 21q56 0 94.5 -21t57.5 -55.5t13 -76.5l-71 -10q0 34 -22.5 50.5t-71.5 16.5q-47 0 -70 -16.5t-23 -50.5z" />
    <glyph glyph-name="uni1E52" unicode="&#x1e52;" horiz-adv-x="688" 
d="M344 704q82 0 139 -17.5t91.5 -58t50.5 -110t16 -173.5t-16 -173.5t-50.5 -110t-91.5 -58t-139 -17.5t-139 17.5t-92 58t-51 110t-16 173.5t16 173.5t51 110t92 58t139 17.5zM344 583q-53 0 -82.5 -21t-42 -72.5t-12.5 -144.5q0 -92 12.5 -144t42 -73t82.5 -21
q52 0 81.5 21t42 73t12.5 144q0 93 -12.5 144.5t-42 72.5t-81.5 21zM495 850v-93h-300v93h300zM401 1063l67 -86l-164 -95l-45 53z" />
    <glyph glyph-name="uni1E50" unicode="&#x1e50;" horiz-adv-x="688" 
d="M344 704q82 0 139 -17.5t91.5 -58t50.5 -110t16 -173.5t-16 -173.5t-50.5 -110t-91.5 -58t-139 -17.5t-139 17.5t-92 58t-51 110t-16 173.5t16 173.5t51 110t92 58t139 17.5zM344 583q-53 0 -82.5 -21t-42 -72.5t-12.5 -144.5q0 -92 12.5 -144t42 -73t82.5 -21
q52 0 81.5 21t42 73t12.5 144q0 93 -12.5 144.5t-42 72.5t-81.5 21zM194 850h300v-93h-300v93zM288 1063l142 -128l-45 -53l-164 95z" />
    <glyph glyph-name="uni01EA" unicode="&#x1ea;" horiz-adv-x="688" 
d="M344 704q82 0 139 -17.5t91.5 -58t50.5 -110t16 -173.5t-16 -173.5t-50.5 -110t-91.5 -58t-139 -17.5t-139 17.5t-92 58t-51 110t-16 173.5t16 173.5t51 110t92 58t139 17.5zM344 583q-53 0 -82.5 -21t-42 -72.5t-12.5 -144.5q0 -92 12.5 -144t42 -73t82.5 -21
q52 0 81.5 21t42 73t12.5 144q0 93 -12.5 144.5t-42 72.5t-81.5 21zM331 2l60 -2q-17 -23 -32.5 -47t-28.5 -53q-14 -32 6 -40t57 1l11 -53q-54 -22 -91 -22.5t-58.5 14.5t-27 39t3.5 50q8 25 32 54t68 59z" />
    <glyph glyph-name="uni1E4C" unicode="&#x1e4c;" horiz-adv-x="688" 
d="M344 704q82 0 139 -17.5t91.5 -58t50.5 -110t16 -173.5t-16 -173.5t-50.5 -110t-91.5 -58t-139 -17.5t-139 17.5t-92 58t-51 110t-16 173.5t16 173.5t51 110t92 58t139 17.5zM344 583q-53 0 -82.5 -21t-42 -72.5t-12.5 -144.5q0 -92 12.5 -144t42 -73t82.5 -21
q52 0 81.5 21t42 73t12.5 144q0 93 -12.5 144.5t-42 72.5t-81.5 21zM250 896q25 -2 45 -8t38.5 -14.5t37 -16t38.5 -10.5q26 -4 32.5 7t6.5 37h64q11 -70 -14 -107t-68 -34q-34 3 -61.5 14t-51 22t-47.5 14q-25 4 -31.5 -7.5t-6.5 -38.5h-64q-7 50 3 82.5t32 47t47 12.5z
M402 1101l67 -85l-164 -96l-45 54z" />
    <glyph glyph-name="uni1E4E" unicode="&#x1e4e;" horiz-adv-x="688" 
d="M344 704q82 0 139 -17.5t91.5 -58t50.5 -110t16 -173.5t-16 -173.5t-50.5 -110t-91.5 -58t-139 -17.5t-139 17.5t-92 58t-51 110t-16 173.5t16 173.5t51 110t92 58t139 17.5zM344 583q-53 0 -82.5 -21t-42 -72.5t-12.5 -144.5q0 -92 12.5 -144t42 -73t82.5 -21
q52 0 81.5 21t42 73t12.5 144q0 93 -12.5 144.5t-42 72.5t-81.5 21zM250 896q25 -2 45 -8t38.5 -14.5t37 -16t38.5 -10.5q26 -4 32.5 7t6.5 37h64q11 -70 -14 -107t-68 -34q-34 3 -61.5 14t-51 22t-47.5 14q-25 4 -31.5 -7.5t-6.5 -38.5h-64q-7 50 3 82.5t32 47t47 12.5z
M238 1049h43q29 0 29 -29v-53q0 -29 -29 -29h-43q-30 0 -30 29v53q0 29 30 29zM404 1049h44q29 0 29 -29v-53q0 -29 -29 -29h-44q-29 0 -29 29v53q0 29 29 29z" />
    <glyph glyph-name="uni022C" unicode="&#x22c;" horiz-adv-x="688" 
d="M344 704q82 0 139 -17.5t91.5 -58t50.5 -110t16 -173.5t-16 -173.5t-50.5 -110t-91.5 -58t-139 -17.5t-139 17.5t-92 58t-51 110t-16 173.5t16 173.5t51 110t92 58t139 17.5zM344 583q-53 0 -82.5 -21t-42 -72.5t-12.5 -144.5q0 -92 12.5 -144t42 -73t82.5 -21
q52 0 81.5 21t42 73t12.5 144q0 93 -12.5 144.5t-42 72.5t-81.5 21zM250 896q25 -2 45 -8t38.5 -14.5t37 -16t38.5 -10.5q26 -4 32.5 7t6.5 37h64q11 -70 -14 -107t-68 -34q-34 3 -61.5 14t-51 22t-47.5 14q-25 4 -31.5 -7.5t-6.5 -38.5h-64q-7 50 3 82.5t32 47t47 12.5z
M474 943h-272v84h272v-84z" />
    <glyph glyph-name="uni0210" unicode="&#x210;" horiz-adv-x="647" 
d="M335 700q91 0 147.5 -18.5t83 -63t26.5 -123.5q0 -48 -12.5 -84.5t-41.5 -58.5t-79 -28v-5q18 -3 37.5 -14t36.5 -32.5t25 -57.5l60 -215h-161l-53 210q-9 34 -26.5 47t-48.5 13q-68 0 -114.5 0.5t-78 1.5t-56.5 2l3 111h249q40 0 63.5 8.5t33 30.5t9.5 61
q0 40 -9.5 61.5t-33 30t-63.5 8.5q-94 0 -159 -1t-89 -3l-15 109q42 5 79 7t81 2.5t106 0.5zM220 690v-690h-151v690h151zM359 960l116 -184l-60 -48l-152 168zM169 960l116 -184l-59 -48l-153 168z" />
    <glyph glyph-name="uni1E5A" unicode="&#x1e5a;" horiz-adv-x="647" 
d="M335 700q91 0 147.5 -18.5t83 -63t26.5 -123.5q0 -48 -12.5 -84.5t-41.5 -58.5t-79 -28v-5q18 -3 37.5 -14t36.5 -32.5t25 -57.5l60 -215h-161l-53 210q-9 34 -26.5 47t-48.5 13q-68 0 -114.5 0.5t-78 1.5t-56.5 2l3 111h249q40 0 63.5 8.5t33 30.5t9.5 61
q0 40 -9.5 61.5t-33 30t-63.5 8.5q-94 0 -159 -1t-89 -3l-15 109q42 5 79 7t81 2.5t106 0.5zM220 690v-690h-151v690h151zM347 -48q42 0 42 -41v-52q0 -42 -42 -42h-46q-42 0 -42 42v52q0 41 42 41h46z" />
    <glyph glyph-name="uni0212" unicode="&#x212;" horiz-adv-x="647" 
d="M335 700q91 0 147.5 -18.5t83 -63t26.5 -123.5q0 -48 -12.5 -84.5t-41.5 -58.5t-79 -28v-5q18 -3 37.5 -14t36.5 -32.5t25 -57.5l60 -215h-161l-53 210q-9 34 -26.5 47t-48.5 13q-68 0 -114.5 0.5t-78 1.5t-56.5 2l3 111h249q40 0 63.5 8.5t33 30.5t9.5 61
q0 40 -9.5 61.5t-33 30t-63.5 8.5q-94 0 -159 -1t-89 -3l-15 109q42 5 79 7t81 2.5t106 0.5zM220 690v-690h-151v690h151zM222 744l-71 10q-5 42 13.5 76.5t57.5 55.5t93 21q56 0 94.5 -21t57.5 -55.5t13 -76.5l-71 -10q0 34 -22.5 50.5t-71.5 16.5q-47 0 -70 -16.5
t-23 -50.5z" />
    <glyph glyph-name="uni1E5E" unicode="&#x1e5e;" horiz-adv-x="647" 
d="M335 700q91 0 147.5 -18.5t83 -63t26.5 -123.5q0 -48 -12.5 -84.5t-41.5 -58.5t-79 -28v-5q18 -3 37.5 -14t36.5 -32.5t25 -57.5l60 -215h-161l-53 210q-9 34 -26.5 47t-48.5 13q-68 0 -114.5 0.5t-78 1.5t-56.5 2l3 111h249q40 0 63.5 8.5t33 30.5t9.5 61
q0 40 -9.5 61.5t-33 30t-63.5 8.5q-94 0 -159 -1t-89 -3l-15 109q42 5 79 7t81 2.5t106 0.5zM220 690v-690h-151v690h151zM471 -69v-94h-299v94h299z" />
    <glyph glyph-name="uni1E64" unicode="&#x1e64;" horiz-adv-x="586" 
d="M297 703q51 0 111 -5.5t117 -22.5l-10 -101q-44 1 -103 2t-116 1q-28 0 -47.5 -1.5t-31.5 -8t-17 -19.5t-5 -36q0 -35 16.5 -51t56.5 -29l133 -43q83 -28 115 -76t32 -126q0 -59 -14 -98t-44 -61t-79 -31.5t-120 -9.5q-34 0 -97 4.5t-144 22.5l10 108q59 -1 102.5 -2.5
t74.5 -2t54 -0.5q40 0 62.5 5t31.5 20t9 43q0 24 -6.5 38.5t-21 23t-39.5 15.5l-140 48q-79 29 -112 76t-33 124q0 60 14.5 97.5t45 58.5t79 29t116.5 8zM327 1065q39 0 39 -37v-48q0 -18 -9.5 -28t-29.5 -10h-41q-39 0 -39 38v48q0 37 39 37h41zM374 925l61 -94l-206 -99
l-41 60z" />
    <glyph glyph-name="uni1E66" unicode="&#x1e66;" horiz-adv-x="586" 
d="M297 703q51 0 111 -5.5t117 -22.5l-10 -101q-44 1 -103 2t-116 1q-28 0 -47.5 -1.5t-31.5 -8t-17 -19.5t-5 -36q0 -35 16.5 -51t56.5 -29l133 -43q83 -28 115 -76t32 -126q0 -59 -14 -98t-44 -61t-79 -31.5t-120 -9.5q-34 0 -97 4.5t-144 22.5l10 108q59 -1 102.5 -2.5
t74.5 -2t54 -0.5q40 0 62.5 5t31.5 20t9 43q0 24 -6.5 38.5t-21 23t-39.5 15.5l-140 48q-79 29 -112 76t-33 124q0 60 14.5 97.5t45 58.5t79 29t116.5 8zM431 919l39 -57l-143 -119h-61l-143 119l40 57l130 -71h8zM316 1070q39 0 39 -38v-47q0 -18 -9.5 -28t-29.5 -10h-41
q-39 0 -39 38v47q0 38 39 38h41z" />
    <glyph glyph-name="uni1E60" unicode="&#x1e60;" horiz-adv-x="586" 
d="M297 703q51 0 111 -5.5t117 -22.5l-10 -101q-44 1 -103 2t-116 1q-28 0 -47.5 -1.5t-31.5 -8t-17 -19.5t-5 -36q0 -35 16.5 -51t56.5 -29l133 -43q83 -28 115 -76t32 -126q0 -59 -14 -98t-44 -61t-79 -31.5t-120 -9.5q-34 0 -97 4.5t-144 22.5l10 108q59 -1 102.5 -2.5
t74.5 -2t54 -0.5q40 0 62.5 5t31.5 20t9 43q0 24 -6.5 38.5t-21 23t-39.5 15.5l-140 48q-79 29 -112 76t-33 124q0 60 14.5 97.5t45 58.5t79 29t116.5 8zM319 891q42 0 42 -41v-52q0 -42 -42 -42h-46q-42 0 -42 42v52q0 41 42 41h46z" />
    <glyph glyph-name="uni1E62" unicode="&#x1e62;" horiz-adv-x="586" 
d="M297 703q51 0 111 -5.5t117 -22.5l-10 -101q-44 1 -103 2t-116 1q-28 0 -47.5 -1.5t-31.5 -8t-17 -19.5t-5 -36q0 -35 16.5 -51t56.5 -29l133 -43q83 -28 115 -76t32 -126q0 -59 -14 -98t-44 -61t-79 -31.5t-120 -9.5q-34 0 -97 4.5t-144 22.5l10 108q59 -1 102.5 -2.5
t74.5 -2t54 -0.5q40 0 62.5 5t31.5 20t9 43q0 24 -6.5 38.5t-21 23t-39.5 15.5l-140 48q-79 29 -112 76t-33 124q0 60 14.5 97.5t45 58.5t79 29t116.5 8zM320 -54q42 0 42 -41v-52q0 -42 -42 -42h-46q-42 0 -42 42v52q0 41 42 41h46z" />
    <glyph glyph-name="uni1E68" unicode="&#x1e68;" horiz-adv-x="586" 
d="M297 703q51 0 111 -5.5t117 -22.5l-10 -101q-44 1 -103 2t-116 1q-28 0 -47.5 -1.5t-31.5 -8t-17 -19.5t-5 -36q0 -35 16.5 -51t56.5 -29l133 -43q83 -28 115 -76t32 -126q0 -59 -14 -98t-44 -61t-79 -31.5t-120 -9.5q-34 0 -97 4.5t-144 22.5l10 108q59 -1 102.5 -2.5
t74.5 -2t54 -0.5q40 0 62.5 5t31.5 20t9 43q0 24 -6.5 38.5t-21 23t-39.5 15.5l-140 48q-79 29 -112 76t-33 124q0 60 14.5 97.5t45 58.5t79 29t116.5 8zM319 891q42 0 42 -41v-52q0 -42 -42 -42h-46q-42 0 -42 42v52q0 41 42 41h46zM320 -54q42 0 42 -41v-52q0 -42 -42 -42
h-46q-42 0 -42 42v52q0 41 42 41h46z" />
    <glyph glyph-name="uni1E9E" unicode="&#x1e9e;" horiz-adv-x="689" 
d="M216 693q40 0 92.5 -0.5t108 -1t105.5 -3t84 -6.5l-7 -110h-324q-27 0 -41 -13t-14 -38v-521h-153v552q0 64 41 102.5t108 38.5zM326 388l126 184h147l-97 -136q-9 -12 -19.5 -23t-23.5 -18v-3l46 2q56 1 93 -22.5t55.5 -66.5t19.5 -101q1 -76 -21.5 -124t-73 -70.5
t-136.5 -22.5q-48 0 -94 5.5t-88 12.5l6 101q29 -3 50.5 -5.5t43 -3.5t47.5 -1q64 0 90.5 21.5t26.5 80.5q0 31 -9 51.5t-31 30.5t-63 10h-95v98z" />
    <glyph glyph-name="uni1E6C" unicode="&#x1e6c;" horiz-adv-x="602" 
d="M377 690v-690h-153v690h153zM585 690v-120h-568v120h568zM321 -52q42 0 42 -41v-52q0 -42 -42 -42h-46q-42 0 -42 42v52q0 41 42 41h46z" />
    <glyph glyph-name="uni1E6E" unicode="&#x1e6e;" horiz-adv-x="602" 
d="M377 690v-690h-153v690h153zM585 690v-120h-568v120h568zM445 -73v-94h-299v94h299z" />
    <glyph glyph-name="uni0214" unicode="&#x214;" horiz-adv-x="686" 
d="M621 690v-415q0 -105 -26 -168.5t-85.5 -92t-158.5 -28.5q-105 0 -168 28.5t-91 92t-28 168.5v415h153v-415q0 -65 11.5 -101.5t39.5 -51.5t75 -15t74.5 15t39 51.5t11.5 101.5v415h153zM393 957l117 -184l-61 -47l-152 167zM203 957l116 -184l-59 -47l-153 167z" />
    <glyph glyph-name="uni1EE4" unicode="&#x1ee4;" horiz-adv-x="686" 
d="M621 690v-415q0 -105 -26 -168.5t-85.5 -92t-158.5 -28.5q-105 0 -168 28.5t-91 92t-28 168.5v415h153v-415q0 -65 11.5 -101.5t39.5 -51.5t75 -15t74.5 15t39 51.5t11.5 101.5v415h153zM367 -45q43 0 43 -42v-51q0 -42 -43 -42h-46q-42 0 -42 42v51q0 42 42 42h46z" />
    <glyph glyph-name="uni1EE6" unicode="&#x1ee6;" horiz-adv-x="686" 
d="M621 690v-415q0 -105 -26 -168.5t-85.5 -92t-158.5 -28.5q-105 0 -168 28.5t-91 92t-28 168.5v415h153v-415q0 -65 11.5 -101.5t39.5 -51.5t75 -15t74.5 15t39 51.5t11.5 101.5v415h153zM315 799q27 9 39.5 22t12.5 35q0 26 -21.5 32t-48.5 -4l-16 71q49 17 88 10
t61.5 -34t22.5 -71q0 -36 -16 -62t-43.5 -42t-62.5 -22z" />
    <glyph glyph-name="Uhorn" unicode="&#x1af;" horiz-adv-x="740" 
d="M621 690v-415q0 -105 -26 -168.5t-85.5 -92t-158.5 -28.5q-105 0 -168 28.5t-91 92t-28 168.5v415h153v-415q0 -65 11.5 -101.5t39.5 -51.5t75 -15t74.5 15t39 51.5t11.5 101.5v415h153zM606 574l-4 63q36 5 56 29t23 61l92 -5q-1 -48 -23.5 -82t-60 -51t-83.5 -15z" />
    <glyph glyph-name="uni1EE8" unicode="&#x1ee8;" horiz-adv-x="740" 
d="M621 690v-415q0 -105 -26 -168.5t-85.5 -92t-158.5 -28.5q-105 0 -168 28.5t-91 92t-28 168.5v415h153v-415q0 -65 11.5 -101.5t39.5 -51.5t75 -15t74.5 15t39 51.5t11.5 101.5v415h153zM606 574l-4 63q36 5 56 29t23 61l92 -5q-1 -48 -23.5 -82t-60 -51t-83.5 -15z
M463 945l64 -99l-224 -112l-43 63z" />
    <glyph glyph-name="uni1EF0" unicode="&#x1ef0;" horiz-adv-x="740" 
d="M621 690v-415q0 -105 -26 -168.5t-85.5 -92t-158.5 -28.5q-105 0 -168 28.5t-91 92t-28 168.5v415h153v-415q0 -65 11.5 -101.5t39.5 -51.5t75 -15t74.5 15t39 51.5t11.5 101.5v415h153zM606 574l-4 63q36 5 56 29t23 61l92 -5q-1 -48 -23.5 -82t-60 -51t-83.5 -15z
M366 -48q42 0 42 -41v-52q0 -42 -42 -42h-46q-42 0 -42 42v52q0 41 42 41h46z" />
    <glyph glyph-name="uni1EEA" unicode="&#x1eea;" horiz-adv-x="740" 
d="M621 690v-415q0 -105 -26 -168.5t-85.5 -92t-158.5 -28.5q-105 0 -168 28.5t-91 92t-28 168.5v415h153v-415q0 -65 11.5 -101.5t39.5 -51.5t75 -15t74.5 15t39 51.5t11.5 101.5v415h153zM606 574l-4 63q36 5 56 29t23 61l92 -5q-1 -48 -23.5 -82t-60 -51t-83.5 -15z
M219 945l203 -148l-43 -63l-224 112z" />
    <glyph glyph-name="uni1EEC" unicode="&#x1eec;" horiz-adv-x="740" 
d="M621 690v-415q0 -105 -26 -168.5t-85.5 -92t-158.5 -28.5q-105 0 -168 28.5t-91 92t-28 168.5v415h153v-415q0 -65 11.5 -101.5t39.5 -51.5t75 -15t74.5 15t39 51.5t11.5 101.5v415h153zM606 574l-4 63q36 5 56 29t23 61l92 -5q-1 -48 -23.5 -82t-60 -51t-83.5 -15z
M315 799q27 9 39.5 22t12.5 35q0 26 -21.5 32t-48.5 -4l-16 71q49 17 88 10t61.5 -34t22.5 -71q0 -36 -16 -62t-43.5 -42t-62.5 -22z" />
    <glyph glyph-name="uni1EEE" unicode="&#x1eee;" horiz-adv-x="740" 
d="M621 690v-415q0 -105 -26 -168.5t-85.5 -92t-158.5 -28.5q-105 0 -168 28.5t-91 92t-28 168.5v415h153v-415q0 -65 11.5 -101.5t39.5 -51.5t75 -15t74.5 15t39 51.5t11.5 101.5v415h153zM606 574l-4 63q36 5 56 29t23 61l92 -5q-1 -48 -23.5 -82t-60 -51t-83.5 -15z
M250 900q25 -2 45 -8.5t38.5 -14.5t37 -15.5t38.5 -10.5q26 -4 32.5 7t6.5 37h64q11 -71 -13.5 -107.5t-67.5 -33.5q-34 3 -62 13.5t-51.5 22t-47.5 14.5q-25 3 -31 -8t-6 -38h-64q-8 50 2.5 82t32 47t46.5 13z" />
    <glyph glyph-name="uni0216" unicode="&#x216;" horiz-adv-x="686" 
d="M621 690v-415q0 -105 -26 -168.5t-85.5 -92t-158.5 -28.5q-105 0 -168 28.5t-91 92t-28 168.5v415h153v-415q0 -65 11.5 -101.5t39.5 -51.5t75 -15t74.5 15t39 51.5t11.5 101.5v415h153zM250 744l-71 10q-5 42 13.5 76.5t57.5 55.5t93 21q56 0 94.5 -21t57.5 -55.5
t13 -76.5l-71 -10q0 34 -22.5 50.5t-71.5 16.5q-47 0 -70 -16.5t-23 -50.5z" />
    <glyph glyph-name="uni1E7A" unicode="&#x1e7a;" horiz-adv-x="686" 
d="M621 690v-415q0 -105 -26 -168.5t-85.5 -92t-158.5 -28.5q-105 0 -168 28.5t-91 92t-28 168.5v415h153v-415q0 -65 11.5 -101.5t39.5 -51.5t75 -15t74.5 15t39 51.5t11.5 101.5v415h153zM405 1009h45q28 0 28 -29v-53q0 -29 -28 -29h-45q-29 0 -29 29v53q0 29 29 29z
M239 1009h44q29 0 29 -29v-53q0 -29 -29 -29h-44q-29 0 -29 29v53q0 29 29 29zM481 762h-273v84h273v-84z" />
    <glyph glyph-name="uni1E78" unicode="&#x1e78;" horiz-adv-x="686" 
d="M621 690v-415q0 -105 -26 -168.5t-85.5 -92t-158.5 -28.5q-105 0 -168 28.5t-91 92t-28 168.5v415h153v-415q0 -65 11.5 -101.5t39.5 -51.5t75 -15t74.5 15t39 51.5t11.5 101.5v415h153zM251 896q25 -2 45 -8t38.5 -14.5t37 -16t38.5 -10.5q26 -4 32.5 7t6.5 37h64
q11 -70 -14 -107t-68 -34q-34 3 -61.5 14t-51 22t-47.5 14q-25 4 -31.5 -7.5t-6.5 -38.5h-64q-7 50 3 82.5t32 47t47 12.5zM403 1101l67 -85l-164 -96l-45 54z" />
    <glyph glyph-name="uni1E8E" unicode="&#x1e8e;" horiz-adv-x="612" 
d="M611 690l-233 -471h-144l-234 471h159l116 -254q9 -20 15 -43t11 -44h10q6 21 12 44t14 43l115 254h159zM382 312v-312h-153v312h153zM329 886q42 0 42 -41v-52q0 -42 -42 -42h-46q-42 0 -42 42v52q0 41 42 41h46z" />
    <glyph glyph-name="uni1EF4" unicode="&#x1ef4;" horiz-adv-x="612" 
d="M611 690l-233 -471h-144l-234 471h159l116 -254q9 -20 15 -43t11 -44h10q6 21 12 44t14 43l115 254h159zM382 312v-312h-153v312h153zM330 -48q42 0 42 -41v-52q0 -42 -42 -42h-46q-42 0 -42 42v52q0 41 42 41h46z" />
    <glyph glyph-name="uni1EF6" unicode="&#x1ef6;" horiz-adv-x="612" 
d="M611 690l-233 -471h-144l-234 471h159l116 -254q9 -20 15 -43t11 -44h10q6 21 12 44t14 43l115 254h159zM382 312v-312h-153v312h153zM278 794q27 9 39.5 22t12.5 35q0 26 -21.5 32t-48.5 -4l-16 71q49 17 88 10t61.5 -34t22.5 -71q0 -36 -16 -62t-43.5 -42t-62.5 -22z
" />
    <glyph glyph-name="uni0232" unicode="&#x232;" horiz-adv-x="612" 
d="M611 690l-233 -471h-144l-234 471h159l116 -254q9 -20 15 -43t11 -44h10q6 21 12 44t14 43l115 254h159zM382 312v-312h-153v312h153zM458 868v-94h-300v94h300z" />
    <glyph glyph-name="uni1EF8" unicode="&#x1ef8;" horiz-adv-x="612" 
d="M611 690l-233 -471h-144l-234 471h159l116 -254q9 -20 15 -43t11 -44h10q6 21 12 44t14 43l115 254h159zM382 312v-312h-153v312h153zM214 895q25 -2 45 -8.5t38.5 -14.5t37 -15.5t38.5 -10.5q26 -4 32.5 7t6.5 37h64q11 -71 -14 -107.5t-68 -33.5q-34 3 -61.5 13.5
t-51 22t-47.5 14.5q-25 3 -31.5 -8t-6.5 -38h-64q-7 50 3 82t32 47t47 13z" />
    <glyph glyph-name="uni1E92" unicode="&#x1e92;" horiz-adv-x="586" 
d="M372 577l168 -1l-333 -463l-169 1zM548 114v-114h-510v114h510zM540 690v-114h-494v114h494zM321 -48q42 0 42 -41v-52q0 -42 -42 -42h-46q-42 0 -42 42v52q0 41 42 41h46z" />
    <glyph glyph-name="uni1EAF" unicode="&#x1eaf;" horiz-adv-x="570" 
d="M321 507q62 0 105 -16.5t65.5 -56t22.5 -108.5v-326h-118l-21 107l-10 15v205q0 35 -16.5 51t-62.5 16q-38 0 -95 -2.5t-117 -6.5l-14 98q36 7 83 12t94 8.5t84 3.5zM453 304l-1 -83l-220 -1q-27 0 -38.5 -13t-11.5 -35v-24q0 -25 14 -38.5t45 -13.5q26 0 56.5 11
t60.5 31t53 47v-64q-9 -15 -26.5 -37.5t-44.5 -44t-63 -36.5t-82 -15q-45 0 -81 16t-57 47t-21 77v51q0 59 40 92t110 33h267zM381 729l71 -10q6 -41 -13 -76t-57 -55.5t-94 -20.5q-54 0 -93 20.5t-58 55.5t-14 76l71 10q0 -33 23 -50t72 -17q47 0 69.5 17t22.5 50zM378 901
l59 -91l-170 -83l-41 57z" />
    <glyph glyph-name="uni1EB7" unicode="&#x1eb7;" horiz-adv-x="570" 
d="M381 728l71 -10q5 -41 -13 -76t-56.5 -55.5t-94.5 -20.5q-55 0 -93.5 20.5t-57.5 55.5t-14 76l71 10q0 -33 23 -50t71 -17q47 0 70 17t23 50zM321 507q62 0 105 -16.5t65.5 -56t22.5 -108.5v-326h-118l-21 107l-10 15v205q0 35 -16.5 51t-62.5 16q-38 0 -95 -2.5
t-117 -6.5l-14 98q36 7 83 12t94 8.5t84 3.5zM453 304l-1 -83l-220 -1q-27 0 -38.5 -13t-11.5 -35v-24q0 -25 14 -38.5t45 -13.5q26 0 56.5 11t60.5 31t53 47v-64q-9 -15 -26.5 -37.5t-44.5 -44t-63 -36.5t-82 -15q-45 0 -81 16t-57 47t-21 77v51q0 59 40 92t110 33h267z
M302 -54q42 0 42 -41v-52q0 -42 -42 -42h-46q-42 0 -42 42v52q0 41 42 41h46z" />
    <glyph glyph-name="uni1EB1" unicode="&#x1eb1;" horiz-adv-x="570" 
d="M321 507q62 0 105 -16.5t65.5 -56t22.5 -108.5v-326h-118l-21 107l-10 15v205q0 35 -16.5 51t-62.5 16q-38 0 -95 -2.5t-117 -6.5l-14 98q36 7 83 12t94 8.5t84 3.5zM453 304l-1 -83l-220 -1q-27 0 -38.5 -13t-11.5 -35v-24q0 -25 14 -38.5t45 -13.5q26 0 56.5 11
t60.5 31t53 47v-64q-9 -15 -26.5 -37.5t-44.5 -44t-63 -36.5t-82 -15q-45 0 -81 16t-57 47t-21 77v51q0 59 40 92t110 33h267zM196 729q0 -33 23 -50t70 -17q48 0 71 17t23 50l71 -10q5 -41 -14 -76t-57.5 -55.5t-93.5 -20.5t-94 20.5t-57 55.5t-13 76zM199 901l152 -117
l-40 -57l-172 83z" />
    <glyph glyph-name="uni1EB3" unicode="&#x1eb3;" horiz-adv-x="570" 
d="M321 507q62 0 105 -16.5t65.5 -56t22.5 -108.5v-326h-118l-21 107l-10 15v205q0 35 -16.5 51t-62.5 16q-38 0 -95 -2.5t-117 -6.5l-14 98q36 7 83 12t94 8.5t84 3.5zM453 304l-1 -83l-220 -1q-27 0 -38.5 -13t-11.5 -35v-24q0 -25 14 -38.5t45 -13.5q26 0 56.5 11
t60.5 31t53 47v-64q-9 -15 -26.5 -37.5t-44.5 -44t-63 -36.5t-82 -15q-45 0 -81 16t-57 47t-21 77v51q0 59 40 92t110 33h267zM381 729l71 -10q6 -41 -13 -76t-57 -55.5t-94 -20.5q-54 0 -93 20.5t-58 55.5t-14 76l71 10q0 -33 23 -50t72 -17q47 0 69.5 17t22.5 50zM260 779
q22 7 33 18t11 29q1 19 -17.5 21.5t-43.5 -7.5l-14 62q43 15 77.5 11t54.5 -25.5t20 -60.5q0 -44 -30.5 -70.5t-77.5 -34.5z" />
    <glyph glyph-name="uni1EB5" unicode="&#x1eb5;" horiz-adv-x="570" 
d="M321 507q62 0 105 -16.5t65.5 -56t22.5 -108.5v-326h-118l-21 107l-10 15v205q0 35 -16.5 51t-62.5 16q-38 0 -95 -2.5t-117 -6.5l-14 98q36 7 83 12t94 8.5t84 3.5zM453 304l-1 -83l-220 -1q-27 0 -38.5 -13t-11.5 -35v-24q0 -25 14 -38.5t45 -13.5q26 0 56.5 11
t60.5 31t53 47v-64q-9 -15 -26.5 -37.5t-44.5 -44t-63 -36.5t-82 -15q-45 0 -81 16t-57 47t-21 77v51q0 59 40 92t110 33h267zM381 729l71 -10q6 -41 -13 -76t-57 -55.5t-94 -20.5q-54 0 -93 20.5t-58 55.5t-14 76l71 10q0 -33 23 -50t71 -17q47 0 70 17t23 50zM206 890
q23 -2 41 -8t34.5 -14t32.5 -15t36 -10q23 -3 29.5 7t6.5 35h58q10 -65 -13 -99.5t-63 -30.5q-23 2 -42.5 8.5t-36.5 14.5t-32.5 15t-31.5 9q-24 3 -30 -7.5t-6 -35.5h-59q-7 46 2.5 75.5t29.5 43.5t44 12z" />
    <glyph glyph-name="uni1EA5" unicode="&#x1ea5;" horiz-adv-x="570" 
d="M321 507q62 0 105 -16.5t65.5 -56t22.5 -108.5v-326h-118l-21 107l-10 15v205q0 35 -16.5 51t-62.5 16q-38 0 -95 -2.5t-117 -6.5l-14 98q36 7 83 12t94 8.5t84 3.5zM453 304l-1 -83l-220 -1q-27 0 -38.5 -13t-11.5 -35v-24q0 -25 14 -38.5t45 -13.5q26 0 56.5 11
t60.5 31t53 47v-64q-9 -15 -26.5 -37.5t-44.5 -44t-63 -36.5t-82 -15q-45 0 -81 16t-57 47t-21 77v51q0 59 40 92t110 33h267zM234 729h107l131 -117l-39 -58l-141 85h-8l-139 -85l-39 54zM528 862l76 -78l-154 -113l-50 49z" />
    <glyph glyph-name="uni1EAD" unicode="&#x1ead;" horiz-adv-x="570" 
d="M342 733l134 -134l-39 -53l-145 95h-8l-145 -95l-40 57l136 130h107zM321 507q62 0 105 -16.5t65.5 -56t22.5 -108.5v-326h-118l-21 107l-10 15v205q0 35 -16.5 51t-62.5 16q-38 0 -95 -2.5t-117 -6.5l-14 98q36 7 83 12t94 8.5t84 3.5zM453 304l-1 -83l-220 -1
q-27 0 -38.5 -13t-11.5 -35v-24q0 -25 14 -38.5t45 -13.5q26 0 56.5 11t60.5 31t53 47v-64q-9 -15 -26.5 -37.5t-44.5 -44t-63 -36.5t-82 -15q-45 0 -81 16t-57 47t-21 77v51q0 59 40 92t110 33h267zM302 -54q42 0 42 -41v-52q0 -42 -42 -42h-46q-42 0 -42 42v52q0 41 42 41
h46z" />
    </font>
</defs>
</svg>
